<ttFont>
<head>
    <!-- Most of this table will be recalculated by the compiler -->
    <tableVersion value="1.0"/>
    <fontRevision value="2.004"/>
    <checkSumAdjustment value="0x44f735c8"/>
    <magicNumber value="0x5f0f3cf5"/>
    <flags value="00000000 00000011"/>
    <unitsPerEm value="1000"/>
    <created value="Thu Oct  8 09:58:50 2009"/>
    <modified value="Thu Oct  8 09:58:50 2009"/>
    <xMin value="-496"/>
    <yMin value="-290"/>
    <xMax value="1501"/>
    <yMax value="1100"/>
    <macStyle value="00000000 00000000"/>
    <lowestRecPPEM value="3"/>
    <fontDirectionHint value="2"/>
    <indexToLocFormat value="0"/>
    <glyphDataFormat value="0"/>
  </head>
          <CharString index="0">
            765 hmoveto
            31 -18 vlineto
            -64 -10 9 28 -10 hvcurveto
            -232 626 rlineto
            18 -7 -1 4 -17 hhcurveto
            -16 -2 -6 -13 -5 hvcurveto
            -221 -597 -9 -23 -16 -45 -89 -1 rlinecurve
            -31 vlineto
            1 21 40 2 40 hhcurveto
            116 -3 rlineto
            31 vlineto
            -51 -23 26 24 6 0 2 5 12 hvcurveto
            48 130 rlineto
            266 hlineto
            57 -153 rlineto
            5 -13 0 -2 -3 vvcurveto
            -29 -56 0 -26 vhcurveto
            -31 vlineto
            3 36 70 0 38 hhcurveto
            -135 259 rmoveto
            -244 hlineto
            122 330 rlineto
            return
          </CharString>
          <CharString index="1">
            rmoveto
            -17 15 rlineto
            -35 -30 -28 -14 -28 hhcurveto
            -14 -16 3 19 -32 hvcurveto
            14 -24 -22 13 -25 hhcurveto
            -39 -21 -22 -57 -54 hvcurveto
            17 -15 rlineto
            35 30 28 14 28 hhcurveto
            14 16 -3 -19 32 hvcurveto
            -14 24 22 -13 25 hhcurveto
            39 21 22 57 54 hvcurveto
            endchar
          </CharString>
          <CharString index="2">
            570 36 callsubr
            -25 -53 -1 -6 hhcurveto
            -28 -29 1 2 -28 hvcurveto
            -25 vlineto
            72 0 -53 -23 hvcurveto
            -235 vlineto
            -116 -86 -51 -68 -30 -102 12 150 vhcurveto
            269 vlineto
            41 5 6 67 77 callgsubr
            -26 callgsubr
            68 4 -6 -43 hvcurveto
            -217 vlineto
            -25 0 -37 2 -13 vhcurveto
            -81 9 80 -81 111 hhcurveto
            116 64 102 73 1 hvcurveto
            266 vlineto
            40 1 26 22 45 hhcurveto
            return
          </CharString>
          <CharString index="3">
            hstemhm
            34 156 186 203 hintmask 11001100
            -106 callgsubr
            hintmask 00110000
            return
          </CharString>
          <CharString index="4">
            -20 -103 callgsubr
            return
          </CharString>
          <CharString index="5">
            rmoveto
            22 4 -17 20 -22 hhcurveto
            -11 -9 -6 -13 -14 hvcurveto
            -146 -121 14 -22 178 93 6 4 14 7 3 16 rlinecurve
            endchar
          </CharString>
          <CharString index="6">
            29 -24 24 -29 -29 -24 -24 -29 -88 callsubr
            return
          </CharString>
          <CharString index="7">
            593 68 rmoveto
            5 0 10 -13 -11 -1 -9 -4 vhcurveto
            -61 -7 -36 -1 -7 hhcurveto
            -20 -9 13 11 -6 hvcurveto
            -8 16 -6 28 -13 64 -8 35 -10 51 -75 29 rrcurveto
            70 18 62 45 61 vvcurveto
            70 -89 65 -121 vhcurveto
            -240 107 callsubr
            vlineto
            106 3 107 -3 rlineto
            137 callsubr
            174 90 vlineto
            25 26 -1 -31 31 hvcurveto
            21 -22 0 -24 -44 vvcurveto
            -56 0 -18 32 -31 vhcurveto
            -18 18 40 -15 45 hhcurveto
            64 15 62 20 hvcurveto
            -184 311 rmoveto
            -39 -5 -72 -130 vhcurveto
            -88 178 hlineto
            25 2 10 10 5 vhcurveto
            3 7 27 0 18 hhcurveto
            74 85 -3 -107 hvcurveto
            return
          </CharString>
          <CharString index="8">
            26 -22 22 -26 -26 -22 -22 -26 -26 22 -22 26 26 22 22 26 vhcurveto
            return
          </CharString>
          <CharString index="9">
            80 -48 95 -110 27 vhcurveto
            -136 33 rlineto
            -87 21 -21 69 36 vvcurveto
            68 57 63 85 138 53 -101 -102 14 vhcurveto
            -13 2 0 -5 11 42 callsubr
            201 vlineto
            17 0 7 -11 -7 0 -1 -12 -8 vhcurveto
            -37 -59 rlineto
            27 -27 -46 45 -96 hhcurveto
            -116 -89 -88 -106 -64 34 -45 13 -15 hvcurveto
            47 -49 30 -7 83 -20 16 -4 17 -3 16 -4 59 -14 20 -5 31 -34 rrcurveto
            6 -7 30 -34 -54 vvcurveto
            -71 -53 -72 -91 -42 -67 8 43 -55 vhcurveto
            -65 51 -3 73 -1 34 rrcurveto
            7 -1 -6 2 -5 57 callgsubr
            -200 vlineto
            -17 0 -7 11 7 2 3 9 6 vhcurveto
            37 60 rlineto
            -29 28 65 -43 103 hhcurveto
            125 82 101 106 hvcurveto
            return
          </CharString>
          <CharString index="10">
            rmoveto
            -22 hlineto
            -86 -2 -68 -48 -64 hhcurveto
            -65 -67 49 85 -2 hvcurveto
            -22 hlineto
            -101 1 72 -71 83 hhcurveto
            83 72 71 101 1 hvcurveto
            return
          </CharString>
          <CharString index="11">
            63 -39 41 0 vhcurveto
            -37 38 -16 3 -85 20 -21 5 -35 8 -6 2 rrcurveto
            -50 20 -16 39 30 vvcurveto
            46 40 49 67 127 18 -117 -32 4 vhcurveto
            -7 2 0 -6 11 42 callsubr
            136 vlineto
            16 0 8 -10 -6 -1 -1 -22 -15 vhcurveto
            -5 -5 -10 -15 -4 -6 rrcurveto
            37 -38 -46 12 -41 hhcurveto
            -91 -66 -68 -78 -56 32 -33 12 -12 hvcurveto
            30 -30 20 -4 92 -21 54 -13 10 -2 23 -21 rrcurveto
            return
          </CharString>
          <CharString index="12">
            758 652 rmoveto
            31 vlineto
            -117 -3 -117 3 rlineto
            -31 vlineto
            103 0 -46 -30 hvcurveto
            -429 vlineto
            -371 522 rlineto
            13 -10 -1 1 -21 hhcurveto
            -169 -31 hlineto
            28 71 0 -9 3 hvcurveto
            1 -2 0 -1 -15 vvcurveto
            -518 vlineto
            -30 0 -46 -103 vhcurveto
            -31 vlineto
            117 3 117 -3 rlineto
            31 vlineto
            -103 0 46 30 hvcurveto
            522 vlineto
            437 -617 rlineto
            -12 8 5 0 5 hhcurveto
            14 0 7 21 hvcurveto
            548 vlineto
            30 0 46 103 vhcurveto
            return
          </CharString>
          <CharString index="13">
            594 36 callsubr
            -21 -28 -1 -21 hhcurveto
            -27 -28 64 callsubr
            -25 vlineto
            22 -2 7 -12 -16 vvcurveto
            -15 -8 -12 -7 -11 vhcurveto
            -123 -182 -138 203 rlineto
            -5 7 -7 10 10 vvcurveto
            20 29 0 12 58 callsubr
            -27 -40 1 2 -30 hvcurveto
            -25 vlineto
            52 12 -6 -26 18 hvcurveto
            171 -251 rlineto
            -134 -35 callgsubr
            106 3 107 -3 rlineto
            25 vlineto
            -68 -4 6 44 hvcurveto
            130 vlineto
            145 214 36 54 33 14 39 2 rlinecurve
            return
          </CharString>
          <CharString index="14">
            60 callgsubr
            70 72 14 25 114 25 -3 25 hintmask 1110001110100000
            -96 callgsubr
            hintmask 1010010001000000
            -79 callgsubr
            return
          </CharString>
          <CharString index="15">
            hstemhm
            72 103 493 103 hintmask 11001100
            -101 callgsubr
            hintmask 00110000
            return
          </CharString>
          <CharString index="16">
            -20 -92 callsubr
            return
          </CharString>
          <CharString index="17">
            263 hmoveto
            9 callsubr
            368 vlineto
            43 5 5 71 vhcurveto
            25 vlineto
            -112 -3 -112 -30 callsubr
            71 5 -5 -43 hvcurveto
            -368 vlineto
            -43 -5 -5 -71 vhcurveto
            -25 vlineto
            return
          </CharString>
          <CharString index="18">
            -78 -8 -41 -11 -21 hhcurveto
            -53 -7 45 116 -18 hvcurveto
            -11 70 -4 25 -32 32 -21 22 -32 19 -39 11 rrcurveto
            120 29 64 66 68 vvcurveto
            97 -122 83 -151 vhcurveto
            -324 -41 callsubr
            hlineto
            3 36 71 0 39 hhcurveto
            39 71 0 -3 36 hvcurveto
            -40 callgsubr
            253 return
          </CharString>
          <CharString index="19">
            -29 24 -24 29 29 24 24 29 vhcurveto
            return
          </CharString>
          <CharString index="20">
            770 339 rmoveto
            96 -36 93 -66 70 vhcurveto
            -9 9 -8 8 -10 8 rrcurveto
            42 12 27 43 48 vvcurveto
            33 -21 30 -32 -35 -17 128 callsubr
            35 5 5 1 1 4 vhcurveto
            -11 -21 -20 -16 -23 -6 rrcurveto
            41 -57 -68 22 -71 hhcurveto
            -93 -89 -39 -68 -65 hvcurveto
            -66 -70 -36 -93 -96 vvcurveto
            -95 36 -92 66 -68 vhcurveto
            -67 65 89 -39 93 hhcurveto
            93 89 39 67 65 hvcurveto
            66 68 36 92 95 vvcurveto
            -103 16 rmoveto
            -88 -15 -90 -51 -72 vhcurveto
            -60 -42 -65 -41 -73 hhcurveto
            -73 -65 41 60 -42 hvcurveto
            -51 72 -15 90 88 vvcurveto
            83 16 83 50 65 vhcurveto
            57 43 66 37 71 hhcurveto
            72 65 -37 -57 43 hvcurveto
            50 -65 16 -83 -83 vvcurveto
            return
          </CharString>
          <CharString index="21">
            55 -22 50 -46 -35 -18 128 callsubr
            36 27 14 17 6 4 vhcurveto
            1 -6 0 -9 -6 vvcurveto
            -101 -61 -56 -19 -18 vhcurveto
            -5 -5 0 -4 0 vvcurveto
            -6 5 -5 6 11 85 76 118 vhcurveto
            return
          </CharString>
          <CharString index="22">
            -97 callsubr
            endchar
          </CharString>
          <CharString index="23">
            0 3 -35 hvcurveto
            -67 callsubr
            return
          </CharString>
          <CharString index="24">
            89 hintmask 11001000
            -97 callgsubr
            return
          </CharString>
          <CharString index="25">
            1072 652 rmoveto
            31 vlineto
            -2 -30 -31 -1 -30 hhcurveto
            101 callsubr
            54 -1 31 -23 -29 vvcurveto
            -5 0 -2 -5 -13 vhcurveto
            -160 -468 -171 496 rlineto
            -1 4 -3 7 4 vvcurveto
            30 57 0 27 vhcurveto
            31 vlineto
            -3 -36 -69 0 -38 hhcurveto
            -121 3 rlineto
            -31 vlineto
            59 13 -3 -18 11 hvcurveto
            6 -10 22 -66 -4 vvcurveto
            0 0 -3 -3 -9 vhcurveto
            -147 -428 -169 493 143 callgsubr
            3 vvcurveto
            30 56 0 28 vhcurveto
            31 vlineto
            -3 -35 -70 0 -38 hhcurveto
            -122 3 rlineto
            -31 vlineto
            return
          </CharString>
          <CharString index="26">
            vlineto
            -36 -2 -11 -77 vhcurveto
            -24 return
          </CharString>
          <CharString index="27">
            -20 hstemhm
            72 103 448 0 callgsubr
            hintmask 10100110
            96 0 -14 -34 hvcurveto
            -64 vlineto
            -121 -155 0 -12 -91 -190 52 281 283 192 49 82 75 callsubr
            vhcurveto
            hintmask 00000001
            27 callsubr
            hintmask 10100110
            -62 callgsubr
            hintmask 00011000
            return
          </CharString>
          <CharString index="28">
            hstemhm
            363 86 125 213 hintmask 00010001
            787 652 rmoveto
            31 vlineto
            hintmask 00100000
            144 callgsubr
            -27 hhcurveto
            hintmask 00010001
            -54 callgsubr
            hintmask 01010010
            -131 3 rlineto
            -31 19 vlineto
            55 19 -7 -27 18 hvcurveto
            226 -345 rlineto
            -195 -7 callgsubr
            hintmask 10000000
            -31 vlineto
            hintmask 01000000
            3 36 71 0 39 hhcurveto
            hintmask 10100011
            -44 callsubr
            return
          </CharString>
          <CharString index="29">
            -77 callgsubr
            hintmask 00110000
            return
          </CharString>
          <CharString index="30">
            713 233 rmoveto
            10 0 7 -13 -11 0 -6 -10 -1 vhcurveto
            -145 -8 -117 -80 -112 hhcurveto
            -88 -188 52 280 295 205 38 69 107 102 -83 -154 23 hvcurveto
            27 callsubr
            16 0 3 21 hvcurveto
            237 vlineto
            17 0 7 -11 -4 -4 0 -12 -8 vhcurveto
            -52 -77 rlineto
            34 -33 -61 55 -103 hhcurveto
            -197 -168 -160 -203 return
          </CharString>
          <CharString index="31">
            -20 hstemhm
            57 103 0 86 0 86 -86 103 18 103 -99 103 77 103 0 103 -74 86 hintmask 0000000000000010
            782 88 rmoveto
            6 0 11 -13 vhcurveto
            hintmask 1111001001100100
            -73 callgsubr
            hintmask 0010000100100000
            -28 callgsubr
            hintmask 0001000010001000
            -2 callsubr
            return
          </CharString>
          <CharString index="32">
            rmoveto
            -47 -34 -11 -33 -51 -16 27 31 39 24 19 43 13 54 0 -58 vhcurveto
            33 -1 rmoveto
            51 -46 38 -53 -60 -41 -42 -45 -51 46 -38 53 60 41 42 45 vhcurveto
            return
          </CharString>
          <CharString index="33">
            rmoveto
            262 -114 75 -101 -78 -44 -32 -33 -32 vhcurveto
            -45 -44 -22 -44 -72 vvcurveto
            -35 4 -62 53 -56 vhcurveto
            -35 34 39 -34 80 hhcurveto
            90 35 79 26 11 hvcurveto
            -31 vlineto
            -246 -116 -41 -59 -18 -58 1 35 -29 vhcurveto
            hintmask 0100001000000000
            44 8 29 17 31 -24 15 -22 hvcurveto
            hintmask 1010010001000000
            -16 -30 -9 -39 -65 53 -43 93 137 127 137 214 hvcurveto
            -92 91 rmoveto
            -75 -37 -104 -96 -19 -45 0 59 -35 vhcurveto
            hintmask 0001100110000000
            -22 39 0 50 51 vvcurveto
            66 1 41 29 41 vhcurveto
            32 23 29 21 50 hhcurveto
            72 29 -73 -3 1 hvcurveto
            20 -50 0 -81 -14 vvcurveto
            endchar
          </CharString>
          <CharString index="34">
            vlineto
            -41 -5 -6 -67 vhcurveto
            -25 return
          </CharString>
          <CharString index="35">
            602 267 rmoveto
            -25 hlineto
            -140 -8 -22 -93 -189 hhcurveto
            -182 hlineto
            413 614 rlineto
            7 10 0 3 6 vvcurveto
            16 -6 0 -20 vhcurveto
            -472 hlineto
            -11 -225 rlineto
            25 hlineto
            143 7 63 51 139 hhcurveto
            171 hlineto
            -413 -615 rlineto
            -7 -10 0 -3 -7 vvcurveto
            -17 5 0 21 vhcurveto
            487 hlineto
            return
          </CharString>
          <CharString index="36">
            -103 callsubr
            181 return
          </CharString>
          <CharString index="37">
            5 -4 27 -27 -44 vvcurveto
            -50 -39 -54 -69 -26 -54 4 35 -43 vhcurveto
            -45 35 -3 49 -1 27 rrcurveto
            8 -1 -8 1 -3 57 callgsubr
            return
          </CharString>
          <CharString index="38">
            26 -17 27 -36 -27 -14 -17 -6 -4 vhcurveto
            -1 6 0 9 6 vvcurveto
            101 61 56 19 18 vhcurveto
            5 5 0 4 0 vvcurveto
            6 -5 5 -6 -11 -85 -76 -118 -55 22 -50 46 35 18 27 26 vhcurveto
            return
          </CharString>
          <CharString index="39">
            rmoveto
            -99 callsubr
            208 hmoveto
            -99 callsubr
            endchar
          </CharString>
          <CharString index="40">
            -31 24 vlineto
            -66 callgsubr
            return
          </CharString>
          <CharString index="41">
            40 vstem
            683 342 rmoveto
            188 -153 153 -188 -189 -153 -153 -188 -189 153 -153 189 188 153 153 189 vhcurveto
            -40 hmoveto
            -167 -135 -135 -166 -167 -135 135 167 166 135 135 167 166 135 -135 -166 vhcurveto
            return
          </CharString>
          <CharString index="42">
            -42 callsubr
            -204 hmoveto
            -43 callgsubr
          </CharString>
          <CharString index="43">
            -66 callgsubr
            -524 -81 callsubr
            return
          </CharString>
          <CharString index="44">
            rmoveto
            -13 14 -139 -108 -139 108 -13 -14 152 -162 rlineto
            endchar
          </CharString>
          <CharString index="45">
            756 336 rmoveto
            191 -143 156 -178 vhcurveto
            -378 -41 callsubr
            378 hlineto
            176 145 148 188 hvcurveto
            -100 hmoveto
            -101 -18 -72 -47 -54 vhcurveto
            -46 -41 -64 -32 -78 hhcurveto
            -113 hlineto
            -47 -2 7 33 hvcurveto
            541 vlineto
            33 2 7 47 vhcurveto
            113 hlineto
            56 78 -17 -77 58 hvcurveto
            45 -59 11 -87 -76 vvcurveto
            return
          </CharString>
          <CharString index="46">
            929 -2 callgsubr
            31 -169 hlineto
            -23 -3 0 -19 -8 hvcurveto
            -232 -569 -232 570 rlineto
            18 -7 -6 0 -21 hhcurveto
            -169 126 callsubr
            -500 vlineto
            -27 0 -47 -103 vhcurveto
            -31 vlineto
            117 3 117 -3 rlineto
            31 vlineto
            -103 0 47 27 hvcurveto
            541 vlineto
            1 1 256 -629 rlineto
            -9 4 5 -9 10 hhcurveto
            10 5 9 9 4 hvcurveto
            259 636 1 -1 rlineto
            -575 106 callgsubr
            37 68 0 39 hhcurveto
            39 67 0 -3 37 hvcurveto
            return
          </CharString>
          <CharString index="47">
            54 32 -20 -16 17 hvcurveto
            38 -37 0 -25 -70 vvcurveto
            -69 0 -36 43 -39 vhcurveto
            -32 37 56 -9 35 hhcurveto
            80 19 82 28 hvcurveto
            -231 415 rmoveto
            return
          </CharString>
          <CharString index="48">
            rmoveto
            -256 hlineto
            -41 -4 0 3 -36 hvcurveto
            -52 4 -1 10 -3 15 rrcurveto
            -25 hlineto
            -33 -206 rlineto
            25 hlineto
            3 17 10 67 14 8 rrcurveto
            5 11 75 0 15 hhcurveto
            221 hlineto
            -102 -138 rlineto
            -143 -193 0 -173 -30 vvcurveto
            -10 0 -45 46 46 0 45 10 vhcurveto
            49 vlineto
            140 22 122 57 76 vhcurveto
            142 189 rlineto
            9 11 0 2 22 vvcurveto
            endchar
          </CharString>
          <CharString index="49">
            -23 0 -24 -40 -23 vhcurveto
            -13 -22 -34 -7 -29 hhcurveto
            -61 -144 33 213 219 151 27 49 73 84 17 callsubr
            return
          </CharString>
          <CharString index="50">
            931 258 rmoveto
            -25 hlineto
            -150 -25 -16 -77 -172 hhcurveto
            -111 hlineto
            -47 -2 7 33 hvcurveto
            242 94 vlineto
            97 11 -32 -85 hvcurveto
            25 265 -25 hlineto
            -84 -11 -33 -97 vhcurveto
            -94 268 hlineto
            33 2 7 47 vhcurveto
            112 hlineto
            146 21 -60 -134 126 callgsubr
            -585 -31 47 hlineto
            12 14 0 -1 12 hvcurveto
            -211 -553 rlineto
            -59 -22 -52 -8 -41 hhcurveto
            -31 vlineto
            102 3 115 -3 rlineto
            31 vlineto
            -51 1 -22 24 25 vvcurveto
            6 1 2 4 11 vhcurveto
            81 213 rlineto
            172 -237 hlineto
            return
          </CharString>
          <CharString index="51">
            771 339 rmoveto
            139 -74 100 -56 45 vhcurveto
            74 102 -21 14 -72 -100 rlineto
            19 -27 -70 47 -103 hhcurveto
            -193 -157 -163 -203 -164 98 -88 31 -28 hvcurveto
            -73 -101 21 -14 71 99 rlineto
            -41 59 71 -24 71 hhcurveto
            193 157 161 200 hvcurveto
            -173 268 rmoveto
            -370 -511 rlineto
            -21 27 -46 61 155 vvcurveto
            322 209 22 51 54 63 -17 -59 60 vhcurveto
            84 -268 rmoveto
            -313 -203 -26 -57 -68 -65 28 48 -44 vhcurveto
            369 511 rlineto
            61 -75 7 -106 -67 vvcurveto
            return
          </CharString>
          <CharString index="52">
            -75 callsubr
            endchar
          </CharString>
          <CharString index="53">
            843 23 callgsubr
            31 -28 28 621 42 callgsubr
            311 212 -190 89 hintmask 0001100100000000
            785 hmoveto
            31 vlineto
            -46 -29 0 51 -36 hvcurveto
            -240 337 189 172 37 34 50 26 60 1 rlinecurve
            hintmask 0000010100000000
            31 vlineto
            hintmask 0000100000000000
            -3 -26 -32 0 -27 hhcurveto
            hintmask 0000010100000000
            -36 -57 0 3 -34 hvcurveto
            -31 vlineto
            38 -1 5 -22 -9 vvcurveto
            hintmask 0000101010000000
            -9 -5 -11 -16 -15 vhcurveto
            -333 -300 rlineto
            320 79 callsubr
            hintmask 0000010000000000
            31 vlineto
            hintmask 0000100000000000
            -3 -35 -74 0 -38 hhcurveto
            hintmask 0001011000000000
            -38 -75 -34 callgsubr
            hlineto
            hintmask 0010000000000000
            -31 vlineto
            hintmask 0001000000000000
            16 callsubr
            hintmask 0010001000000000
            72 callgsubr
            -40 callgsubr
            173 vlineto
            126 114 194 -271 rlineto
            6 -8 10 -15 -11 vvcurveto
            -29 -38 0 -19 vhcurveto
            -31 vlineto
            hintmask 0001000010000000
            3 35 70 0 38 hhcurveto
            return
          </CharString>
          <CharString index="54">
            vlineto
            36 2 11 77 vhcurveto
            24 return
          </CharString>
          <CharString index="55">
            60 19 0 -39 13 hvcurveto
            211 -616 rlineto
            -11 4 2 -8 14 hhcurveto
            13 3 9 11 4 hvcurveto
            176 515 177 -515 rlineto
            -11 4 3 -9 13 hhcurveto
            13 2 6 14 5 hvcurveto
            201 584 9 26 17 43 76 1 rlinecurve
            return
          </CharString>
          <CharString index="56">
            -39 -78 -34 callgsubr
            -31 541 hlineto
            return
          </CharString>
          <CharString index="57">
            1092 -22 22 0 31 308 31 282 31 0 22 hstemhm
            86 100 367 76 237 25 0 100 3 25 4 25 hintmask 0111001101100000
            1048 258 rmoveto
            -25 hlineto
            -153 -25 -20 -74 -172 hhcurveto
            -128 hlineto
            -47 -2 7 33 hvcurveto
            268 117 vlineto
            101 19 -27 -90 hvcurveto
            25 265 -25 hlineto
            -90 -18 -27 -102 vhcurveto
            -117 242 hlineto
            33 2 7 47 vhcurveto
            126 hlineto
            149 25 -56 -138 16 hvcurveto
            25 hlineto
            hintmask 1010111010100000
            60 callsubr
            -396 hlineto
            -11 -21 0 9 -43 hvcurveto
            8 -35 -23 5 -28 hhcurveto
            -186 -162 -159 -207 -207 166 -154 181 10 20 0 8 39 hvcurveto
            12 52 16 2 25 hhcurveto
            411 hlineto
            -453 342 rmoveto
            -101 0 -90 -4 -36 vhcurveto
            -64 -7 -9 -51 -95 hhcurveto
            -139 -113 157 197 191 117 138 134 91 13 -44 -63 7 hvcurveto
            5 -43 0 -85 -106 vvcurveto
            endchar
          </CharString>
          <CharString index="58">
            126 callsubr
            -527 -81 callsubr
            return
          </CharString>
          <CharString index="59">
            -72 0 53 23 hvcurveto
            358 vlineto
            10 -12 314 -436 rlineto
            -11 8 3 0 6 hhcurveto
            14 0 7 19 hvcurveto
            387 vlineto
            return
          </CharString>
          <CharString index="60">
            595 182 rmoveto
            25 vlineto
            -2 -33 151 callgsubr
            -36 -58 -34 callsubr
            -25 20 vlineto
            76 4 -11 -40 hvcurveto
            -30 vlineto
            return
          </CharString>
          <CharString index="61">
            -53 callsubr
            31 return
          </CharString>
          <CharString index="62">
            -25 hlineto
            -50 callgsubr
            return
          </CharString>
          <CharString index="63">
            48 callsubr
            -23 vlineto
            -77 -3 10 39 hvcurveto
            193 vlineto
            208 315 32 49 45 14 53 1 rlinecurve
            return
          </CharString>
          <CharString index="64">
            814 0 110 callsubr
            319 89 hintmask 01010010
            -14 callsubr
            hintmask 00001000
            31 vlineto
            hintmask 00010000
            -3 -35 -74 0 -38 hhcurveto
            hintmask 00101110
            -38 -75 -84 callsubr
            -234 -319 234 -46 callsubr
            hlineto
            hintmask 00010000
            -3 -35 -74 0 -38 hhcurveto
            hintmask 01001100
            -38 -75 -34 callgsubr
            hlineto
            hintmask 10000000
            -31 vlineto
            66 callsubr
            hintmask 10100110
            -47 callgsubr
            66 callsubr
            hintmask 10000000
            72 callgsubr
            endchar
          </CharString>
          <CharString index="65">
            rmoveto
            -86 callsubr
            return
          </CharString>
          <CharString index="66">
            -49 callsubr
            -31 return
          </CharString>
          <CharString index="67">
            7 rmoveto
            117 -84 102 -115 -75 -44 -37 -16 -16 vhcurveto
            198 vlineto
            -14 46 34 0 13 hhcurveto
            125 75 90 14 6 -3 5 -7 hvcurveto
            0 -3 0 -10 -5 vhcurveto
            hintmask 0000001110001000
            -22 -54 -49 -5 -36 hhcurveto
            -48 -47 9 18 -45 hvcurveto
            -9 5 -3 0 0 vvcurveto
            hintmask 0000100001000000
            -10 0 -8 -16 hvcurveto
            -297 vlineto
            hintmask 0000000000100000
            -18 0 -8 13 vhcurveto
            hintmask 0100010001001100
            8 1 2 11 9 hvcurveto
            56 41 56 10 36 hhcurveto
            43 28 -27 -27 16 hvcurveto
            23 -41 2 -52 -44 vvcurveto
            -35 0 -60 -29 -45 vhcurveto
            hintmask 1001000000010000
            -42 -29 -42 -19 -41 hhcurveto
            -75 -62 49 63 -21 hvcurveto
            hintmask 0010000000000000
            -1 3 3 -1 11 hhcurveto
            hintmask 0100000000100000
            33 17 25 24 hvcurveto
            hintmask 1010000010000000
            24 -17 25 -33 -19 -30 -11 -41 -91 77 -93 115 vhcurveto
            hintmask 0001000000000100
            123 105 98 125 hvcurveto
            endchar
          </CharString>
          <CharString index="68">
            -111 -37 callgsubr
            411 vlineto
            return
          </CharString>
          <CharString index="69">
            236 -35 callsubr
            return
          </CharString>
          <CharString index="70">
            201 rmoveto
            117 -84 102 -115 -75 -44 -37 -16 -16 vhcurveto
            198 vlineto
            -14 46 34 0 13 hhcurveto
            125 75 90 14 6 -3 5 -7 hvcurveto
            0 -3 0 -10 -5 vhcurveto
            -22 -54 -49 -5 -36 hhcurveto
            -48 -47 9 18 -45 hvcurveto
            -9 5 -3 0 0 vvcurveto
            -10 0 -8 -16 hvcurveto
            -297 vlineto
            -18 0 -8 13 8 1 2 11 9 vhcurveto
            56 41 56 10 36 hhcurveto
            43 28 -27 -27 16 hvcurveto
            23 -41 2 -52 -44 vvcurveto
            -35 0 -60 -29 -45 vhcurveto
            -42 -29 -42 -19 -41 hhcurveto
            hintmask 0001000000000000
            -75 -62 49 63 -21 hvcurveto
            hintmask 0010000000000000
            -1 3 3 -1 11 hhcurveto
            hintmask 0100000000000000
            33 17 25 24 hvcurveto
            hintmask 1010000010000000
            24 -17 25 -33 -19 -30 -11 -41 -91 77 -93 115 vhcurveto
            hintmask 0001000000100000
            123 105 98 125 hvcurveto
            endchar
          </CharString>
          <CharString index="71">
            786 0 65 97 65 456 22 hstem
            72 103 114 103 1 103 114 103 vstem
            724 162 rmoveto
            -25 hlineto
            -5 -25 -5 -27 -8 -21 rrcurveto
            -16 -5 -3 -8 -61 hhcurveto
            -87 hlineto
            12 44 22 42 46 64 rrcurveto
            59 82 49 70 88 vvcurveto
            134 -138 116 -182 -185 -136 -117 -133 -85 46 -67 54 -76 vhcurveto
            39 -56 34 -48 15 -58 rrcurveto
            -87 hlineto
            -59 -4 8 11 -5 hvcurveto
            -8 19 -6 35 -5 24 rrcurveto
            -25 hlineto
            33 -162 rlineto
            170 hlineto
            22 3 0 20 70 -31 79 -27 69 hvcurveto
            -27 67 -29 75 75 vvcurveto
            155 115 73 102 107 111 -76 -152 -75 -28 -72 -31 -77 vhcurveto
            -24 -62 -31 -79 -70 vvcurveto
            -20 4 0 22 vhcurveto
            169 hlineto
            endchar
          </CharString>
          <CharString index="72">
            601 rmoveto
            -99 callsubr
            176 hmoveto
            -99 callsubr
            return
          </CharString>
          <CharString index="73">
            0 3 -35 hvcurveto
            return
          </CharString>
          <CharString index="74">
            72 0 -53 -23 hvcurveto
            -297 vlineto
            -277 385 rlineto
            13 -9 -2 0 -19 hhcurveto
            -120 -25 hlineto
            return
          </CharString>
          <CharString index="75">
            3 -1 2 -2 2 vhcurveto
            -67 63 -52 78 -31 87 rrcurveto
            4 -2 -3 2 -5 hhcurveto
            -2 hlineto
            -5 -5 -4 -6 -1 0 0 1 -1 hvcurveto
            20 -82 35 -77 47 -70 -47 -70 -35 -78 -20 -82 rrcurveto
            -1 0 -1 -1 -6 5 -4 5 hvcurveto
            2 hlineto
            5 3 3 4 2 hvcurveto
            31 86 52 78 67 63 rrcurveto
            2 2 1 3 3 vvcurveto
            return
          </CharString>
          <CharString index="76">
            -109 -57 -71 -54 -19 -75 10 169 170 75 10 19 55 56 -73 -106 vhcurveto
            return
          </CharString>
          <CharString index="77">
            3 rlineto
            -25 vlineto
            return
          </CharString>
          <CharString index="78">
            636 23 callgsubr
            25 392 25 47 72 callsubr
            0 72 0 72 97 156 -146 72 hintmask 0011101011000000
            10 callsubr
            rlineto
            hintmask 0011110010000000
            61 callsubr
            return
          </CharString>
          <CharString index="79">
            624 258 rmoveto
            -25 hlineto
            -100 -11 -14 -127 -184 hhcurveto
            -94 hlineto
            return
          </CharString>
          <CharString index="80">
            613 23 callgsubr
            49 callgsubr
            hstemhm
            43 100 -28 100 183 100 -28 100 hintmask 00010001
            570 489 rmoveto
            25 vlineto
            -86 -3 rlineto
            hintmask 00010010
            -15 -46 1 2 -25 hvcurveto
            -25 vlineto
            hintmask 00011001
            -24 callgsubr
            hintmask 00101000
            12 callgsubr
            hintmask 00100100
            27 callgsubr
            hintmask 00101010
            -48 callsubr
            return
          </CharString>
          <CharString index="81">
            vlineto
            -77 -2 11 36 hvcurveto
            return
          </CharString>
          <CharString index="82">
            -20 -17 callgsubr
            hintmask 1111001111000000
            -105 callgsubr
            hintmask 0000110000000000
            -135 90 callgsubr
            return
          </CharString>
          <CharString index="83">
            771 0 31 313 22 286 31 hstem
            161 83 328 97 vstem
            698 183 rmoveto
            84 -81 77 -123 13 vhcurveto
            97 18 78 62 77 vvcurveto
            89 -99 80 -134 vhcurveto
            -378 -41 callsubr
            406 hlineto
            138 96 89 94 hvcurveto
            -126 331 rmoveto
            -70 -59 -78 -113 vhcurveto
            -156 246 hlineto
            33 2 7 47 vhcurveto
            136 hlineto
            102 41 -82 -56 hvcurveto
            26 -330 rmoveto
            -74 -60 -79 -107 vhcurveto
            -138 hlineto
            -47 -2 7 33 hvcurveto
            273 201 vlineto
            103 50 -89 -71 hvcurveto
            endchar
          </CharString>
          <CharString index="84">
            hstemhm
            158 89 return
          </CharString>
          <CharString index="85">
            829 0 31 47 31 218 30 295 53 callsubr
            -248 -103 -30 103 -249 67 callgsubr
            378 hlineto
            176 145 148 188 hvcurveto
            -100 hmoveto
            -101 -18 -72 -47 -54 vhcurveto
            -46 -41 -64 -32 -78 hhcurveto
            -113 hlineto
            -47 -2 7 33 hvcurveto
            256 169 30 -169 255 78 callsubr
          </CharString>
          <CharString index="86">
            86 -46 72 hintmask 01000001
            -47 callsubr
            return
          </CharString>
          <CharString index="87">
            -23 rmoveto
            81 -65 79 -110 21 vhcurveto
            110 38 36 79 59 vvcurveto
            81 -91 57 -101 vhcurveto
            hintmask 0011010100100000
            -103 -83 -56 -80 -33 22 -19 29 31 20 22 29 50 -47 0 -14 hvcurveto
            45 28 67 17 46 hhcurveto
            49 55 -27 -85 -10 0 -67 -42 -51 hvcurveto
            -30 -35 -25 -2 -63 -4 rrcurveto
            -18 -1 -6 0 -11 vvcurveto
            -11 7 0 17 vhcurveto
            50 hlineto
            hintmask 1100001001010000
            82 46 -62 -104 -130 -70 -35 -53 -28 -94 8 68 -41 hvcurveto
            37 -5 28 25 35 vvcurveto
            36 -27 20 -29 -24 -32 -14 -44 -93 99 -64 114 131 92 93 100 vhcurveto
            endchar
          </CharString>
          <CharString index="88">
            -383 6 callgsubr
            return
          </CharString>
          <CharString index="89">
            -27 callgsubr
            108 -3 rlineto
            25 vlineto
            return
          </CharString>
          <CharString index="90">
            558 0 10 callgsubr
            return
          </CharString>
          <CharString index="91">
            613 169 25 337 -20 return
          </CharString>
          <CharString index="92">
            -80 -74 -85 -116 -120 76 -82 78 78 60 90 111 return
          </CharString>
          <CharString index="93">
            758 -2 callgsubr
            hlineto
            return
          </CharString>
          <CharString index="94">
            -135 140 callgsubr
            -16 0 -8 10 6 1 1 22 15 vhcurveto
            return
          </CharString>
          <CharString index="95">
            536 0 25 218 25 218 72 callsubr
            152 25 107 25 cntrmask 11100000
            hintmask 11110000
            496 342 rmoveto
            -19 169 rlineto
            -434 -45 callsubr
            -367 -35 callgsubr
            111 3 123 -3 rlineto
            25 vlineto
            hintmask 11101110
            -75 -15 0 50 hvcurveto
            168 67 vlineto
            74 11 -21 -66 hvcurveto
            25 199 -25 hlineto
            -66 -11 -21 -74 vhcurveto
            -67 175 hlineto
            40 5 3 35 vhcurveto
            95 hlineto
            110 29 -32 -112 10 hvcurveto
            endchar
          </CharString>
          <CharString index="96">
            30 callgsubr
            200 31 return
          </CharString>
          <CharString index="97">
            320 rmoveto
            98 -9 74 -37 70 vhcurveto
            73 -38 -70 31 -65 hhcurveto
            -68 -70 -34 -72 -37 hvcurveto
            -29 -58 -15 -61 -121 vvcurveto
            -69 3 -94 42 -77 vhcurveto
            -95 53 89 -7 32 hhcurveto
            50 79 18 88 47 hvcurveto
            39 75 4 89 72 vvcurveto
            -83 11 rmoveto
            -64 0 -83 -12 -59 vhcurveto
            -118 -23 -78 -7 -23 hhcurveto
            -39 -63 22 96 -21 hvcurveto
            -13 61 0 89 63 vvcurveto
            71 0 67 11 57 vhcurveto
            100 20 70 18 35 hhcurveto
            29 70 -13 -95 23 hvcurveto
            14 -53 0 -81 -71 vvcurveto
            endchar
          </CharString>
          <CharString index="98">
            138 rmoveto
            -16 hlineto
            -20 5 -56 -4 -22 hvcurveto
            hintmask 10111000
            -6 -24 -35 1 -26 hhcurveto
            -162 hlineto
            177 99 rlineto
            64 35 59 48 77 vvcurveto
            111 -128 29 -91 -67 -108 -32 -91 -27 18 -15 22 24 15 19 20 23 -16 13 -21 4 vhcurveto
            39 28 46 16 47 hhcurveto
            65 74 -35 -73 -75 -75 -64 -53 -37 hvcurveto
            hintmask 01000000
            -158 -110 rlineto
            -13 -10 -15 -5 -18 vvcurveto
            hintmask 10001000
            -5 1 -5 -4 vvcurveto
            368 hlineto
            7 3 6 7 2 hvcurveto
            endchar
          </CharString>
          <CharString index="99">
            -48 callsubr
            hintmask 01000001
            23 0 53 72 vhcurveto
            return
          </CharString>
          <CharString index="100">
            225 rmoveto
            67 -11 68 -44 50 vhcurveto
            45 -41 -62 17 -61 hhcurveto
            -61 -62 -17 -45 -41 hvcurveto
            -44 -50 -11 -68 -67 vvcurveto
            -67 11 -68 44 -50 vhcurveto
            -45 41 62 -17 61 hhcurveto
            61 62 17 45 41 hvcurveto
            44 50 11 68 67 vvcurveto
            -83 hmoveto
            -58 -4 -60 -30 -50 vhcurveto
            -36 -22 -38 -21 -42 hhcurveto
            -42 -38 21 36 -22 hvcurveto
            -30 50 -4 60 58 vvcurveto
            58 4 60 30 50 vhcurveto
            36 22 38 21 42 hhcurveto
            42 38 -21 -36 22 hvcurveto
            30 -50 4 -60 -58 vvcurveto
            endchar
          </CharString>
          <CharString index="101">
            30 callsubr
            -75 585 -5 callsubr
            return
          </CharString>
          <CharString index="102">
            rmoveto
            11 -9 9 -11 -10 -4 -6 -9 -7 vhcurveto
            -54 -42 -64 -41 -93 hhcurveto
            -52 -75 13 66 -75 hvcurveto
            14 -15 -24 17 -35 hhcurveto
            -15 callsubr
            25 -3 44 -20 45 hvcurveto
            return
          </CharString>
          <CharString index="103">
            -20 hstemhm
            62 112 161 86 hintmask 01010001
            498 14 callsubr
            40 callsubr
            vhcurveto
            hintmask 00100010
            140 callsubr
            hvcurveto
            52 12 30 26 36 -28 20 -28 hvcurveto
            hintmask 01000010
            -22 -34 -14 -44 hvcurveto
            hintmask 10010001
            1 callgsubr
            hintmask 00001100
            return
          </CharString>
          <CharString index="104">
            vlineto
            43 48 -4 -37 -41 -113 0 -87 hvcurveto
            -13 -26 26 hlineto
            120 151 0 67 return
          </CharString>
          <CharString index="105">
            1 9 31 0 20 hhcurveto
            87 132 0 -149 hvcurveto
            return
          </CharString>
          <CharString index="106">
            -69 callsubr
            endchar
          </CharString>
          <CharString index="107">
            -5 8 66 -39 87 hhcurveto
            20 57 0 35 62 hvcurveto
            1 -1 -472 -667 rlineto
            -10 -14 0 -4 -3 vvcurveto
            -11 10 -9 10 4 7 0 14 10 vhcurveto
            532 754 rlineto
            9 11 0 2 5 vvcurveto
            return
          </CharString>
          <CharString index="108">
            25 -1 25 110 25 152 22 13 25 97 25 2 22 return
          </CharString>
          <CharString index="109">
            -52 vvcurveto
            -46 47 -44 64 50 52 39 57 16 vhcurveto
            3 12 -15 5 -5 -10 rrcurveto
            -36 -17 -28 -20 -32 hhcurveto
            -36 -51 23 46 40 return
          </CharString>
          <CharString index="110">
            220 531 rmoveto
            -99 callsubr
            208 hmoveto
            -99 callsubr
            return
          </CharString>
          <CharString index="111">
            573 253 rmoveto
            138 -103 123 -144 vhcurveto
            -281 -45 callsubr
            return
          </CharString>
          <CharString index="112">
            195 rmoveto
            -99 callsubr
            176 hmoveto
            -99 callsubr
            return
          </CharString>
          <CharString index="113">
            698 258 rmoveto
            -25 hlineto
            -153 -25 -24 -74 -177 hhcurveto
            -151 hlineto
            -47 -2 7 33 hvcurveto
            267 98 vlineto
            99 14 -30 -87 hvcurveto
            25 265 -25 hlineto
            -87 -14 -30 -99 vhcurveto
            -98 240 hlineto
            33 2 7 47 vhcurveto
            143 hlineto
            157 32 -51 -143 16 hvcurveto
            25 hlineto
            hintmask 0000001000000000
            60 callsubr
            -586 -31 24 hlineto
            return
          </CharString>
          <CharString index="114">
            34 callsubr
            142 72 25 72 return
          </CharString>
          <CharString index="115">
            25 137 25 316 25 return
          </CharString>
          <CharString index="116">
            25 vlineto
            -71 -5 5 43 hvcurveto
            return
          </CharString>
          <CharString index="117">
            595 hmoveto
            25 vlineto
            -33 -21 3 51 -37 hvcurveto
            -173 234 189 172 21 1 43 3 rlinecurve
            25 vlineto
            -2 -23 -15 -1 -25 hhcurveto
            -27 -52 2 1 -14 hvcurveto
            -25 vlineto
            11 -2 6 -6 -11 vvcurveto
            -18 -17 -21 -16 -14 vhcurveto
            -225 -197 rlineto
            222 vlineto
            41 5 6 67 77 callgsubr
            return
          </CharString>
          <CharString index="118">
            683 23 callgsubr
            31 621 42 callgsubr
            -40 89 hintmask 00100010
            -28 callsubr
            hintmask 00010100
            2 callgsubr
            hintmask 00001000
            31 vlineto
            hintmask 00010010
            62 callgsubr
            return
          </CharString>
          <CharString index="119">
            844 -22 26 676 return
          </CharString>
          <CharString index="120">
            hmoveto
            31 -35 vlineto
            -96 0 14 34 hvcurveto
            561 vlineto
            24 0 2 -23 vhcurveto
            -49 -49 -65 -15 -74 hhcurveto
            -31 vlineto
            25 56 0 27 56 hvcurveto
            -519 vlineto
            -34 0 -14 -96 vhcurveto
            -35 hlineto
            hintmask 10000000
            -31 vlineto
            hintmask 01000000
            3 36 91 0 41 hhcurveto
            hintmask 10000000
            41 91 104 callgsubr
            endchar
          </CharString>
          <CharString index="121">
            652 rmoveto
            31 vlineto
            -129 -3 rlineto
            -42 -88 0 3 -38 hvcurveto
            -31 36 vlineto
            return
          </CharString>
          <CharString index="122">
            -13 -23 -26 -16 -29 -4 rrcurveto
            42 vlineto
            -2 -4 -5 -1 -4 hhcurveto
            return
          </CharString>
          <CharString index="123">
            3 35 74 0 38 hhcurveto
            return
          </CharString>
          <CharString index="124">
            -52 -127 19 hvcurveto
            76 callgsubr
            return
          </CharString>
          <CharString index="125">
            hmoveto
            137 callsubr
            return
          </CharString>
          <CharString index="126">
            25 161 25 4 25 return
          </CharString>
          <CharString index="127">
            -45 -11 0 -66 vhcurveto
            -31 516 vlineto
            -439 344 rmoveto
            -160 hlineto
            116 305 rlineto
            44 -1 0 -28 -16 vvcurveto
            return
          </CharString>
          <CharString index="128">
            494 -200 26 82 26 hstem
            221 52 39 84 vstem
            396 -133 rmoveto
            51 -63 16 -60 vhcurveto
            71 -52 -97 -3 callsubr
            hvcurveto
            endchar
          </CharString>
          <CharString index="129">
            406 63 callsubr
            return
          </CharString>
          <CharString index="130">
            589 -42 callsubr
            return
          </CharString>
          <CharString index="131">
            0 49 callgsubr
            return
          </CharString>
          <CharString index="132">
            32 callsubr
            -453 403 rmoveto
            return
          </CharString>
          <CharString index="133">
            -1 -42 callsubr
            return
          </CharString>
          <CharString index="134">
            -14 2 1 -3 13 hhcurveto
            return
          </CharString>
          <CharString index="135">
            30 callgsubr
            -28 28 309 31 281 28 -28 31 return
          </CharString>
          <CharString index="136">
            4 5 4 4 4 4 rrcurveto
            193 1 156 160 200 vvcurveto
            -103 15 rmoveto
            -261 -144 -89 -102 -108 -139 94 256 244 145 82 101 105 142 -85 -241 vhcurveto
            return
          </CharString>
          <CharString index="137">
            114 -61 88 -77 -15 callsubr
            vhcurveto
            -342 hmoveto
            114 -61 88 -77 -15 callsubr
            vhcurveto
            return
          </CharString>
          <CharString index="138">
            24 28 0 -7 20 hvcurveto
            -381 vlineto
            return
          </CharString>
          <CharString index="139">
            -31 callsubr
            -342 hmoveto
            -31 callsubr
            return
          </CharString>
          <CharString index="140">
            814 -22 30 602 27 -20 30 6 27 -27 30 return
          </CharString>
          <CharString index="141">
            hstemhm
            43 72 72 72 return
          </CharString>
          <CharString index="142">
            6 callgsubr
            endchar
          </CharString>
          <CharString index="143">
            489 rmoveto
            25 vlineto
            -2 return
          </CharString>
          <CharString index="144">
            -13 0 -7 -18 hvcurveto
            return
          </CharString>
          <CharString index="145">
            378 187 58 hstem
            26 279 vstem
            305 187 rmoveto
            58 -279 -58 vlineto
            endchar
          </CharString>
          <CharString index="146">
            90 -64 92 0 92 -90 90 134 92 -90 90 hintmask 1111100101000000
            return
          </CharString>
          <CharString index="147">
            98 0 -13 -35 hvcurveto
            -455 vlineto
            -96 -54 -53 -55 return
          </CharString>
          <CharString index="148">
            -14 0 -19 20 20 0 19 14 vhcurveto
            return
          </CharString>
          <CharString index="149">
            hhcurveto
            -10 callgsubr
            return
          </CharString>
          <CharString index="150">
            641 -14 25 171 25 296 25 return
          </CharString>
          <CharString index="151">
            13 callgsubr
            114 vlineto
            96 85 133 -179 rlineto
            10 -13 12 -19 -14 vvcurveto
            -19 -24 -2 -8 vhcurveto
            -25 vlineto
            104 3 rlineto
            27 31 -1 -2 27 hvcurveto
            return
          </CharString>
          <CharString index="152">
            31 -23 callsubr
            return
          </CharString>
          <CharString index="153">
            -20 49 callsubr
            return
          </CharString>
          <CharString index="154">
            836 10 -21 386 25 15 25 49 25 return
          </CharString>
          <CharString index="155">
            39 71 64 callgsubr
            return
          </CharString>
          <CharString index="156">
            hstem
            432 687 -97 callsubr
            return
          </CharString>
          <CharString index="157">
            -101 callsubr
            endchar
          </CharString>
          <CharString index="158">
            hstemhm
            57 103 0 86 0 86 -86 103 -2 106 -86 103 -99 103 77 103 0 103 -74 86 hintmask 0000000000000010
            782 88 rmoveto
            6 0 11 -13 vhcurveto
            return
          </CharString>
          <CharString index="159">
            vvcurveto
            76 54 67 73 51 53 -10 -28 27 vhcurveto
            -2 hlineto
            -25 -21 -21 -25 -26 21 -20 25 26 20 20 26 76 -88 34 -87 -104 -93 -70 -99 return
          </CharString>
          <CharString index="160">
            31 hstem
            160 86 410 100 vstem
            756 336 rmoveto
            191 -143 156 -178 vhcurveto
            -378 126 callsubr
            return
          </CharString>
          <CharString index="161">
            2 10 -14 4 -4 -8 rrcurveto
            -32 -14 -24 -18 -29 hhcurveto
            -30 -44 21 40 17 return
          </CharString>
          <CharString index="162">
            458 -14 1 callsubr
            return
          </CharString>
          <CharString index="163">
            5 5 10 15 4 6 return
          </CharString>
          <CharString index="164">
            vhcurveto
            -56 vlineto
            -34 0 -14 -95 vhcurveto
            -33 -31 hlineto
            3 36 92 0 41 hhcurveto
            41 93 40 callgsubr
            return
          </CharString>
          <CharString index="165">
            77 callgsubr
            rlineto
            return
          </CharString>
          <CharString index="166">
            31 471 31 166 28 return
          </CharString>
          <CharString index="167">
            -28 225 rlineto
            return
          </CharString>
          <CharString index="168">
            -108 -37 callgsubr
            vlineto
            108 3 108 -3 rlineto
            25 vlineto
            return
          </CharString>
          <CharString index="169">
            139 callgsubr
            31 hlineto
            -3 -36 -92 0 -41 hhcurveto
            -41 -93 0 3 -36 hvcurveto
            -31 33 vlineto
            95 0 -13 -35 hvcurveto
            return
          </CharString>
          <CharString index="170">
            3 89 callsubr
            return
          </CharString>
          <CharString index="171">
            1 2 -27 hvcurveto
            return
          </CharString>
          <CharString index="172">
            -88 callsubr
            151 -519 rmoveto
            34 -23 14 -23 -28 -18 -20 -26 -22 16 -27 38 4 vhcurveto
            return
          </CharString>
          <CharString index="173">
            hintmask 01000000
            16 callsubr
            return
          </CharString>
          <CharString index="174">
            -200 106 94 return
          </CharString>
          <CharString index="175">
            -56 22 359 22 0 22 249 22 0 22 66 22 hstemhm
            return
          </CharString>
          <CharString index="176">
            -229 -21 1000 -20 hstem
            return
          </CharString>
          <CharString index="177">
            786 -22 31 665 31 return
          </CharString>
          <CharString index="178">
            -19 0 -20 -20 19 0 return
          </CharString>
          <CharString index="179">
            25 60 callgsubr
            return
          </CharString>
          <CharString index="180">
            hlineto
            -83 -289 rlineto
            -1 -5 -3 -9 -4 129 callgsubr
            14 3 9 14 4 vhcurveto
            87 304 rlineto
            return
          </CharString>
          <CharString index="181">
            -101 hlineto
            -14 -2 0 -11 -5 hvcurveto
            -139 -342 -139 342 rlineto
            11 -4 -4 0 -12 hhcurveto
            -102 return
          </CharString>
          <CharString index="182">
            106 102 -82 -155 23 return
          </CharString>
          <CharString index="183">
            158 28 441 28 return
          </CharString>
          <CharString index="184">
            vstem
            602 276 rmoveto
            98 -82 82 -98 -98 -82 -82 -98 -98 82 -82 98 98 82 82 98 vhcurveto
            return
          </CharString>
          <CharString index="185">
            vlineto
            33 2 7 47 vhcurveto
            113 hlineto
            56 78 -17 -77 58 hvcurveto
            45 -59 11 -87 -76 vvcurveto
            endchar
          </CharString>
          <CharString index="186">
            -53 callsubr
            hlineto
            return
          </CharString>
          <CharString index="187">
            30 callgsubr
            621 31 return
          </CharString>
          <CharString index="188">
            25 230 25 209 25 return
          </CharString>
          <CharString index="189">
            rmoveto
            114 -61 88 -77 -15 callsubr
            vhcurveto
            return
          </CharString>
          <CharString index="190">
            90 callgsubr
            endchar
          </CharString>
          <CharString index="191">
            378 187 58 hstem
            49 279 vstem
            328 187 rmoveto
            58 -279 -58 vlineto
            endchar
          </CharString>
          <CharString index="192">
            25 callgsubr
            149 -119 124 -148 -149 -118 -124 -149 return
          </CharString>
          <CharString index="193">
            -8 -7 -7 -8 -9 7 -6 8 hvcurveto
            return
          </CharString>
          <CharString index="194">
            8 7 6 9 8 -7 7 -8 hvcurveto
            return
          </CharString>
          <CharString index="195">
            vhcurveto
            -25 vlineto
            86 3 return
          </CharString>
          <CharString index="196">
            28 621 28 return
          </CharString>
          <CharString index="197">
            553 -173 -21 888 -20 hstem
            64 -21 212 40 213 -20 vstem
            508 return
          </CharString>
          <CharString index="198">
            745 171 rmoveto
            -26 hlineto
            -81 -52 -73 -77 -76 -56 52 49 -58 vhcurveto
            3 vlineto
            return
          </CharString>
          <CharString index="199">
            113 callsubr
            524 -46 callsubr
            return
          </CharString>
          <CharString index="200">
            613 -200 106 263 25 337 -20 return
          </CharString>
          <CharString index="201">
            534 -21 176 -20 hstem
            return
          </CharString>
          <CharString index="202">
            669 0 34 618 31 return
          </CharString>
          <CharString index="203">
            -21 187 -20 hstem
            return
          </CharString>
          <CharString index="204">
            31 643 31 return
          </CharString>
          <CharString index="205">
            rmoveto
            13 -6 21 -31 -21 -29 -8 -6 -21 vhcurveto
            -3 -1 -25 -7 -20 -2 1 return
          </CharString>
          <CharString index="206">
            -21 -12 -18 -17 -14 -19 rrcurveto
            -13 -18 -8 -20 -22 vvcurveto
            -40 40 -39 56 vhcurveto
            return
          </CharString>
          <CharString index="207">
            2 10 -14 4 -4 -8 rrcurveto
            -32 -14 -24 -18 -29 hhcurveto
            -30 -44 21 40 34 return
          </CharString>
          <CharString index="208">
            -119 3 rlineto
            -31 vlineto
            return
          </CharString>
          <CharString index="209">
            99 141 callsubr
            return
          </CharString>
          <CharString index="210">
            -21 189 -20 return
          </CharString>
          <CharString index="211">
            26 491 25 return
          </CharString>
          <CharString index="212">
            975 0 31 282 31 308 31 return
          </CharString>
          <CharString index="213">
            22 182 22 vstem
            return
          </CharString>
          <CharString index="214">
            -45 callsubr
            -370 -73 callsubr
            return
          </CharString>
          <CharString index="215">
            hlineto
            -5 -4 -3 -4 -1 hvcurveto
            -3 -10 rlineto
            -7 -2 5 -6 6 hhcurveto
            return
          </CharString>
          <CharString index="216">
            130 callsubr
            198 18 return
          </CharString>
          <CharString index="217">
            31 -28 28 309 31 281 42 callgsubr
            return
          </CharString>
          <CharString index="218">
            -64 callsubr
            hlineto
            return
          </CharString>
          <CharString index="219">
            591 0 103 callgsubr
            return
          </CharString>
          <CharString index="220">
            hmoveto
            -40 callgsubr
            return
          </CharString>
          <CharString index="221">
            502 0 28 461 25 return
          </CharString>
          <CharString index="222">
            -21 589 77 32 -20 hstem
            return
          </CharString>
          <CharString index="223">
            hvcurveto
            25 hlineto
            60 callsubr
            return
          </CharString>
          <CharString index="224">
            553 504 -21 return
          </CharString>
          <CharString index="225">
            -11 9 -9 11 return
          </CharString>
          <CharString index="226">
            121 callgsubr
            hstem
            -407 33 134 33 vstem
            -240 return
          </CharString>
          <CharString index="227">
            96 112 96 return
          </CharString>
          <CharString index="228">
            500 534 -21 185 -20 21 -20 hstemhm
            hintmask 00100000
            return
          </CharString>
          <CharString index="229">
            12 -1 -9 0 -3 hhcurveto
            -12 0 -6 -18 hvcurveto
            -16 vlineto
            return
          </CharString>
          <CharString index="230">
            -23 callsubr
            71 106 34 19 callsubr
            return
          </CharString>
          <CharString index="231">
            22 hstem
            57 83 272 83 vstem
            return
          </CharString>
          <CharString index="232">
            138 callsubr
            103 return
          </CharString>
          <CharString index="233">
            -31 24 hlineto
            -66 callgsubr
            return
          </CharString>
          <CharString index="234">
            116 callgsubr
            103 return
          </CharString>
          <CharString index="235">
            -27 -26 -26 17 -27 return
          </CharString>
          <CharString index="236">
            vlineto
            -148 -11 rlineto
            -31 vlineto
            71 7 -7 -51 hvcurveto
            return
          </CharString>
          <CharString index="237">
            114 callgsubr
            199 72 return
          </CharString>
          <CharString index="238">
            -44 vvcurveto
            -40 40 -39 56 44 44 33 51 15 vhcurveto
            return
          </CharString>
          <CharString index="239">
            21 -21 483 -20 hstem
            return
          </CharString>
          <CharString index="240">
            158 89 211 19 callsubr
            return
          </CharString>
          <CharString index="241">
            -22 28 331 23 118 101 62 25 hstemhm
            return
          </CharString>
          <CharString index="242">
            24 -18 26 -30 vhcurveto
            -3 -3 -1 -3 hhcurveto
            -24 return
          </CharString>
          <CharString index="243">
            hlineto
            -17 50 rlineto
            148 -80 rmoveto
            -60 -176 return
          </CharString>
          <CharString index="244">
            25 vlineto
            13 callgsubr
            return
          </CharString>
          <CharString index="245">
            52 -21 133 -20 hstemhm
            72 return
          </CharString>
          <CharString index="246">
            82 141 callsubr
            51 return
          </CharString>
          <CharString index="247">
            -50 -47 26 32 -19 return
          </CharString>
          <CharString index="248">
            103 callsubr
            hstemhm
            return
          </CharString>
          <CharString index="249">
            553 515 38 return
          </CharString>
          <CharString index="250">
            -21 162 -20 hstemhm
            return
          </CharString>
          <CharString index="251">
            22 299 31 return
          </CharString>
          <CharString index="252">
            0 31 -28 28 540 31 64 -20 hstemhm
            return
          </CharString>
          <CharString index="253">
            0 31 -27 27 366 31 44 -20 hstemhm
            return
          </CharString>
          <CharString index="254">
            vvcurveto
            -23 18 -27 29 28 24 21 29 vhcurveto
            return
          </CharString>
          <CharString index="255">
            69 callsubr
            119 40 return
          </CharString>
          <CharString index="256">
            hstemhm
            158 28 168 106 167 28 return
          </CharString>
          <CharString index="257">
            19 0 20 hvcurveto
            endchar
          </CharString>
          <CharString index="258">
            31 615 31 return
          </CharString>
          <CharString index="259">
            -21 134 38 return
          </CharString>
        <CharString name=".notdef">
          280 endchar
        </CharString>
        <CharString name="A">
          -11 callsubr
          hstem
          490 275 vstem
          -107 callsubr
          endchar
        </CharString>
        <CharString name="AE">
          105 callsubr
          63 callgsubr
          hintmask 1111011110000000
          -57 callsubr
          hintmask 1100110010000000
          20 callsubr
          endchar
        </CharString>
        <CharString name="AE.dup">
          105 callsubr
          63 callgsubr
          hintmask 1111011110000000
          -57 callsubr
          hintmask 1100110010000000
          20 callsubr
          endchar
        </CharString>
        <CharString name="AEacute">
          105 callsubr
          84 -21 162 -20 63 callgsubr
          hintmask 1110010111100000
          -57 callsubr
          hintmask 1100001100100000
          20 callsubr
          hintmask 0001100000000000
          181 262 -102 callsubr
        </CharString>
        <CharString name="Aacute">
          -11 callsubr
          505 -21 162 -103 callsubr
          174 274 -102 callsubr
        </CharString>
        <CharString name="Abreve">
          -11 callsubr
          484 38 134 -103 callsubr
          54 callgsubr
          endchar
        </CharString>
        <CharString name="Abreveacute">
          -11 callsubr
          484 38 316 -103 callsubr
          54 callgsubr
          -49 140 -102 callsubr
        </CharString>
        <CharString name="Abrevedotbelow">
          94 callgsubr
          200 31 484 38 134 -20 hstemhm
          354 106 30 275 hintmask 01111010
          -107 callsubr
          54 callgsubr
          hintmask 10000100
          -103 -1065 rmoveto
          50 callsubr
        </CharString>
        <CharString name="Abrevegrave">
          -11 callsubr
          484 38 134 -103 callsubr
          54 callgsubr
          -48 42 rmoveto
          -14 -22 -178 93 -6 4 -14 7 -3 16 rlinecurve
          22 -4 16 20 23 hhcurveto
          11 9 -6 -13 14 hvcurveto
          endchar
        </CharString>
        <CharString name="Abrevehookabove">
          -11 callsubr
          484 38 279 -103 callsubr
          54 callgsubr
          -78 98 -107 callgsubr
        </CharString>
        <CharString name="Abrevetilde">
          -11 callsubr
          484 38 174 45 4 45 hstemhm
          490 275 hintmask 11000100
          -107 callsubr
          hintmask 00111000
          54 callgsubr
          19 119 -106 callsubr
        </CharString>
        <CharString name="Acaron">
          -11 callsubr
          495 -21 133 -71 callsubr
          261 -57 callgsubr
        </CharString>
        <CharString name="Acircumflex">
          -11 callsubr
          495 -21 133 -71 callsubr
          160 -46 callgsubr
        </CharString>
        <CharString name="Acircumflexacute">
          -11 callsubr
          495 -21 315 -71 callsubr
          160 -67 callgsubr
        </CharString>
        <CharString name="Acircumflexdotbelow">
          94 callgsubr
          200 31 495 -21 133 -20 hstemhm
          354 106 30 275 hintmask 01111010
          -107 callsubr
          181 160 -92 callgsubr
          hintmask 10000100
          -86 -883 rmoveto
          50 callsubr
        </CharString>
        <CharString name="Acircumflexgrave">
          -11 callsubr
          495 -21 133 -71 callsubr
          160 -69 callgsubr
        </CharString>
        <CharString name="Acircumflexhookabove">
          -11 callsubr
          495 -21 278 -71 callsubr
          160 -92 callgsubr
          16 231 -107 callgsubr
        </CharString>
        <CharString name="Acircumflextilde">
          -11 callsubr
          495 -21 173 45 4 45 hstemhm
          490 275 hintmask 11000100
          -107 callsubr
          hintmask 00111000
          181 160 -92 callgsubr
          36 252 -106 callsubr
        </CharString>
        <CharString name="Adblgrave">
          -11 callsubr
          505 -21 187 -103 callsubr
          -47 168 -93 callgsubr
        </CharString>
        <CharString name="Adieresis">
          -11 callsubr
          474 96 hstemhm
          255 120 callsubr
          -69 275 hintmask 11010100
          -107 callsubr
          hintmask 00111000
          -26 192 -68 callsubr
        </CharString>
        <CharString name="Adotbelow">
          94 callgsubr
          200 31 hstemhm
          354 106 30 275 hintmask 01101000
          -107 callsubr
          hintmask 10010000
          83 -739 rmoveto
          50 callsubr
        </CharString>
        <CharString name="Agrave">
          -11 callsubr
          505 -21 162 -103 callsubr
          102 176 -71 callgsubr
        </CharString>
        <CharString name="Ahookabove">
          -11 callsubr
          517 -21 145 -103 callsubr
          108 264 -107 callgsubr
        </CharString>
        <CharString name="Alpha">
          -11 callsubr
          hstem
          490 275 vstem
          -107 callsubr
          endchar
        </CharString>
        <CharString name="Amacron">
          -11 callsubr
          494 31 hstemhm
          490 275 hintmask 11010000
          -107 callsubr
          hintmask 00100000
          219 164 -25 callgsubr
        </CharString>
        <CharString name="Aogonek">
          814 101 callgsubr
          153 31 454 -20 hstemhm
          196 48 139 48 100 48 hintmask 00101010
          765 hmoveto
          31 -18 vlineto
          -64 -10 9 28 -10 hvcurveto
          -232 626 rlineto
          18 -7 -1 4 -17 hhcurveto
          -16 -2 -6 -13 -5 hvcurveto
          -221 -597 -9 -23 -16 -45 -89 -1 rlinecurve
          hintmask 01010100
          -31 vlineto
          1 21 40 2 40 hhcurveto
          116 -3 rlineto
          31 vlineto
          -51 -23 26 24 6 0 2 5 12 hvcurveto
          48 130 rlineto
          266 hlineto
          hintmask 00100000
          57 -153 rlineto
          5 -13 0 -2 -3 vvcurveto
          -29 -56 0 -26 vhcurveto
          hintmask 11010001
          -31 vlineto
          2 30 54 1 39 hhcurveto
          -47 -33 -35 -39 2 callsubr
          37 34 35 24 hvcurveto
          -152 259 rmoveto
          -244 hlineto
          122 330 rlineto
          endchar
        </CharString>
        <CharString name="Aogonekacute">
          814 101 callgsubr
          153 31 454 -20 71 143 callsubr
          196 48 139 48 100 48 hintmask 0010100010000000
          765 hmoveto
          31 -18 vlineto
          -64 -10 9 28 -10 hvcurveto
          -232 626 rlineto
          18 -7 -1 4 -17 hhcurveto
          -16 -2 -6 -13 -5 hvcurveto
          -221 -597 -9 -23 -16 -45 -89 -1 rlinecurve
          hintmask 0101000100000000
          -31 vlineto
          1 21 40 2 40 hhcurveto
          116 -3 rlineto
          31 vlineto
          -51 -23 26 24 6 0 2 5 12 hvcurveto
          48 130 rlineto
          266 hlineto
          hintmask 0010000000000000
          57 -153 rlineto
          5 -13 0 -2 -3 vvcurveto
          -29 -56 0 -26 vhcurveto
          hintmask 1101000001000000
          -31 vlineto
          2 30 54 1 39 hhcurveto
          -47 -33 -35 -39 2 callsubr
          37 34 35 24 hvcurveto
          -152 259 rmoveto
          -244 hlineto
          122 330 rlineto
          hintmask 0000011000000000
          174 274 -102 callsubr
        </CharString>
        <CharString name="Aring">
          -11 callsubr
          454 121 callgsubr
          hstemhm
          307 33 134 33 -17 275 hintmask 11100010
          -107 callsubr
          hintmask 00111100
          97 212 -55 callsubr
        </CharString>
        <CharString name="Aringacute">
          -11 callsubr
          454 121 callgsubr
          182 -20 hstemhm
          307 33 134 33 -17 275 hintmask 11100001
          -107 callsubr
          hintmask 00111110
          97 212 -75 callsubr
          7 229 -102 callsubr
        </CharString>
        <CharString name="Atilde">
          -11 callsubr
          474 45 4 45 -103 callgsubr
          205 223 -106 callsubr
        </CharString>
        <CharString name="B">
          -24 callsubr
        </CharString>
        <CharString name="Beta">
          -24 callsubr
        </CharString>
        <CharString name="C">
          70 callsubr
          hstem
          72 103 513 25 vstem
          -77 callsubr
          -204 168 -160 198 169 106 136 119 hvcurveto
          endchar
        </CharString>
        <CharString name="Cacute">
          70 callsubr
          127 callsubr
          513 25 hintmask 11001100
          -77 callsubr
          -204 168 -160 198 169 106 136 119 hvcurveto
          hintmask 00110000
          -137 633 -102 callsubr
        </CharString>
        <CharString name="Ccaron">
          70 callsubr
          125 callsubr
          513 25 hintmask 11001100
          -77 callsubr
          -204 168 -160 198 169 106 136 119 hvcurveto
          hintmask 00110000
          -130 620 -57 callgsubr
        </CharString>
        <CharString name="Ccedilla">
          70 callsubr
          hstem
          72 103 513 25 vstem
          -77 callsubr
          -193 150 -154 184 -16 hvcurveto
          -71 -3 callsubr
          51 -63 16 -60 hvcurveto
          45 vlineto
          157 10 98 130 114 vvcurveto
          endchar
        </CharString>
        <CharString name="Ccircumflex">
          70 callsubr
          125 callsubr
          513 25 hintmask 11001100
          -77 callsubr
          -204 168 -160 198 169 106 136 119 hvcurveto
          hintmask 00110000
          -130 519 -46 callgsubr
        </CharString>
        <CharString name="Cdotaccent">
          70 callsubr
          53 106 hstemhm
          72 103 204 106 203 25 hintmask 11010100
          -77 callsubr
          -204 168 -160 198 169 106 136 119 hvcurveto
          hintmask 00101000
          -228 578 rmoveto
          50 callsubr
        </CharString>
        <CharString name="Chi">
          -42 callgsubr
        </CharString>
        <CharString name="D">
          829 0 31 47 31 543 31 hstem
          160 86 410 100 vstem
          -62 callsubr
          endchar
        </CharString>
        <CharString name="Dcaron">
          829 0 31 47 31 543 31 74 -21 133 -20 hstemhm
          160 86 410 100 hintmask 11100110
          -62 callsubr
          hintmask 00011000
          -153 517 -57 callgsubr
        </CharString>
        <CharString name="Dcroat">
          -22 callsubr
        </CharString>
        <CharString name="Ddotbelow">
          829 97 callgsubr
          47 31 543 31 hstemhm
          160 86 53 106 251 100 hintmask 01111010
          -62 callsubr
          hintmask 10000100
          -251 -483 rmoveto
          50 callsubr
        </CharString>
        <CharString name="Delta">
          903 0 76 640 -20 hstem
          838 8 rmoveto
          0 -5 11 -1 3 vhcurveto
          -354 675 rlineto
          15 -8 -2 4 -17 hhcurveto
          -17 -2 -4 -15 -8 hvcurveto
          -354 -675 rlineto
          -1 -3 -5 -11 0 vvcurveto
          -8 5 0 16 vhcurveto
          732 hlineto
          16 5 0 8 hvcurveto
          -134 68 rmoveto
          -571 hlineto
          285 544 rlineto
          endchar
        </CharString>
        <CharString name="Dlinebelow">
          829 -162 31 131 31 47 31 543 31 hstemhm
          160 86 410 100 hintmask 01111100
          -62 callsubr
          hintmask 10000000
          -115 -498 -25 callgsubr
        </CharString>
        <CharString name="E">
          -39 callgsubr
          hstem
          133 callsubr
          vstem
          -105 callgsubr
          endchar
        </CharString>
        <CharString name="Eacute">
          -39 callgsubr
          87 -21 162 -20 -17 callgsubr
          hintmask 1111001111000000
          -105 callgsubr
          hintmask 0000110000000000
          -142 866 -102 callsubr
        </CharString>
        <CharString name="Ebreve">
          -39 callgsubr
          66 38 134 -20 -17 callgsubr
          hintmask 1111001111000000
          -105 callgsubr
          hintmask 0000110000000000
          -130 918 -85 callsubr
        </CharString>
        <CharString name="Ecaron">
          -39 callgsubr
          77 -21 133 -20 -17 callgsubr
          hintmask 1111001111000000
          -105 callgsubr
          hintmask 0000110000000000
          -135 853 -57 callgsubr
        </CharString>
        <CharString name="Ecircumflex">
          -39 callgsubr
          77 -21 133 -25 callsubr
          endchar
        </CharString>
        <CharString name="Ecircumflexacute">
          -39 callgsubr
          77 -21 315 -25 callsubr
          -32 273 rmoveto
          22 4 -17 20 -22 hhcurveto
          -11 -9 -6 -13 -14 hvcurveto
          -146 -121 14 -22 178 93 6 4 14 7 3 16 rlinecurve
          endchar
        </CharString>
        <CharString name="Ecircumflexdotbelow">
          742 -200 106 94 -23 callgsubr
          77 -21 133 -20 123 callsubr
          hintmask 0111111101110000
          -105 callgsubr
          -135 90 callgsubr
          hintmask 1000000010000000
          -85 -883 rmoveto
          50 callsubr
        </CharString>
        <CharString name="Ecircumflexgrave">
          -39 callgsubr
          77 -21 133 -25 callsubr
          -31 175 rmoveto
          -14 -22 -178 93 -6 4 -14 7 -3 16 rlinecurve
          22 -4 16 20 23 hhcurveto
          11 9 -6 -13 14 hvcurveto
          endchar
        </CharString>
        <CharString name="Ecircumflexhookabove">
          -39 callgsubr
          77 -21 278 -25 callsubr
          16 231 -107 callgsubr
        </CharString>
        <CharString name="Ecircumflextilde">
          -39 callgsubr
          77 -21 173 45 4 45 -17 callgsubr
          hintmask 1111000111100000
          -105 callgsubr
          hintmask 0000111000000000
          -135 90 callgsubr
          36 252 -106 callsubr
        </CharString>
        <CharString name="Edblgrave">
          -39 callgsubr
          87 -21 187 -20 -17 callgsubr
          hintmask 1111001111000000
          -105 callgsubr
          hintmask 0000110000000000
          -333 760 -93 callgsubr
        </CharString>
        <CharString name="Edieresis">
          -39 callgsubr
          56 96 -23 callsubr
          -29 120 callsubr
          -64 19 callsubr
          hintmask 1111010011100000
          -105 callgsubr
          hintmask 0000101100000000
          -342 784 -68 callsubr
        </CharString>
        <CharString name="Edotaccent">
          -39 callgsubr
          78 106 123 callsubr
          hintmask 1111010111000000
          -105 callgsubr
          hintmask 0000101000000000
          -232 811 rmoveto
          50 callsubr
        </CharString>
        <CharString name="Edotbelow">
          742 -200 106 94 -23 callgsubr
          123 callsubr
          hintmask 0111110111000000
          -105 callgsubr
          hintmask 1000001000000000
          -232 -147 rmoveto
          50 callsubr
        </CharString>
        <CharString name="Egrave">
          -39 callgsubr
          87 -21 162 -20 -17 callgsubr
          hintmask 1111001111000000
          -105 callgsubr
          hintmask 0000110000000000
          -214 768 -71 callgsubr
        </CharString>
        <CharString name="Ehookabove">
          -39 callgsubr
          99 -21 145 -20 -17 callgsubr
          hintmask 1111001111000000
          -105 callgsubr
          hintmask 0000110000000000
          -208 856 -107 callgsubr
        </CharString>
        <CharString name="Emacron">
          -39 callgsubr
          76 31 -17 callgsubr
          hintmask 1111011110000000
          -105 callgsubr
          hintmask 0000100000000000
          -97 756 -25 callgsubr
        </CharString>
        <CharString name="Eng">
          814 -22 92 609 26 hstem
          158 89 428 102 vstem
          777 342 rmoveto
          195 -141 168 -188 -81 -73 -36 -57 -47 vhcurveto
          71 vlineto
          -2 -15 -14 -1 -15 hhcurveto
          -39 -79 37 callgsubr
          26 vlineto
          79 3 70 callgsubr
          -3 -11 -79 vhcurveto
          -26 -31 hlineto
          3 35 79 0 38 hhcurveto
          39 79 65 callgsubr
          31 -26 vlineto
          -79 -3 11 36 hvcurveto
          491 vlineto
          66 41 75 44 85 hhcurveto
          150 77 -168 -169 -137 0 -155 -88 -38 hvcurveto
          1 4 1 4 4 vvcurveto
          86 callgsubr
          159 75 183 181 vhcurveto
          endchar
        </CharString>
        <CharString name="Eogonek">
          742 101 callgsubr
          260 31 86 31 116 47 0 45 callsubr
          174 48 181 48 hintmask 0011110100000000
          6 callsubr
          hintmask 0010010100000000
          111 callsubr
          hintmask 1100000011000000
          -31 443 vlineto
          -50 -33 -27 -36 2 callsubr
          20 19 46 36 hvcurveto
          121 hlineto
          endchar
        </CharString>
        <CharString name="Eogonekacute">
          742 101 callgsubr
          260 31 86 31 116 47 0 31 87 125 callgsubr
          174 48 181 48 hintmask 0011110001000000
          6 callsubr
          hintmask 0010010001000000
          111 callsubr
          hintmask 1100000000110000
          -31 443 vlineto
          -50 -33 -27 -36 2 callsubr
          20 19 46 36 hvcurveto
          121 hlineto
          hintmask 0000000110000000
          -142 866 -102 callsubr
        </CharString>
        <CharString name="Epsilon">
          -39 callgsubr
          hstem
          133 callsubr
          vstem
          -105 callgsubr
          endchar
        </CharString>
        <CharString name="Ereversed">
          -39 callgsubr
          hstem
          55 25 4 25 161 25 211 89 vstem
          698 92 callsubr
          -586 hlineto
          -28 -225 rlineto
          25 hlineto
          143 16 32 51 157 hhcurveto
          143 hlineto
          47 2 -7 -33 hvcurveto
          -240 -98 vlineto
          -99 -14 30 87 hvcurveto
          -25 -265 25 hlineto
          87 14 30 99 vhcurveto
          98 -267 hlineto
          -33 -2 -7 -47 vhcurveto
          -151 hlineto
          -177 -24 74 153 -25 hvcurveto
          -25 hlineto
          42 -258 rlineto
          endchar
        </CharString>
        <CharString name="Eta">
          -43 callsubr
        </CharString>
        <CharString name="Eth">
          -22 callsubr
        </CharString>
        <CharString name="Etilde">
          -39 callgsubr
          56 45 4 45 -17 callgsubr
          hintmask 1111001111000000
          -105 callgsubr
          hintmask 0000110000000000
          -111 815 -106 callsubr
        </CharString>
        <CharString name="Euro">
          657 -22 30 263 30 82 30 262 30 hstem
          116 102 vstem
          599 -12 rmoveto
          155 vlineto
          6 -4 4 -6 vhcurveto
          -10 hlineto
          -5 -4 -4 -5 -1 hvcurveto
          -75 -8 -58 -61 -74 hhcurveto
          -66 -57 40 55 -35 hvcurveto
          -32 50 -14 58 -4 60 rrcurveto
          274 107 callgsubr
          -279 hlineto
          -1 41 1 41 rlineto
          310 107 callgsubr
          -311 hlineto
          4 59 14 58 32 50 rrcurveto
          56 35 57 39 66 hhcurveto
          74 58 -61 -75 8 hvcurveto
          -5 1 4 -4 5 hhcurveto
          10 hlineto
          6 4 4 6 hvcurveto
          155 vlineto
          6 -4 4 -6 vhcurveto
          -3 hlineto
          -3 -3 -1 -2 -1 hvcurveto
          -40 -43 rlineto
          29 -32 -43 17 -46 hhcurveto
          -84 -77 -42 -65 -53 hvcurveto
          -44 -53 -27 -65 -11 -67 rrcurveto
          -52 108 callsubr
          52 hlineto
          -1 -14 -1 -14 -13 vvcurveto
          -14 1 -14 1 -13 vhcurveto
          -48 108 callsubr
          56 hlineto
          11 -68 27 -64 44 -54 rrcurveto
          -65 53 77 -42 84 hhcurveto
          46 43 18 29 32 hvcurveto
          40 -44 rlineto
          -2 1 3 -1 3 hhcurveto
          3 hlineto
          6 4 4 6 hvcurveto
          endchar
        </CharString>
        <CharString name="F">
          713 0 31 -28 28 294 31 293 45 callsubr
          -40 89 155 25 152 25 hintmask 01011000
          653 455 rmoveto
          60 callsubr
          -570 -31 24 hlineto
          111 callsubr
          hintmask 10000000
          -31 vlineto
          hintmask 01000100
          3 35 78 0 39 hhcurveto
          hintmask 10101010
          41 91 40 callgsubr
          246 94 vlineto
          98 12 -31 -86 hvcurveto
          25 265 -25 hlineto
          -86 -12 -31 -98 vhcurveto
          -94 253 hlineto
          hintmask 00010101
          33 2 7 47 vhcurveto
          133 hlineto
          155 28 -54 -140 16 hvcurveto
          endchar
        </CharString>
        <CharString name="G">
          851 -22 111 callgsubr
          hintmask 01000100
          -31 callgsubr
          hintmask 10111000
          96 0 -14 -34 hvcurveto
          -64 vlineto
          -121 -155 0 -12 -91 -190 52 281 283 192 49 82 75 callsubr
          vhcurveto
          hintmask 00000100
          27 callsubr
          hintmask 10111000
          -78 callgsubr
          hintmask 01000100
          44 11 0 62 vhcurveto
          endchar
        </CharString>
        <CharString name="Gacute">
          43 callgsubr
          62 -21 162 -80 callsubr
          -216 624 -102 callsubr
        </CharString>
        <CharString name="Gamma">
          683 0 31 -28 28 618 45 callsubr
          -40 89 hintmask 01110000
          624 455 rmoveto
          60 callsubr
          -541 -31 24 hlineto
          111 callsubr
          hintmask 10000000
          -31 vlineto
          hintmask 01001000
          3 35 78 0 39 hhcurveto
          hintmask 10010000
          41 91 40 callgsubr
          530 vlineto
          hintmask 00101000
          33 2 7 47 vhcurveto
          115 hlineto
          148 24 -57 -137 16 hvcurveto
          endchar
        </CharString>
        <CharString name="Gbreve">
          43 callgsubr
          41 38 134 -80 callsubr
          -204 676 -85 callsubr
        </CharString>
        <CharString name="Gcaron">
          43 callgsubr
          52 -21 133 -80 callsubr
          -209 611 -57 callgsubr
        </CharString>
        <CharString name="Gcedilla">
          851 8 callgsubr
          44 111 callgsubr
          hintmask 00010001
          -31 callgsubr
          hintmask 00101110
          96 0 -14 -34 hvcurveto
          -64 vlineto
          -121 -155 0 -12 -91 -190 52 281 283 192 49 82 75 callsubr
          vhcurveto
          hintmask 00000001
          27 callsubr
          hintmask 00101110
          -78 callgsubr
          hintmask 11010001
          44 11 0 62 vhcurveto
          -315 -387 -99 callgsubr
        </CharString>
        <CharString name="Gcircumflex">
          43 callgsubr
          52 -21 133 -80 callsubr
          -209 510 -46 callgsubr
        </CharString>
        <CharString name="Gcommaaccent">
          851 8 callgsubr
          44 111 callgsubr
          hintmask 00010001
          -31 callgsubr
          hintmask 00101110
          96 0 -14 -34 hvcurveto
          -64 vlineto
          -121 -155 0 -12 -91 -190 52 281 283 192 49 82 75 callsubr
          vhcurveto
          hintmask 00000001
          27 callsubr
          hintmask 00101110
          -78 callgsubr
          hintmask 00010001
          44 11 0 62 vhcurveto
          hintmask 11000000
          -315 -387 -99 callgsubr
        </CharString>
        <CharString name="Gdotaccent">
          43 callgsubr
          53 106 hstemhm
          72 103 198 106 144 0 callgsubr
          hintmask 10101010
          96 0 -14 -34 hvcurveto
          -64 vlineto
          -121 -155 0 -12 -91 -190 52 281 283 192 49 82 75 callsubr
          vhcurveto
          hintmask 00000001
          27 callsubr
          hintmask 10101010
          -62 callgsubr
          hintmask 00010100
          -306 569 rmoveto
          50 callsubr
        </CharString>
        <CharString name="H">
          -43 callsubr
        </CharString>
        <CharString name="H_uni0303">
          28 callsubr
          53 45 4 45 -41 callgsubr
          -176 815 -106 callsubr
        </CharString>
        <CharString name="Hbar">
          30 callgsubr
          -28 28 309 31 127 30 124 42 callgsubr
          319 89 hintmask 01011001
          758 113 callsubr
          420 103 30 -103 77 79 callsubr
          hintmask 00000100
          31 vlineto
          hintmask 00001000
          -3 -35 -74 0 -38 hhcurveto
          hintmask 00010111
          -38 -75 -84 callsubr
          -77 -319 77 -46 callsubr
          hlineto
          hintmask 00001000
          -3 -35 -74 0 -38 hhcurveto
          hintmask 01010110
          -38 -75 -84 callsubr
          -77 -103 -30 103 -420 -7 callgsubr
          hintmask 10000000
          -31 vlineto
          66 callsubr
          hintmask 10100011
          -47 callgsubr
          66 callsubr
          hintmask 10110011
          72 callgsubr
          -192 371 rmoveto
          -319 127 319 hlineto
          endchar
        </CharString>
        <CharString name="Hbrevebelow">
          814 132 callgsubr
          81 110 callsubr
          319 89 hintmask 0001010010000000
          -14 callsubr
          hintmask 0000001000000000
          31 vlineto
          hintmask 0000010000000000
          -3 -35 -74 0 -38 hhcurveto
          hintmask 0000101110000000
          -38 -75 -84 callsubr
          -234 -319 234 -46 callsubr
          hlineto
          hintmask 0000010000000000
          -3 -35 -74 0 -38 hhcurveto
          hintmask 0001001100000000
          -38 -75 -34 callgsubr
          hlineto
          hintmask 0010000000000000
          -31 vlineto
          hintmask 0001000000000000
          16 callsubr
          hintmask 0010100110000000
          -47 callgsubr
          hintmask 0001000000000000
          16 callsubr
          hintmask 0010000000000000
          72 callgsubr
          hintmask 1100000000000000
          -195 -61 -85 callsubr
        </CharString>
        <CharString name="Hcircumflex">
          28 callsubr
          74 -21 133 -20 -41 callgsubr
          -200 83 callsubr
        </CharString>
        <CharString name="Hdieresis">
          28 callsubr
          53 96 -23 callsubr
          8 120 callsubr
          7 89 hintmask 0101000001000000
          -14 callsubr
          hintmask 0000100000000000
          31 vlineto
          hintmask 0001000000000000
          -3 -35 -74 0 -38 hhcurveto
          hintmask 0010101011000000
          -38 -75 -84 callsubr
          -234 -319 234 -46 callsubr
          hlineto
          hintmask 0001000000000000
          -3 -35 -74 0 -38 hhcurveto
          hintmask 0100101000000000
          -38 -75 -34 callgsubr
          hlineto
          hintmask 1000000000000000
          -31 vlineto
          hintmask 0100000000000000
          16 callsubr
          hintmask 1010001011000000
          -47 callgsubr
          hintmask 0100000000000000
          16 callsubr
          hintmask 1000000000000000
          72 callgsubr
          hintmask 0000010110000000
          -407 784 -68 callsubr
        </CharString>
        <CharString name="Hdotbelow">
          814 -200 106 94 110 callsubr
          107 106 106 89 hintmask 0010100010000000
          -14 callsubr
          hintmask 0000010000000000
          31 vlineto
          hintmask 0000100000000000
          -3 -35 -74 0 -38 hhcurveto
          hintmask 0001011010000000
          -38 -75 -84 callsubr
          -234 -319 234 -46 callsubr
          hlineto
          hintmask 0000100000000000
          -3 -35 -74 0 -38 hhcurveto
          hintmask 0010011000000000
          -38 -75 -34 callgsubr
          hlineto
          hintmask 0100000000000000
          -31 vlineto
          hintmask 0010000000000000
          16 callsubr
          hintmask 0101001010000000
          -47 callgsubr
          hintmask 0010000000000000
          16 callsubr
          hintmask 0100000000000000
          72 callgsubr
          hintmask 1000000100000000
          -298 -147 rmoveto
          50 callsubr
        </CharString>
        <CharString name="I">
          22 callsubr
          hstem
          158 89 vstem
          -97 callgsubr
          endchar
        </CharString>
        <CharString name="I_J">
          932 -22 22 0 112 -109 28 27 112 482 28 -23 callsubr
          180 112 161 86 hintmask 10111111
          -97 callgsubr
          508 14 callsubr
          40 callsubr
          140 callsubr
          vhcurveto
          52 12 30 26 36 -28 20 -28 hvcurveto
          hintmask 01000010
          -22 -34 -14 -44 hvcurveto
          hintmask 10001001
          1 callgsubr
          endchar
        </CharString>
        <CharString name="Iacute">
          22 callsubr
          87 -21 162 -20 -78 callsubr
          -9 866 -102 callsubr
        </CharString>
        <CharString name="Ibreve">
          22 callsubr
          66 38 134 -20 -78 callsubr
          3 918 -85 callsubr
        </CharString>
        <CharString name="Icaron">
          22 callsubr
          77 -21 133 -20 -78 callsubr
          -2 853 -57 callgsubr
        </CharString>
        <CharString name="Icircumflex">
          22 callsubr
          77 -21 133 -20 -78 callsubr
          -2 83 callsubr
        </CharString>
        <CharString name="Idblgrave">
          22 callsubr
          87 -21 187 -20 -78 callsubr
          -200 760 -93 callgsubr
        </CharString>
        <CharString name="Idieresis">
          22 callsubr
          56 96 hstemhm
          50 96 12 89 11 96 hintmask 11011000
          -97 callgsubr
          hintmask 00110100
          -209 784 -68 callsubr
        </CharString>
        <CharString name="Idieresisacute">
          22 callsubr
          56 96 83 143 callsubr
          50 96 12 89 11 96 hintmask 11000110
          -97 callgsubr
          hintmask 00111101
          -209 784 rmoveto
          -99 callsubr
          208 hmoveto
          -99 callsubr
          -8 230 -102 callsubr
        </CharString>
        <CharString name="Idotaccent">
          22 callsubr
          78 106 hstemhm
          150 106 -98 -83 callsubr
          hintmask 00110000
          -99 811 rmoveto
          50 callsubr
        </CharString>
        <CharString name="Idotbelow">
          406 -200 106 97 89 callsubr
          hstemhm
          150 106 -98 89 hintmask 01101000
          -97 callgsubr
          hintmask 10010000
          -99 -147 rmoveto
          50 callsubr
        </CharString>
        <CharString name="Igrave">
          22 callsubr
          87 -21 162 -20 -78 callsubr
          -81 768 -71 callgsubr
        </CharString>
        <CharString name="Ihookabove">
          22 callsubr
          99 -21 145 -20 -77 callgsubr
          hintmask 00111000
          -75 856 -107 callgsubr
        </CharString>
        <CharString name="Imacron">
          22 callsubr
          76 45 callsubr
          hintmask 11010000
          -97 callgsubr
          hintmask 00100000
          36 756 -25 callgsubr
        </CharString>
        <CharString name="Imacron.alt">
          22 callsubr
          76 45 callsubr
          hintmask 11010000
          -97 callgsubr
          hintmask 00100000
          -56 756 45 callgsubr
        </CharString>
        <CharString name="Iogonek">
          406 -184 40 147 89 callsubr
          -23 callsubr
          -70 89 0 89 hintmask 11110100
          -5 callgsubr
          hintmask 10001000
          99 callsubr
          hintmask 00000100
          44 44 33 51 15 hvcurveto
          endchar
        </CharString>
        <CharString name="Iogonekacute">
          406 -184 40 147 89 callsubr
          87 125 callgsubr
          -70 89 0 89 hintmask 11100101
          -5 callgsubr
          hintmask 10000010
          99 callsubr
          hintmask 00000001
          44 44 33 51 15 hvcurveto
          hintmask 00011000
          -9 966 -102 callsubr
        </CharString>
        <CharString name="Iota">
          22 callsubr
          hstem
          158 89 vstem
          -97 callgsubr
          endchar
        </CharString>
        <CharString name="Itilde">
          22 callsubr
          56 45 4 45 -78 callsubr
          22 815 -106 callsubr
        </CharString>
        <CharString name="J">
          79 callgsubr
          hstemhm
          62 112 161 86 hintmask 01010100
          498 14 callsubr
          40 callsubr
          vhcurveto
          hintmask 00101000
          140 callsubr
          hvcurveto
          52 12 30 26 36 -28 20 -28 hvcurveto
          hintmask 01001000
          -22 -34 -14 -44 hvcurveto
          hintmask 10010100
          1 callgsubr
          endchar
        </CharString>
        <CharString name="J_uni030C.cap">
          566.66667 -22 22 0 112 -54 112 310 -21 145 79 -31 31 hstemhm
          62 112 161 86 hintmask 00000100
          498 14 callsubr
          hintmask 01001001
          40 callsubr
          vhcurveto
          hintmask 00100010
          140 callsubr
          hvcurveto
          52 12 30 26 36 -28 20 -28 hvcurveto
          hintmask 01000010
          -22 -34 -14 -44 hvcurveto
          hintmask 10000101
          1 callgsubr
          128 -48 rmoveto
          42 -15 37 -34 -26 -14 -20 -20 vhcurveto
          hintmask 00011000
          -19 13 -20 27 3 17 0 14 11 vhcurveto
          1 -5 0 -1 -8 vvcurveto
          -73 -46 -46 -8 -8 vhcurveto
          -7 -6 0 -1 -3 vvcurveto
          -4 3 -4 5 8 62 58 87 vhcurveto
          endchar
        </CharString>
        <CharString name="Jacute">
          79 callgsubr
          84 -21 162 -4 callsubr
          -4 214 -102 callsubr
        </CharString>
        <CharString name="Jcircumflex">
          79 callgsubr
          74 -21 133 -4 callsubr
          3 100 -46 callgsubr
        </CharString>
        <CharString name="K">
          -51 callgsubr
        </CharString>
        <CharString name="Kappa">
          -51 callgsubr
        </CharString>
        <CharString name="Kcedilla">
          -54 callsubr
          hintmask 1110000000000000
          -203 -148 -99 callgsubr
        </CharString>
        <CharString name="Kcommaaccent">
          -54 callsubr
          hintmask 0010000000000000
          hintmask 1100000000000000
          -203 -148 -99 callgsubr
        </CharString>
        <CharString name="L">
          683 0 31 621 42 callgsubr
          -40 89 hintmask 10001000
          -28 callsubr
          hintmask 01010000
          2 callgsubr
          hintmask 00100000
          31 vlineto
          hintmask 01001000
          62 callgsubr
          hintmask 10110000
          -51 callsubr
          endchar
        </CharString>
        <CharString name="L_uni0303">
          683 0 31 621 28 -28 31 53 115 callgsubr
          -40 89 hintmask 10000010
          -28 callsubr
          hintmask 01000100
          2 callgsubr
          hintmask 00100000
          31 vlineto
          hintmask 01000010
          62 callgsubr
          hintmask 10100100
          -51 callsubr
          hintmask 00011000
          -214 815 -106 callsubr
        </CharString>
        <CharString name="Lacute">
          683 0 31 621 28 -28 31 84 125 callgsubr
          -40 89 hintmask 10000010
          -28 callsubr
          hintmask 01000100
          2 callgsubr
          hintmask 00100000
          31 vlineto
          hintmask 01000010
          62 callgsubr
          hintmask 10100100
          -51 callsubr
          hintmask 00011000
          -245 866 -102 callsubr
        </CharString>
        <CharString name="Lambda">
          756 0 31 685 -20 hstem
          440 267 vstem
          707 hmoveto
          31 vlineto
          -61 -17 0 40 -14 hvcurveto
          -214 624 rlineto
          15 -5 -2 6 -17 hhcurveto
          -15 -2 -6 -13 -5 hvcurveto
          -205 -596 -11 -32 -20 -37 -71 -1 rlinecurve
          -31 vlineto
          93 3 113 -3 rlineto
          31 vlineto
          -52 -24 27 24 7 3 7 2 7 hvcurveto
          164 476 173 -503 rlineto
          1 -4 3 -6 -5 vvcurveto
          -30 -57 0 -27 vhcurveto
          -31 vlineto
          3 35 71 0 38 hhcurveto
          endchar
        </CharString>
        <CharString name="Lcaron">
          683 0 31 449 -21 145 79 -31 42 callgsubr
          -40 89 hintmask 10000010
          -28 callsubr
          hintmask 00100100
          -47 -2 7 33 hvcurveto
          533 vlineto
          hintmask 00010000
          46 callgsubr
          hlineto
          hintmask 00001000
          31 vlineto
          hintmask 00010010
          62 callgsubr
          hintmask 10001100
          -51 callsubr
          -74 604 rmoveto
          42 -15 37 -34 -26 -14 -20 -20 vhcurveto
          hintmask 01100000
          -19 13 -20 27 3 17 0 14 11 vhcurveto
          1 -5 0 -1 -8 vvcurveto
          -73 -46 -46 -8 -8 vhcurveto
          -7 -6 0 -1 -3 vvcurveto
          -4 3 -4 5 8 62 58 87 vhcurveto
          endchar
        </CharString>
        <CharString name="Lcedilla">
          11 callsubr
          hintmask 11101100
          -51 callsubr
          -210 -145 -99 callgsubr
        </CharString>
        <CharString name="Lcommaaccent">
          11 callsubr
          hintmask 00101100
          -51 callsubr
          hintmask 11000000
          -210 -145 -99 callgsubr
        </CharString>
        <CharString name="Ldot">
          683 0 31 324 106 191 42 callgsubr
          -40 89 195 106 hintmask 10000100
          -28 callsubr
          hintmask 00101000
          2 callgsubr
          hintmask 00010000
          31 vlineto
          hintmask 00100100
          62 callgsubr
          hintmask 11011010
          -51 callsubr
          1 408 rmoveto
          50 callsubr
        </CharString>
        <CharString name="Ldotbelow">
          683 97 callgsubr
          621 42 callgsubr
          -40 89 -7 106 hintmask 01000100
          -28 callsubr
          hintmask 00101000
          2 callgsubr
          hintmask 00010000
          31 vlineto
          hintmask 00100100
          62 callgsubr
          hintmask 01011000
          -51 callsubr
          hintmask 10000010
          -201 -147 rmoveto
          50 callsubr
        </CharString>
        <CharString name="Ldotbelowmacron">
          683 97 callgsubr
          621 28 -28 31 73 45 callsubr
          -40 89 -7 106 hintmask 01000010
          -28 callsubr
          hintmask 00100100
          2 callgsubr
          hintmask 00010000
          31 vlineto
          hintmask 00100010
          62 callgsubr
          hintmask 11010101
          -51 callsubr
          -201 -147 -100 callgsubr
          hintmask 00001000
          9 903 -25 callgsubr
        </CharString>
        <CharString name="Lslash">
          683 0 31 310 28 283 28 -28 31 hstemhm
          69 89 0 89 -40 89 hintmask 10000010
          -28 callsubr
          hintmask 01100100
          -47 -2 7 33 hvcurveto
          298 vlineto
          179 142 -20 26 -159 -126 rlineto
          193 139 callgsubr
          hlineto
          hintmask 00010000
          31 vlineto
          hintmask 00100010
          62 callgsubr
          hintmask 01010100
          -39 -78 -84 callsubr
          -264 vlineto
          hintmask 10001000
          -89 -71 22 -25 67 54 rlineto
          -221 67 callgsubr
          541 hlineto
          endchar
        </CharString>
        <CharString name="M">
          989 0 31 621 31 hstem
          162 28 276 28 251 81 vstem
          -61 callsubr
          endchar
        </CharString>
        <CharString name="Mdotbelow">
          989 97 callgsubr
          621 31 hstemhm
          162 28 252 106 -82 28 251 81 hintmask 01110110
          -61 callsubr
          hintmask 10001000
          -381 -147 rmoveto
          50 callsubr
        </CharString>
        <CharString name="Mu">
          989 0 31 621 31 hstem
          162 28 276 28 251 81 vstem
          -61 callsubr
          endchar
        </CharString>
        <CharString name="N">
          80 callsubr
          hstem
          76 callsubr
          vstem
          -95 callsubr
          endchar
        </CharString>
        <CharString name="Nacute">
          80 callsubr
          84 143 callsubr
          76 callsubr
          hintmask 11001100
          -95 callsubr
          hintmask 00110000
          -207 214 -102 callsubr
        </CharString>
        <CharString name="Ncaron">
          80 callsubr
          74 -21 133 -20 hstemhm
          76 callsubr
          hintmask 11001100
          -95 callsubr
          hintmask 00110000
          -200 201 -57 callgsubr
        </CharString>
        <CharString name="Ncedilla">
          814 23 callgsubr
          31 621 31 hstem
          76 callsubr
          vstem
          -95 callsubr
          -306 -797 -99 callgsubr
        </CharString>
        <CharString name="Ncommaaccent">
          814 23 callgsubr
          31 621 31 hstemhm
          76 callsubr
          hintmask 00111100
          -95 callsubr
          hintmask 11000000
          -306 -797 -99 callgsubr
        </CharString>
        <CharString name="Ndotaccent">
          80 callsubr
          53 106 149 callsubr
          hintmask 11010100
          -95 callsubr
          hintmask 00101000
          -298 137 rmoveto
          50 callsubr
        </CharString>
        <CharString name="Ndotbelow">
          94 callgsubr
          621 31 149 callsubr
          hintmask 01110100
          -95 callsubr
          hintmask 10001000
          -298 -799 rmoveto
          50 callsubr
        </CharString>
        <CharString name="Ntilde">
          80 callsubr
          53 45 4 45 hstemhm
          76 callsubr
          hintmask 11001100
          -95 callsubr
          hintmask 00110000
          -176 163 -106 callsubr
        </CharString>
        <CharString name="Nu">
          80 callsubr
          hstem
          76 callsubr
          vstem
          -95 callsubr
          endchar
        </CharString>
        <CharString name="O">
          12 callsubr
          25 hstem
          72 103 493 103 vstem
          -101 callgsubr
          endchar
        </CharString>
        <CharString name="OE">
          -50 callsubr
        </CharString>
        <CharString name="OE.dup">
          -50 callsubr
        </CharString>
        <CharString name="Oacute">
          12 callsubr
          25 62 -21 162 -91 callsubr
          -102 512 -102 callsubr
        </CharString>
        <CharString name="Obreve">
          12 callsubr
          25 41 38 134 -91 callsubr
          -90 564 -85 callsubr
        </CharString>
        <CharString name="Ocaron">
          12 callsubr
          25 52 -21 133 -55 callgsubr
          499 -57 callgsubr
        </CharString>
        <CharString name="Ocircumflex">
          12 callsubr
          25 52 -21 133 -55 callgsubr
          398 -46 callgsubr
        </CharString>
        <CharString name="Ocircumflexacute">
          12 callsubr
          25 52 -21 315 -55 callgsubr
          398 -67 callgsubr
        </CharString>
        <CharString name="Ocircumflexdotbelow">
          113 callgsubr
          25 125 callsubr
          194 106 193 103 hintmask 01111101
          -101 callgsubr
          -95 398 -92 callgsubr
          hintmask 10000010
          -86 -883 rmoveto
          50 callsubr
        </CharString>
        <CharString name="Ocircumflexgrave">
          12 callsubr
          25 52 -21 133 -55 callgsubr
          398 -69 callgsubr
        </CharString>
        <CharString name="Ocircumflexhookabove">
          12 callsubr
          25 52 -21 278 -55 callgsubr
          398 -92 callgsubr
          16 231 -107 callgsubr
        </CharString>
        <CharString name="Ocircumflextilde">
          12 callsubr
          25 52 -21 173 45 4 45 hstemhm
          72 103 493 103 hintmask 11000110
          -101 callgsubr
          hintmask 00111000
          -95 398 -92 callgsubr
          36 252 -106 callsubr
        </CharString>
        <CharString name="Odblgrave">
          12 callsubr
          25 62 -21 187 -91 callsubr
          -293 406 -93 callgsubr
        </CharString>
        <CharString name="Odieresis">
          12 callsubr
          25 31 96 hstemhm
          72 103 95 120 callsubr
          94 103 hintmask 11010010
          -101 callgsubr
          hintmask 00101100
          -302 430 -68 callsubr
        </CharString>
        <CharString name="Odotbelow">
          113 callgsubr
          25 hstemhm
          72 103 194 106 193 103 hintmask 01110100
          -101 callgsubr
          hintmask 10001000
          -193 -501 rmoveto
          50 callsubr
        </CharString>
        <CharString name="Ograve">
          12 callsubr
          25 62 -21 162 -91 callsubr
          -174 414 -71 callgsubr
        </CharString>
        <CharString name="Ohookabove">
          12 callsubr
          25 74 -21 145 -91 callsubr
          -168 502 -107 callgsubr
        </CharString>
        <CharString name="Ohorn">
          12 callsubr
          109 hstem
          72 103 492 103 vstem
          -87 callsubr
          endchar
        </CharString>
        <CharString name="Ohornacute">
          12 callsubr
          109 119 -20 hstemhm
          72 103 492 103 hintmask 11011000
          -87 callsubr
          hintmask 00100000
          -130 511 -102 callsubr
        </CharString>
        <CharString name="Ohorndotbelow">
          113 callgsubr
          109 hstemhm
          72 103 194 106 192 103 hintmask 01110100
          -87 callsubr
          hintmask 10001000
          -192 -502 rmoveto
          50 callsubr
        </CharString>
        <CharString name="Ohorngrave">
          12 callsubr
          109 119 -20 hstemhm
          72 103 492 103 hintmask 11011000
          -87 callsubr
          hintmask 00100000
          -173 413 -71 callgsubr
        </CharString>
        <CharString name="Ohornhookabove">
          12 callsubr
          109 114 -20 hstemhm
          72 103 492 103 hintmask 11011000
          -87 callsubr
          hintmask 00100000
          -167 501 -107 callgsubr
        </CharString>
        <CharString name="Ohorntilde">
          12 callsubr
          109 -53 45 4 45 hstemhm
          72 103 492 103 hintmask 01000000
          770 339 rmoveto
          96 -36 93 -66 70 vhcurveto
          -9 9 -8 8 -10 8 rrcurveto
          42 12 27 43 48 vvcurveto
          33 -21 30 -32 vhcurveto
          hintmask 10101100
          -35 -17 128 callsubr
          35 5 5 1 1 4 hvcurveto
          -11 -21 -20 -16 -23 -6 rrcurveto
          41 -57 -68 22 -71 hhcurveto
          -93 -89 -39 -68 -65 hvcurveto
          -66 -70 -36 -93 -96 vvcurveto
          -95 36 -92 66 -68 vhcurveto
          -67 65 89 -39 93 hhcurveto
          93 89 39 67 65 hvcurveto
          66 68 36 92 95 vvcurveto
          -103 16 rmoveto
          -88 -15 -90 -51 -72 vhcurveto
          -60 -42 -65 -41 -73 hhcurveto
          -73 -65 41 60 -42 hvcurveto
          -51 72 -15 90 88 vvcurveto
          83 16 83 50 65 vhcurveto
          hintmask 01000100
          57 43 66 37 71 hhcurveto
          72 65 -37 -57 43 hvcurveto
          50 -65 16 -83 -83 vvcurveto
          hintmask 00110000
          -70 460 -106 callsubr
        </CharString>
        <CharString name="Ohungarumlaut">
          12 callsubr
          25 62 -21 187 -91 callsubr
          -67 544 -72 callgsubr
        </CharString>
        <CharString name="Omacron">
          12 callsubr
          25 51 31 hstemhm
          72 103 493 103 hintmask 11011000
          -101 callgsubr
          hintmask 00100000
          -57 402 -25 callgsubr
        </CharString>
        <CharString name="Omega">
          -36 callsubr
        </CharString>
        <CharString name="Omicron">
          12 callsubr
          25 hstem
          72 103 493 103 vstem
          -101 callgsubr
          endchar
        </CharString>
        <CharString name="Oogonek">
          844 -22 26 -25 25 676 25 hstemhm
          72 103 269 103 121 103 hintmask 01111000
          771 339 rmoveto
          205 -160 161 -189 -193 -157 -163 -203 -191 142 -153 177 -16 vhcurveto
          -8 -7 -7 -8 -7 -9 rrcurveto
          -13 -18 -8 -20 -22 -56 callgsubr
          17 8 16 12 15 hvcurveto
          hintmask 10110100
          29 callsubr
          endchar
        </CharString>
        <CharString name="Oogonekacute">
          844 -22 26 -25 25 676 25 127 callsubr
          269 103 121 103 hintmask 01100110
          771 339 rmoveto
          205 -160 161 -189 -193 -157 -163 -203 -191 142 -153 177 -16 vhcurveto
          -8 -7 -7 -8 -7 -9 rrcurveto
          -13 -18 -8 -20 -22 -56 callgsubr
          17 8 16 12 15 hvcurveto
          hintmask 10100101
          29 callsubr
          hintmask 00011000
          -102 512 -102 callsubr
        </CharString>
        <CharString name="Orogate">
          844 72 103 236 22 235 103 vstem
          771 339 rmoveto
          201 -154 159 -184 6 vhcurveto
          173 -22 -173 vlineto
          -188 -6 -151 -161 -199 vvcurveto
          -198 153 -157 186 -6 vhcurveto
          -172 22 172 vlineto
          187 7 151 158 196 vvcurveto
          -103 15 rmoveto
          -261 -144 -89 -102 -108 -139 94 256 244 145 82 101 105 142 -85 -241 vhcurveto
          endchar
        </CharString>
        <CharString name="Oslash">
          844 -22 22 683 22 hstem
          72 89 521 89 vstem
          -56 callsubr
          endchar
        </CharString>
        <CharString name="Oslash.dup">
          844 -22 22 683 22 hstem
          72 89 521 89 vstem
          -56 callsubr
          endchar
        </CharString>
        <CharString name="Oslashacute">
          844 -22 22 683 22 116 callgsubr
          89 521 89 hintmask 11001100
          -56 callsubr
          hintmask 00110000
          -116 527 -102 callsubr
        </CharString>
        <CharString name="Otilde">
          12 callsubr
          25 31 45 4 45 -92 callsubr
          -71 461 -106 callsubr
        </CharString>
        <CharString name="P">
          -22 callgsubr
        </CharString>
        <CharString name="Phi">
          786 63 callsubr
          hstem
          72 100 176 83 182 100 vstem
          713 341 rmoveto
          111 -132 86 -150 11 vhcurveto
          55 62 callsubr
          -56 vlineto
          -161 -14 -115 -92 -100 vvcurveto
          -105 119 -89 157 -13 57 callsubr
          55 vlineto
          154 11 128 89 107 vvcurveto
          -100 1 rmoveto
          -123 -79 -51 -103 -11 vhcurveto
          369 vlineto
          97 -10 85 -47 -127 vvcurveto
          -265 -184 rmoveto
          -103 12 -73 54 117 vvcurveto
          118 72 54 104 12 vhcurveto
          endchar
        </CharString>
        <CharString name="Pi">
          30 callgsubr
          -28 28 618 45 callsubr
          319 89 hintmask 01111000
          758 92 callsubr
          -703 -31 24 hlineto
          111 callsubr
          hintmask 10000000
          -31 vlineto
          66 callsubr
          hintmask 10111000
          72 callgsubr
          -40 callgsubr
          571 319 -571 67 callgsubr
          hlineto
          66 callsubr
          hintmask 10000000
          72 callgsubr
          endchar
        </CharString>
        <CharString name="Psi">
          844 3 28 484 28 109 28 hstem
          147 83 147 83 153 83 vstem
          770 543 rmoveto
          11 -8 0 -16 vhcurveto
          -38 hlineto
          -68 -26 -52 -102 -1 hvcurveto
          -1 -88 -24 -125 -128 -28 rrcurveto
          445 62 callsubr
          -444 vlineto
          -146 31 -1 169 57 vvcurveto
          37 -7 31 -15 30 vhcurveto
          39 -21 -36 0 -16 hhcurveto
          -37 hlineto
          -15 -10 0 -11 -5 3 -5 6 -1 hvcurveto
          36 -4 28 -19 1 -116 rrcurveto
          -49 16 -183 214 -26 57 callsubr
          56 vlineto
          211 22 24 176 1 60 rrcurveto
          46 1 84 59 9 vhcurveto
          8 1 6 1 9 vvcurveto
          endchar
        </CharString>
        <CharString name="Q">
          844 -194 103 69 25 -13 25 -22 22 -12 22 101 22 532 25 hstemhm
          72 100 166 22 62 100 149 100 -16 22 hintmask 1001000000010000
          777 -10 rmoveto
          10 0 11 -11 -9 -1 -7 -11 -1 vhcurveto
          -58 -7 -48 -26 -41 hhcurveto
          -46 -26 29 68 -30 hvcurveto
          hintmask 0100001101100000
          113 48 101 123 162 vvcurveto
          205 -160 161 -189 -193 -157 -163 -203 -200 157 -161 193 vhcurveto
          hintmask 1001000001000000
          53 47 15 0 hvcurveto
          -94 18 17 -93 93 hhcurveto
          hintmask 0010011110010000
          104 23 131 53 hvcurveto
          -106 349 rmoveto
          -99 -24 -128 -105 -71 vhcurveto
          60 -28 -32 47 -59 hhcurveto
          -51 -34 -41 -43 -25 12 -19 3 -5 hvcurveto
          -76 26 -105 86 212 vvcurveto
          250 143 91 106 vhcurveto
          hintmask 0000110011100000
          111 139 -95 -246 hvcurveto
          -157 -314 rmoveto
          -21 -41 -38 -1 -13 hhcurveto
          -53 -9 45 16 30 23 32 40 60 20 -53 -48 11 hvcurveto
          endchar
        </CharString>
        <CharString name="R">
          800 -22 32 callgsubr
          hstem
          57 103 0 86 0 103 cntrmask 00001110
          782 88 rmoveto
          6 0 11 -13 -11 0 -9 -7 -1 vhcurveto
          -89 callsubr
          125 vlineto
          -60 callsubr
          -28 callgsubr
          -2 callsubr
          endchar
        </CharString>
        <CharString name="Racute">
          800 -22 32 callgsubr
          84 -21 162 -76 callsubr
          hintmask 0000110000000000
          -7 363 -102 callsubr
        </CharString>
        <CharString name="Rcaron">
          800 -22 32 callgsubr
          74 -21 133 -76 callsubr
          hintmask 0000110000001000
          350 vmoveto
          -10 16 -140 -66 -140 66 -12 -16 151 -117 rlineto
          endchar
        </CharString>
        <CharString name="Rcedilla">
          800 8 callgsubr
          44 32 callgsubr
          hstemhm
          57 103 0 86 0 86 -86 103 18 103 -99 103 77 103 0 103 -74 86 hintmask 0000000000000010
          782 88 rmoveto
          6 0 11 -13 vhcurveto
          hintmask 0011111001100100
          -11 0 -9 -7 -1 hvcurveto
          -89 callsubr
          vlineto
          hintmask 0010100000010010
          125 hlineto
          -60 callsubr
          hintmask 0000100100100000
          -28 callgsubr
          hintmask 1100010010101000
          -2 callsubr
          -106 -648 -99 callgsubr
        </CharString>
        <CharString name="Rcommaaccent">
          800 8 callgsubr
          44 32 callgsubr
          hstemhm
          57 103 0 86 0 86 -86 103 18 103 -99 103 77 103 0 103 -74 86 hintmask 0000000000000010
          782 88 rmoveto
          6 0 11 -13 vhcurveto
          hintmask 0011111001100100
          -11 0 -9 -7 -1 hvcurveto
          -89 callsubr
          vlineto
          hintmask 0010100000010010
          125 hlineto
          -60 callsubr
          hintmask 0000100100100000
          -28 callgsubr
          hintmask 0000010010001000
          -2 callsubr
          hintmask 1100000000100000
          -106 -648 -99 callgsubr
        </CharString>
        <CharString name="Rdblgrave">
          800 -22 32 callgsubr
          84 -21 187 -76 callsubr
          hintmask 0000110000100000
          -228 257 -93 callgsubr
        </CharString>
        <CharString name="Rdotaccent">
          800 -22 32 callgsubr
          75 106 51 callsubr
          hintmask 1111010010100100
          -73 callgsubr
          hintmask 0010001000100000
          -28 callgsubr
          hintmask 0001000100001000
          -2 callsubr
          hintmask 0000100001000000
          -98 308 rmoveto
          50 callsubr
        </CharString>
        <CharString name="Rdotbelow">
          800 -200 106 72 32 callgsubr
          51 callsubr
          hintmask 0111110010100100
          -11 0 -9 -7 -1 hvcurveto
          -89 callsubr
          vlineto
          hintmask 0101000000010010
          125 hlineto
          -60 callsubr
          hintmask 0001001000100000
          -28 callgsubr
          hintmask 0000100100001000
          -2 callsubr
          hintmask 1000000001000000
          -98 -650 rmoveto
          50 callsubr
        </CharString>
        <CharString name="Rdotbelowmacron">
          800 -200 106 72 32 callgsubr
          73 31 hstemhm
          57 103 0 86 0 86 -86 103 -2 106 -86 103 -99 103 77 103 0 103 -74 86 hintmask 0000000000000001
          782 88 rmoveto
          6 0 11 -13 vhcurveto
          hintmask 0111101001010010
          -11 0 -9 -7 -1 hvcurveto
          -89 callsubr
          vlineto
          hintmask 0101000000001001
          125 hlineto
          -60 callsubr
          hintmask 0001000100010000
          -28 callgsubr
          hintmask 1000100010100100
          -2 callsubr
          -98 -650 -100 callgsubr
          hintmask 0000010000000000
          136 903 -25 callgsubr
        </CharString>
        <CharString name="Rho">
          -22 callgsubr
        </CharString>
        <CharString name="S">
          611 -22 59 callsubr
          hstem
          72 64 338 64 vstem
          538 185 rmoveto
          -98 callsubr
          endchar
        </CharString>
        <CharString name="S_S">
          1222 -22 59 callsubr
          hstem
          72 64 338 64 145 64 338 64 vstem
          538 185 rmoveto
          -98 callsubr
          611 hmoveto
          -98 callsubr
          endchar
        </CharString>
        <CharString name="Sacute">
          611 -22 59 callsubr
          116 callgsubr
          64 338 64 hintmask 11100110
          538 185 rmoveto
          -98 callsubr
          hintmask 00011000
          -89 681 -102 callsubr
        </CharString>
        <CharString name="Scaron">
          611 -22 59 callsubr
          138 callsubr
          64 338 64 hintmask 11100110
          538 185 rmoveto
          -98 callsubr
          hintmask 00011000
          -82 668 -57 callgsubr
        </CharString>
        <CharString name="Scedilla">
          611 -22 150 callgsubr
          -17 64 291 64 hintmask 01110000
          538 185 rmoveto
          80 -48 95 -110 27 vhcurveto
          -136 33 rlineto
          -87 21 -21 69 36 vvcurveto
          68 57 63 85 138 53 -101 -102 14 vhcurveto
          -13 2 0 -5 11 42 callsubr
          201 vlineto
          17 0 7 -11 -7 0 -1 -12 -8 vhcurveto
          -37 -59 rlineto
          27 -27 -46 45 -96 hhcurveto
          -116 -89 -88 -106 hvcurveto
          hintmask 10001100
          -64 34 -45 13 -15 vhcurveto
          47 -49 30 -7 83 -20 16 -4 17 -3 16 -4 59 -14 20 -5 31 -34 rrcurveto
          6 -7 30 -34 -54 vvcurveto
          -71 -53 -72 -91 -42 -67 8 43 -55 vhcurveto
          -65 51 -3 73 -1 34 rrcurveto
          7 -1 -6 2 -5 hhcurveto
          hintmask 10010000
          37 callsubr
          -200 vlineto
          -17 0 -7 11 7 2 3 9 6 vhcurveto
          37 60 23 -24 48 -33 74 -11 rlinecurve
          -74 vlineto
          42 48 -4 -37 -41 -113 0 -87 hvcurveto
          -13 -26 hlineto
          hintmask 10001100
          26 hlineto
          120 151 0 67 51 -63 16 -59 hvcurveto
          44 vlineto
          124 82 101 106 hvcurveto
          endchar
        </CharString>
        <CharString name="Scircumflex">
          611 -22 59 callsubr
          138 callsubr
          64 338 64 hintmask 11100110
          538 185 rmoveto
          -98 callsubr
          hintmask 00011000
          -82 567 -46 callgsubr
        </CharString>
        <CharString name="Sdotbelow">
          611 -200 106 72 150 callgsubr
          117 106 115 64 hintmask 01111010
          538 185 rmoveto
          -98 callsubr
          hintmask 10000100
          -179 -332 rmoveto
          50 callsubr
        </CharString>
        <CharString name="Sigma">
          786 0 42 -31 31 610 31 hstemhm
          hintmask 01100000
          713 236 rmoveto
          -25 hlineto
          -174 -19 -81 -20 -155 hhcurveto
          -294 hlineto
          260 283 rlineto
          0 10 11 6 vvcurveto
          3 -2 4 -4 5 vhcurveto
          -216 298 rlineto
          249 hlineto
          159 73 -24 -170 20 116 callsubr
          -587 hlineto
          -24 -2 0 -23 hvcurveto
          261 -361 -250 -272 rlineto
          -9 -10 -1 -1 -5 vvcurveto
          hintmask 10000000
          -11 10 0 15 vhcurveto
          587 hlineto
          endchar
        </CharString>
        <CharString name="T">
          95 callgsubr
          hstem
          102 callgsubr
          vstem
          -88 callgsubr
          endchar
        </CharString>
        <CharString name="T_uni0303">
          95 callgsubr
          59 45 4 45 hstemhm
          102 callgsubr
          hintmask 11001100
          -88 callgsubr
          hintmask 00110000
          -140 363 -106 callsubr
        </CharString>
        <CharString name="T_uni0308">
          95 callgsubr
          59 96 hstemhm
          241 96 11 89 12 96 163 15 hintmask 11001010
          -88 callgsubr
          hintmask 00110100
          -371 332 -68 callsubr
        </CharString>
        <CharString name="Tau">
          95 callgsubr
          hstem
          102 callgsubr
          vstem
          -88 callgsubr
          endchar
        </CharString>
        <CharString name="Tcaron">
          95 callgsubr
          80 -21 133 -20 hstemhm
          102 callgsubr
          hintmask 11001100
          -88 callgsubr
          hintmask 00110000
          -164 401 -57 callgsubr
        </CharString>
        <CharString name="Tcedilla">
          786 -200 26 82 26 66 151 callsubr
          hstemhm
          348 89 -70 52 39 84 166 15 hintmask 00111000
          733 452 rmoveto
          -19 225 rlineto
          -643 hlineto
          -19 -225 rlineto
          25 hlineto
          168 14 20 26 157 hhcurveto
          19 29 0 -2 10 hvcurveto
          22 -3 0 -12 -23 vvcurveto
          -527 vlineto
          -34 0 -14 -105 vhcurveto
          -40 -31 hlineto
          hintmask 11100110
          3 35 77 0 52 hhcurveto
          -95 -3 callsubr
          51 -63 16 -60 hvcurveto
          69 vlineto
          51 78 0 -3 34 hvcurveto
          31 -40 vlineto
          hintmask 00011001
          -105 0 14 34 hvcurveto
          527 vlineto
          23 0 12 22 3 vhcurveto
          2 10 29 0 19 hhcurveto
          156 21 -26 -168 14 hvcurveto
          endchar
        </CharString>
        <CharString name="Tdotbelow">
          786 97 callgsubr
          615 31 hstemhm
          340 106 -98 89 271 15 hintmask 01101100
          -88 callgsubr
          hintmask 10010000
          -262 -599 rmoveto
          50 callsubr
        </CharString>
        <CharString name="Theta">
          844 -22 23 303 76 303 22 hstem
          72 97 59 25 337 25 59 97 vstem
          771 339 rmoveto
          205 -160 161 -189 -193 -157 -163 -203 -202 159 -159 190 193 157 161 200 vhcurveto
          -97 hmoveto
          -247 -144 -91 -108 -113 -140 96 242 250 144 94 108 113 140 -98 -246 vhcurveto
          -59 -69 rmoveto
          144 -25 -34 -337 34 -25 -144 25 34 337 -34 vlineto
          endchar
        </CharString>
        <CharString name="Thorn">
          683 0 31 147 31 313 31 99 31 hstem
          161 83 266 100 vstem
          610 365 rmoveto
          92 -83 96 -142 vhcurveto
          -141 52 hlineto
          36 2 11 77 vhcurveto
          24 31 hlineto
          -144 -3 -145 3 rlineto
          -67 callsubr
          -527 67 callgsubr
          hlineto
          144 3 145 -3 rlineto
          -40 callgsubr
          100 152 vlineto
          116 98 84 103 hvcurveto
          -100 1 rmoveto
          -77 -55 -80 -95 vhcurveto
          -116 313 122 hlineto
          114 30 -104 -52 hvcurveto
          endchar
        </CharString>
        <CharString name="Tlinebelow">
          786 -162 31 131 151 callsubr
          hstemhm
          102 callgsubr
          hintmask 01111000
          -88 callgsubr
          hintmask 10000000
          -126 -614 -25 callgsubr
        </CharString>
        <CharString name="U">
          16 callgsubr
          hstem
          158 89 377 31 vstem
          -104 callgsubr
          endchar
        </CharString>
        <CharString name="U_uni032F">
          814 -212 152 callsubr
          39 31 643 31 59 callgsubr
          hintmask 00111100
          -104 callgsubr
          hintmask 11000000
          -171 -885 -44 callgsubr
        </CharString>
        <CharString name="Uacute">
          16 callgsubr
          84 125 callgsubr
          377 31 hintmask 11001100
          -104 callgsubr
          hintmask 00110000
          -183 214 -102 callsubr
        </CharString>
        <CharString name="Ubreve">
          16 callgsubr
          63 38 134 -20 59 callgsubr
          hintmask 11001100
          -104 callgsubr
          hintmask 00110000
          -171 266 -85 callsubr
        </CharString>
        <CharString name="Ucaron">
          16 callgsubr
          74 -21 133 -20 59 callgsubr
          hintmask 11001100
          -104 callgsubr
          hintmask 00110000
          -176 201 -57 callgsubr
        </CharString>
        <CharString name="Ucircumflex">
          16 callgsubr
          74 -21 133 -20 59 callgsubr
          hintmask 11001100
          -104 callgsubr
          hintmask 00110000
          -176 100 -46 callgsubr
        </CharString>
        <CharString name="Udblgrave">
          16 callgsubr
          84 -21 187 -20 59 callgsubr
          hintmask 11001100
          -104 callgsubr
          hintmask 00110000
          -374 108 -93 callgsubr
        </CharString>
        <CharString name="Udieresis">
          16 callgsubr
          53 96 -23 callsubr
          32 120 callsubr
          41 31 hintmask 11010010
          -104 callgsubr
          hintmask 00101100
          -19 callsubr
          endchar
        </CharString>
        <CharString name="Udieresisacute">
          16 callgsubr
          53 96 83 125 callgsubr
          32 120 callsubr
          41 31 hintmask 1100010010000000
          -104 callgsubr
          hintmask 0011101100000000
          -19 callsubr
          -8 230 -102 callsubr
        </CharString>
        <CharString name="Udieresiscaron">
          16 callgsubr
          53 96 73 -21 133 142 callgsubr
          32 120 callsubr
          41 31 hintmask 1100010010000000
          -104 callgsubr
          hintmask 0011101100000000
          -19 callsubr
          -1 217 -57 callgsubr
        </CharString>
        <CharString name="Udieresisgrave">
          16 callgsubr
          53 96 83 125 callgsubr
          32 120 callsubr
          41 31 hintmask 1100010010000000
          -104 callgsubr
          hintmask 0011101100000000
          -19 callsubr
          -80 132 -71 callgsubr
        </CharString>
        <CharString name="Udotbelow">
          814 -200 106 72 31 643 45 callsubr
          131 106 140 31 hintmask 01110100
          -104 callgsubr
          hintmask 10001000
          -274 -799 rmoveto
          50 callsubr
        </CharString>
        <CharString name="Ugrave">
          16 callgsubr
          84 125 callgsubr
          377 31 hintmask 11001100
          -104 callgsubr
          hintmask 00110000
          -255 116 -71 callgsubr
        </CharString>
        <CharString name="Uhookabove">
          16 callgsubr
          96 -21 145 -20 59 callgsubr
          hintmask 11001100
          -104 callgsubr
          hintmask 00110000
          -249 204 -107 callgsubr
        </CharString>
        <CharString name="Uhorn">
          33 callsubr
          106 41 callgsubr
          hintmask 0000110010000000
          56 callgsubr
          21 callgsubr
          vhcurveto
          69 callgsubr
          hintmask 0001000000000000
          -2 118 callgsubr
          hintmask 0100100001000000
          -118 3 rlineto
          -30 vlineto
          27 27 -2 -14 23 hvcurveto
          16 -11 9 -18 -19 vvcurveto
          -361 vlineto
          hintmask 1000000110000000
          -59 -20 -56 -38 -42 vhcurveto
          -40 -38 -52 -23 -55 hhcurveto
          -50 -48 23 40 -31 hvcurveto
          hintmask 0011001000000000
          -32 40 -12 53 64 vvcurveto
          389 vlineto
          12 5 13 12 5 vhcurveto
          6 17 39 0 29 hhcurveto
          hintmask 0000100000000000
          30 vlineto
          hintmask 0001000100000000
          -147 -3 rlineto
          hintmask 1010101010000000
          -147 3 rlineto
          -30 vlineto
          29 40 0 -6 17 hvcurveto
          12 -5 5 -13 -12 vvcurveto
          -389 vlineto
          -67 28 -64 49 -46 vhcurveto
          -47 50 66 -26 69 hhcurveto
          63 60 27 46 43 hvcurveto
          44 48 24 63 66 vvcurveto
          hintmask 0100000010000000
          382 vlineto
          62 7 52 46 62 vvcurveto
          endchar
        </CharString>
        <CharString name="Uhornacute">
          33 callsubr
          84 -21 43 -20 139 41 callgsubr
          hintmask 0000101000100000
          56 callgsubr
          21 callgsubr
          vhcurveto
          -83 callgsubr
          hintmask 0000010100000000
          -223 141 -102 callsubr
        </CharString>
        <CharString name="Uhorndotbelow">
          814 -200 106 72 30 602 27 -20 30 6 27 -27 30 106 142 callgsubr
          -45 89 63 106 105 89 -31 31 hintmask 0000011000100000
          56 callgsubr
          21 callgsubr
          vhcurveto
          69 callgsubr
          hintmask 0000100000000000
          -2 118 callgsubr
          hintmask 0010010000010000
          -118 3 rlineto
          -30 vlineto
          27 27 -2 -14 23 hvcurveto
          16 -11 9 -18 -19 vvcurveto
          -361 vlineto
          hintmask 0100000010100000
          -59 -20 -56 -38 -42 vhcurveto
          -40 -38 -52 -23 -55 hhcurveto
          -50 -48 23 40 -31 hvcurveto
          hintmask 0001100100000000
          -32 40 -12 53 64 vvcurveto
          389 vlineto
          12 5 13 12 5 vhcurveto
          6 17 39 0 29 hhcurveto
          hintmask 0000010000000000
          30 vlineto
          hintmask 0000100010000000
          -147 -3 rlineto
          hintmask 0101010100100000
          -147 3 rlineto
          -30 vlineto
          29 40 0 -6 17 hvcurveto
          12 -5 5 -13 -12 vvcurveto
          -389 vlineto
          -67 28 -64 49 -46 vhcurveto
          -47 50 66 -26 69 hhcurveto
          63 60 27 46 43 hvcurveto
          44 48 24 63 66 vvcurveto
          hintmask 0010000000100000
          382 vlineto
          62 7 52 46 62 vvcurveto
          hintmask 1000000001000000
          -308 -872 rmoveto
          50 callsubr
        </CharString>
        <CharString name="Uhorngrave">
          33 callsubr
          84 -21 43 -20 139 41 callgsubr
          hintmask 0000101000100000
          56 callgsubr
          21 callgsubr
          vhcurveto
          -83 callgsubr
          hintmask 0000010100000000
          -265 43 -71 callgsubr
        </CharString>
        <CharString name="Uhornhookabove">
          33 callsubr
          96 -21 31 -20 134 41 callgsubr
          hintmask 0000101000100000
          56 callgsubr
          21 callgsubr
          vhcurveto
          -83 callgsubr
          hintmask 0000010100000000
          -259 131 -107 callgsubr
        </CharString>
        <CharString name="Uhorntilde">
          33 callsubr
          53 45 4 45 -41 41 callgsubr
          hintmask 0000000100000000
          56 callgsubr
          vhcurveto
          hintmask 0000110000100000
          21 callgsubr
          hvcurveto
          -83 callgsubr
          hintmask 0000011000000000
          -162 90 -106 callsubr
        </CharString>
        <CharString name="Uhungarumlaut">
          16 callgsubr
          84 -21 187 -20 59 callgsubr
          hintmask 11001100
          -104 callgsubr
          hintmask 00110000
          -148 246 -72 callgsubr
        </CharString>
        <CharString name="Umacron">
          16 callgsubr
          73 31 59 callgsubr
          hintmask 11011000
          -104 callgsubr
          hintmask 00100000
          -138 104 -25 callgsubr
        </CharString>
        <CharString name="Uogonek">
          814 -184 40 122 97 callsubr
          hstem
          158 89 86 89 202 31 vstem
          758 652 rmoveto
          31 vlineto
          -118 -3 101 callsubr
          103 0 -47 -27 hvcurveto
          -347 vlineto
          -141 -101 -81 -101 -54 -121 29 188 vhcurveto
          379 -46 callsubr
          hlineto
          -3 -35 -74 0 -38 hhcurveto
          -38 -75 -84 callsubr
          -376 vlineto
          -128 98 -101 122 -19 vhcurveto
          -9 -8 -8 -9 -7 -9 rrcurveto
          -13 -18 -8 -20 -22 -56 callgsubr
          17 9 16 12 15 hvcurveto
          3 5 5 4 4 4 rrcurveto
          12 hlineto
          150 85 138 99 hvcurveto
          360 vlineto
          31 0 46 103 vhcurveto
          endchar
        </CharString>
        <CharString name="Upsilon">
          844 3 28 597 77 hstem
          377 89 vstem
          771 552 rmoveto
          63 -45 90 -92 -124 -68 -120 -129 -20 vhcurveto
          -1 hlineto
          161 -28 -78 88 -106 hhcurveto
          -92 -45 -90 -63 -8 0 -9 16 14 0 8 5 1 hvcurveto
          80 8 93 0 4 hhcurveto
          130 39 -167 -113 hvcurveto
          -269 vlineto
          -34 0 -14 -95 vhcurveto
          -33 -31 hlineto
          3 36 95 0 41 hhcurveto
          41 96 40 callgsubr
          269 vlineto
          118 41 162 128 17 80 -7 -71 8 vhcurveto
          -8 1 1 -7 13 hhcurveto
          16 0 9 8 hvcurveto
          endchar
        </CharString>
        <CharString name="Uring">
          16 callgsubr
          33 121 callgsubr
          -23 callsubr
          84 33 134 33 93 31 hintmask 11001001
          -104 callgsubr
          hintmask 00110110
          -260 152 -55 callsubr
        </CharString>
        <CharString name="Utilde">
          16 callgsubr
          53 45 4 45 59 callgsubr
          hintmask 11001100
          -104 callgsubr
          hintmask 00110000
          -152 163 -106 callsubr
        </CharString>
        <CharString name="V">
          814 -1 -21 605 31 38 31 hstem
          568 211 vstem
          779 652 rmoveto
          31 vlineto
          -2 -31 151 callgsubr
          -114 3 rlineto
          -31 vlineto
          57 -1 14 -30 -18 vvcurveto
          -5 0 -2 -6 -13 vhcurveto
          -197 -490 -207 513 rlineto
          -2 4 -3 9 4 vvcurveto
          29 53 0 28 vhcurveto
          31 vlineto
          -3 -35 -71 0 -38 hhcurveto
          -127 3 rlineto
          -31 vlineto
          77 8 -4 -34 14 hvcurveto
          249 -616 rlineto
          -14 6 2 -6 16 hhcurveto
          17 2 5 15 6 hvcurveto
          237 589 rlineto
          65 26 66 0 19 hhcurveto
          endchar
        </CharString>
        <CharString name="W">
          48 callgsubr
          hstemhm
          538 69 255 210 hintmask 01011100
          -82 callsubr
          hintmask 10110100
          -52 callsubr
          endchar
        </CharString>
        <CharString name="Wacute">
          48 callgsubr
          84 143 callsubr
          538 69 255 210 hintmask 01010011
          -82 callsubr
          hintmask 10110001
          -52 callsubr
          hintmask 00001100
          -376 214 -102 callsubr
        </CharString>
        <CharString name="Wcircumflex">
          48 callgsubr
          74 -21 133 -20 hstemhm
          538 69 255 210 hintmask 01010011
          -82 callsubr
          hintmask 10110001
          -52 callsubr
          hintmask 00001100
          -369 100 -46 callgsubr
        </CharString>
        <CharString name="Wdieresis">
          48 callgsubr
          53 96 hstemhm
          400 96 42 69 1 96 158 210 hintmask 0101001010000000
          -82 callsubr
          hintmask 1011000010000000
          -52 callsubr
          hintmask 0000110100000000
          -576 35 callsubr
        </CharString>
        <CharString name="Wgrave">
          48 callgsubr
          84 143 callsubr
          538 69 255 210 hintmask 01010011
          -82 callsubr
          hintmask 10110001
          -52 callsubr
          hintmask 00001100
          -448 116 -71 callgsubr
        </CharString>
        <CharString name="X">
          -42 callgsubr
        </CharString>
        <CharString name="Xi">
          728 0 70 247 70 220 70 hstemhm
          58 25 -19 25 71 25 357 25 63 25 -17 25 -19 25 hintmask 0010100100000000
          663 521 rmoveto
          -8 156 rlineto
          -583 hlineto
          -8 -156 rlineto
          25 hlineto
          1 20 2 43 10 14 rrcurveto
          9 5 62 0 11 hhcurveto
          367 hlineto
          0 71 0 6 -8 vhcurveto
          hintmask 0100011010000000
          11 -12 2 -47 1 -19 rrcurveto
          -71 -255 rmoveto
          172 -25 -51 -357 51 -25 -172 25 51 357 -51 vlineto
          127 -99 rmoveto
          hintmask 0000000001000000
          -25 hlineto
          hintmask 1001000100000000
          -2 -43 -2 -33 -10 -12 rrcurveto
          -9 -6 -73 0 -3 hhcurveto
          -369 hlineto
          -25 -53 0 11 -6 hvcurveto
          -8 15 -2 29 -2 42 rrcurveto
          -25 hlineto
          8 -167 rlineto
          595 hlineto
          hintmask 0000000001000000
          endchar
        </CharString>
        <CharString name="Y">
          22 callgsubr
          hstemhm
          363 86 125 213 hintmask 00010100
          787 652 rmoveto
          31 vlineto
          hintmask 00100000
          144 callgsubr
          -27 hhcurveto
          hintmask 00010100
          -54 callgsubr
          hintmask 01011000
          -131 3 rlineto
          -31 19 vlineto
          55 19 -7 -27 18 hvcurveto
          226 -345 rlineto
          -195 -7 callgsubr
          hintmask 10000000
          -31 vlineto
          hintmask 01000000
          3 36 71 0 39 hhcurveto
          hintmask 10101100
          -44 callsubr
          endchar
        </CharString>
        <CharString name="Yacute">
          22 callgsubr
          84 -21 162 -20 -80 callgsubr
          -236 214 -102 callsubr
        </CharString>
        <CharString name="Ycircumflex">
          22 callgsubr
          74 -21 133 -20 -80 callgsubr
          -229 100 -46 callgsubr
        </CharString>
        <CharString name="Ydieresis">
          22 callgsubr
          53 96 hstemhm
          255 96 12 86 14 96 15 213 hintmask 0001000010000000
          787 652 rmoveto
          31 vlineto
          hintmask 0010000000000000
          144 callgsubr
          -27 hhcurveto
          hintmask 0001000010000000
          -59 callgsubr
          hintmask 0010000000000000
          -3 -35 -75 0 -38 hhcurveto
          hintmask 0101001000000000
          -131 3 rlineto
          -31 19 vlineto
          55 19 -7 -27 18 hvcurveto
          226 -345 rlineto
          -195 -7 callgsubr
          hintmask 1000000000000000
          -31 vlineto
          hintmask 0100000000000000
          3 36 71 0 39 hhcurveto
          hintmask 1010001010000000
          -44 callsubr
          hintmask 0000110100000000
          -436 35 callsubr
        </CharString>
        <CharString name="Ydotbelow">
          94 callgsubr
          -28 89 callsubr
          -28 31 hstemhm
          354 106 -97 86 125 213 hintmask 00001001
          787 652 rmoveto
          31 vlineto
          hintmask 00010000
          144 callgsubr
          -27 hhcurveto
          hintmask 00001001
          -59 callgsubr
          hintmask 00010000
          -3 -35 -75 0 -38 hhcurveto
          hintmask 00101010
          -131 3 rlineto
          -31 19 vlineto
          55 19 -7 -27 18 hvcurveto
          226 -345 rlineto
          -195 -7 callgsubr
          hintmask 01000000
          -31 vlineto
          hintmask 00100000
          3 36 71 0 39 hhcurveto
          hintmask 01010011
          -44 callsubr
          hintmask 10000100
          -327 -799 rmoveto
          50 callsubr
        </CharString>
        <CharString name="Ygrave">
          22 callgsubr
          84 -21 162 -20 -80 callgsubr
          -308 116 -71 callgsubr
        </CharString>
        <CharString name="Yhookabove">
          22 callgsubr
          96 -21 145 -20 -79 callsubr
          hintmask 00001110
          -302 204 -107 callgsubr
        </CharString>
        <CharString name="Ytilde">
          22 callgsubr
          53 45 4 45 -80 callgsubr
          -205 163 -106 callsubr
        </CharString>
        <CharString name="Z">
          95 callsubr
          hstem
          577 16 vstem
          -72 callsubr
          endchar
        </CharString>
        <CharString name="Zacute">
          95 callsubr
          84 143 callsubr
          577 16 hintmask 11001000
          -72 callsubr
          hintmask 00110000
          -107 866 -102 callsubr
        </CharString>
        <CharString name="Zcaron">
          95 callsubr
          74 -21 133 -20 hstemhm
          577 16 hintmask 11001000
          -72 callsubr
          hintmask 00110000
          -100 853 -57 callgsubr
        </CharString>
        <CharString name="Zdotaccent">
          95 callsubr
          75 106 hstemhm
          282 106 189 16 hintmask 11001000
          -72 callsubr
          hintmask 00110000
          -197 811 rmoveto
          50 callsubr
        </CharString>
        <CharString name="Zdotbelow">
          669 67 callsubr
          34 618 31 hstemhm
          282 106 189 16 hintmask 01101000
          -72 callsubr
          hintmask 10010000
          -197 -147 rmoveto
          50 callsubr
        </CharString>
        <CharString name="Zeta">
          95 callsubr
          hstem
          577 16 vstem
          -72 callsubr
          endchar
        </CharString>
        <CharString name="a">
          -16 callsubr
          hstem
          34 156 186 203 vstem
          -106 callgsubr
          endchar
        </CharString>
        <CharString name="aacute">
          -16 callsubr
          99 -21 189 -102 callgsubr
          153 307 -91 callgsubr
        </CharString>
        <CharString name="abreve">
          -16 callsubr
          87 38 134 -102 callgsubr
          52 callgsubr
          endchar
        </CharString>
        <CharString name="abreveacute">
          -16 callsubr
          87 38 316 -102 callgsubr
          52 callgsubr
          -49 140 -102 callsubr
        </CharString>
        <CharString name="abrevedotbelow">
          93 callsubr
          87 38 134 149 callgsubr
          hintmask 01111101
          -106 callgsubr
          52 callgsubr
          hintmask 10000010
          -102 -917 rmoveto
          50 callsubr
        </CharString>
        <CharString name="abrevegrave">
          -16 callsubr
          87 38 134 -102 callgsubr
          52 callgsubr
          -48 42 rmoveto
          -14 -22 -178 93 -6 4 -14 7 -3 16 rlinecurve
          22 -4 16 20 23 hhcurveto
          11 9 -6 -13 14 hvcurveto
          endchar
        </CharString>
        <CharString name="abrevehookabove">
          -16 callsubr
          87 38 279 -102 callgsubr
          52 callgsubr
          -78 98 -107 callgsubr
        </CharString>
        <CharString name="abrevetilde">
          -16 callsubr
          87 38 174 136 callgsubr
          hintmask 11000110
          -106 callgsubr
          hintmask 00111000
          52 callgsubr
          19 119 -106 callsubr
        </CharString>
        <CharString name="acaron">
          -16 callsubr
          106 -21 176 -102 callgsubr
          175 323 -63 callsubr
        </CharString>
        <CharString name="acircumflex">
          -16 callsubr
          106 -21 176 -102 callgsubr
          175 175 -68 callgsubr
          endchar
        </CharString>
        <CharString name="acircumflexacute">
          -16 callsubr
          106 -21 315 -102 callgsubr
          174 177 -67 callgsubr
        </CharString>
        <CharString name="acircumflexdotbelow">
          93 callsubr
          106 -21 176 149 callgsubr
          hintmask 01111101
          -106 callgsubr
          175 175 -68 callgsubr
          hintmask 10000010
          -85 -743 rmoveto
          50 callsubr
        </CharString>
        <CharString name="acircumflexgrave">
          -16 callsubr
          106 -21 133 -102 callgsubr
          174 177 -69 callgsubr
        </CharString>
        <CharString name="acircumflexhookabove">
          -16 callsubr
          106 -21 278 -102 callgsubr
          174 177 -92 callgsubr
          16 231 -107 callgsubr
        </CharString>
        <CharString name="acircumflextilde">
          -16 callsubr
          106 -21 173 136 callgsubr
          hintmask 11000110
          -106 callgsubr
          hintmask 00111000
          174 177 -92 callgsubr
          36 252 -106 callsubr
        </CharString>
        <CharString name="acute">
          553 527 103 callsubr
          hstem
          406 659 -91 callgsubr
        </CharString>
        <CharString name="acute.cap">
          553 514 -21 162 -20 hstem
          420 613 -102 callsubr
        </CharString>
        <CharString name="acute.dup">
          553 527 103 callsubr
          hstem
          406 659 -91 callgsubr
        </CharString>
        <CharString name="acute.ts1">
          121 callsubr
          392 663 rmoveto
          19 -17 17 -19 vhcurveto
          hintmask 11000000
          -7 -1 -19 -3 -12 -23 -11 -14 rlinecurve
          -86 -111 rlineto
          -5 -6 -8 -7 -6 vvcurveto
          -6 12 -9 5 7 22 20 11 12 vhcurveto
          41 34 85 55 30 vvcurveto
          endchar
        </CharString>
        <CharString name="adblgrave">
          -16 callsubr
          100 -21 187 -102 callgsubr
          -47 169 -93 callgsubr
        </CharString>
        <CharString name="adieresis">
          -16 callsubr
          125 96 hstemhm
          34 156 -20 96 80 96 -66 203 hintmask 11010010
          -106 callgsubr
          hintmask 00101100
          -17 249 -70 callgsubr
        </CharString>
        <CharString name="adotbelow">
          93 callsubr
          hstemhm
          34 156 64 106 16 203 hintmask 01110100
          -106 callgsubr
          hintmask 10001000
          77 -582 rmoveto
          50 callsubr
        </CharString>
        <CharString name="ae">
          -45 callgsubr
        </CharString>
        <CharString name="ae.dup">
          -45 callgsubr
        </CharString>
        <CharString name="aeacute">
          736 0 25 44 25 141 25 229 25 96 141 callsubr
          34 156 150 67 147 25 81 25 -3 25 hintmask 1011000110100000
          707 194 rmoveto
          -25 hlineto
          -125 -17 -23 -44 -118 hhcurveto
          -77 hlineto
          -35 -5 3 40 hvcurveto
          167 64 vlineto
          72 11 -20 -67 hvcurveto
          25 199 -25 hlineto
          -66 -10 -21 -73 vhcurveto
          -64 186 hlineto
          40 5 3 35 vhcurveto
          76 hlineto
          hintmask 1111001101000000
          106 20 -38 -106 11 hvcurveto
          25 hlineto
          -19 169 rlineto
          -443 -25 27 hlineto
          11 10 0 -1 11 hvcurveto
          -158 -394 -12 -29 -20 -39 -58 -1 rlinecurve
          -25 vlineto
          2 22 29 1 23 hhcurveto
          22 45 -2 -1 15 hvcurveto
          25 vlineto
          -44 3 0 34 7 vvcurveto
          11 3 8 5 11 vhcurveto
          54 136 rlineto
          132 -165 hlineto
          -39 -4 -6 -50 vhcurveto
          -25 392 vlineto
          hintmask 0010000100100000
          -338 260 rmoveto
          -122 hlineto
          90 225 rlineto
          32 -3 0 -27 -18 vvcurveto
          hintmask 0000110000000000
          157 305 -91 callgsubr
        </CharString>
        <CharString name="agrave">
          -16 callsubr
          99 -21 189 -102 callgsubr
          88 173 -65 callgsubr
        </CharString>
        <CharString name="ahookabove">
          -16 callsubr
          121 -21 145 -102 callgsubr
          101 274 -107 callgsubr
        </CharString>
        <CharString name="amacron">
          -16 callsubr
          157 31 hstemhm
          34 156 186 203 hintmask 11011000
          -106 callgsubr
          hintmask 00100000
          212 233 -25 callgsubr
        </CharString>
        <CharString name="ampersand">
          844 -22 31 119 31 150 22 21 31 17 31 124 22 117 22 hstemhm
          58 83 -17 63 41 63 -41 31 -25 25 16 31 64 25 0 63 266 25 -25 31 hintmask 000111101100101010000000
          777 400 rmoveto
          31 vlineto
          -97 -3 rlineto
          -11 -84 64 callsubr
          -31 vlineto
          37 31 -14 -28 -11 -4 -8 0 hvcurveto
          -25 -43 -28 -42 -29 -41 -33 -49 -23 -26 -20 -23 rrcurveto
          -101 115 -72 135 18 vvcurveto
          0 0 4 6 6 vhcurveto
          112 115 8 51 28 vvcurveto
          51 -21 78 -69 -63 -77 -54 -107 -82 22 -68 19 -53 vhcurveto
          -104 -104 rlineto
          hintmask 111000010000001100000000
          -40 -41 -26 -26 -53 vvcurveto
          -86 85 -64 105 64 62 23 53 64 vhcurveto
          -49 59 61 -27 64 hhcurveto
          81 66 58 85 2 hvcurveto
          -25 hlineto
          -81 -3 -71 -31 -46 hhcurveto
          -58 -44 43 43 -44 hvcurveto
          56 63 34 53 61 98 rrcurveto
          hintmask 000011100010110010000000
          33 52 24 38 89 1 rrcurveto
          -385 187 rmoveto
          -41 -30 -54 -81 -84 vhcurveto
          -29 82 -2 63 24 vvcurveto
          89 47 28 31 63 1 -103 -4 vhcurveto
          27 -515 rmoveto
          hintmask 111000010001000000000000
          -49 -62 -57 -14 -44 hhcurveto
          -82 -33 87 63 77 28 28 69 67 hvcurveto
          25 -58 54 -96 102 -105 rrcurveto
          endchar
        </CharString>
        <CharString name="anglearc">
          844 -79 -21 700 -20 hstem
          600 40 vstem
          771 20 rmoveto
          9 -6 7 -7 3 vhcurveto
          -142 49 rlineto
          16 52 8 55 55 vvcurveto
          55 -8 55 -16 52 vhcurveto
          142 49 rlineto
          7 3 6 7 9 vvcurveto
          14 -14 9 -13 -4 vhcurveto
          -142 -50 -20 52 -27 48 -35 43 rlinecurve
          5 -4 -6 3 -6 hhcurveto
          -11 -9 -9 -11 -5 2 -4 2 -3 hvcurveto
          32 -41 26 -44 19 -47 -480 -167 rcurveline
          -7 -3 -6 -7 -9 vvcurveto
          -9 6 -7 7 -3 vhcurveto
          480 -167 -19 -47 -26 -44 -32 -41 rlinecurve
          -2 -3 -2 -4 -5 129 callgsubr
          6 6 3 5 4 vhcurveto
          35 43 27 48 20 52 142 -50 rcurveline
          13 -4 14 9 14 vvcurveto
          -171 230 rmoveto
          -51 -8 -50 -14 -47 vhcurveto
          -425 148 425 148 rlineto
          14 -47 8 -50 -51 vvcurveto
          endchar
        </CharString>
        <CharString name="angleleft">
          389 -228 -21 1000 -20 hstem
          333 -229 rmoveto
          10 -7 12 -3 9 vhcurveto
          -4 11 -138 361 -20 52 rlineto
          -3 8 -5 9 8 vvcurveto
          4 2 4 1 4 vhcurveto
          8 20 116 304 17 45 19 45 15 45 rlinecurve
          1 2 0 3 3 vvcurveto
          11 -7 10 -11 vhcurveto
          0 -4 0 -2 -1 vhcurveto
          -15 -3 -6 -27 -5 -15 -138 -360 rcurveline
          -24 -63 rlineto
          -3 -10 -7 -11 -10 vvcurveto
          -9 6 -10 3 -8 vhcurveto
          161 -422 rlineto
          -19 6 7 -32 20 hhcurveto
          11 9 10 10 hvcurveto
          endchar
        </CharString>
        <CharString name="angleright">
          389 -228 -21 1000 -20 hstem
          278 251 rmoveto
          10 -6 10 -4 9 vhcurveto
          -160 422 rlineto
          8 -4 -8 41 -20 hhcurveto
          0 -4 0 -2 -1 vhcurveto
          -8 -2 -7 -8 -9 vvcurveto
          -2 vlineto
          1 -12 7 -12 5 -11 158 -416 rcurveline
          3 -8 6 -10 -9 vvcurveto
          -4 -2 -4 -1 -4 vhcurveto
          -8 -20 -164 -431 rlineto
          -2 -5 -3 -6 -6 129 callgsubr
          vhcurveto
          2 hlineto
          12 1 5 12 4 10 8 21 rcurveline
          138 362 24 63 rlineto
          3 10 7 11 10 vvcurveto
          endchar
        </CharString>
        <CharString name="aogonek">
          613 -184 40 313 25 337 -20 hstem
          34 156 200 42 vstem
          -30 callgsubr
          endchar
        </CharString>
        <CharString name="aogonekacute">
          613 -184 40 313 25 337 -20 102 callsubr
          34 156 200 42 hintmask 11100110
          -30 callgsubr
          hintmask 00011000
          153 307 -91 callgsubr
        </CharString>
        <CharString name="aring">
          -16 callsubr
          101 121 callgsubr
          130 callgsubr
          hintmask 11001001
          -106 callgsubr
          hintmask 00110110
          91 265 -55 callsubr
        </CharString>
        <CharString name="aringacute">
          -16 callsubr
          101 121 callgsubr
          182 -20 130 callgsubr
          hintmask 1100010010000000
          -106 callgsubr
          hintmask 0011101100000000
          91 265 -75 callsubr
          7 229 -102 callsubr
        </CharString>
        <CharString name="asciicircum">
          556 583 -21 123 59 hstem
          -5 566 vstem
          561 584 rmoveto
          -283 160 -283 -160 11 -22 271 123 272 -123 rlineto
          endchar
        </CharString>
        <CharString name="asciitilde">
          556 193 43 -25 43 -8 43 -25 43 hstemhm
          hintmask 10010000
          555 290 61 callgsubr
          hintmask 01000000
          38 callgsubr
          hintmask 00100000
          20 10 20 11 17 14 rrcurveto
          endchar
        </CharString>
        <CharString name="asciitilde.low">
          556 0 43 -25 43 -8 43 -25 43 hstemhm
          0 555 hintmask 10010000
          555 97 61 callgsubr
          hintmask 01001000
          38 callgsubr
          hintmask 00101000
          20 10 20 11 17 14 rrcurveto
          endchar
        </CharString>
        <CharString name="asterisk">
          553 340 -21 431 -20 hstemhm
          249 53 -52 53 hintmask 01100000
          469 441 rmoveto
          14 -8 6 -13 6 vhcurveto
          -149 67 148 67 rlineto
          22 10 0 11 6 vvcurveto
          18 -14 10 -13 -7 -5 -2 -6 -8 vhcurveto
          -135 -94 15 159 rlineto
          15 1 -1 22 -26 hhcurveto
          -12 -15 -8 -18 hvcurveto
          0 2 -18 -4 vvcurveto
          14 -148 -136 94 rlineto
          7 -10 -2 1 -7 hhcurveto
          -13 -14 -10 -18 -14 8 -6 13 -6 hvcurveto
          149 -67 -148 -67 rlineto
          -22 -10 0 -11 -6 vvcurveto
          -18 14 -10 13 7 5 2 6 8 vhcurveto
          135 94 rlineto
          hintmask 10010000
          -15 -164 rlineto
          -5 vlineto
          -7 -4 9 -20 21 hhcurveto
          12 15 8 18 hvcurveto
          0 -2 18 4 vvcurveto
          -14 148 136 -94 rlineto
          -7 10 2 -1 7 hhcurveto
          13 14 10 18 hvcurveto
          endchar
        </CharString>
        <CharString name="asterisk.math">
          500 57 -21 430 -20 hstemhm
          222 53 -38 197 hintmask 00010000
          434 158 rmoveto
          20 -22 7 -14 7 vhcurveto
          -39 18 -27 13 -29 18 -29 9 rlinecurve
          2 vlineto
          29 9 29 18 27 13 39 18 rcurveline
          14 7 22 7 20 vvcurveto
          15 -13 13 -15 -14 -12 -12 -8 -11 vhcurveto
          -107 -79 rlineto
          18 3 19 2 18 vhcurveto
          hintmask 01100000
          8 91 rlineto
          1 6 1 6 6 vvcurveto
          11 -8 18 -17 vhcurveto
          -2 hlineto
          -15 -13 -12 -16 hvcurveto
          hintmask 00010000
          -56 15 -54 -55 vvcurveto
          -107 79 rlineto
          8 -11 -12 12 -14 hhcurveto
          -16 -11 -14 -14 -21 20 -6 15 -7 hvcurveto
          39 -18 27 -13 29 -18 29 -9 rlinecurve
          -2 vlineto
          -29 -9 -29 -18 -27 -13 -39 -18 rcurveline
          -15 -7 -20 -6 -21 vvcurveto
          -14 11 -14 16 14 12 12 8 11 vhcurveto
          107 79 rlineto
          hintmask 10100000
          -54 -15 -57 -54 vvcurveto
          -16 13 -12 15 vhcurveto
          2 hlineto
          15 10 16 13 6 -1 6 -1 6 hvcurveto
          -8 91 rlineto
          -2 18 -3 19 18 vvcurveto
          107 -79 rlineto
          -8 11 12 -12 14 hhcurveto
          hintmask 00010000
          15 13 13 15 hvcurveto
          endchar
        </CharString>
        <CharString name="at">
          844 -11 22 117 22 394 22 117 22 hstem
          72 25 115 69 281 69 115 25 vstem
          771 340 rmoveto
          224 -173 141 -176 -194 -156 -161 -197 -186 143 -172 212 74 101 11 38 109 vhcurveto
          35 13 24 8 9 vvcurveto
          10 -7 0 -16 vhcurveto
          -9 hlineto
          -15 -2 0 -3 -6 hvcurveto
          -16 -37 -108 -48 -144 hhcurveto
          -194 -135 159 177 188 148 148 176 157 168 -123 -224 -99 -12 -87 -66 -37 0 54 13 hvcurveto
          240 vlineto
          23 -1 1 -23 vhcurveto
          -37 hlineto
          58 -39 -56 27 -54 hhcurveto
          -112 -97 -95 -124 -124 97 -95 112 57 51 30 43 32 hvcurveto
          -51 9 52 -22 42 hhcurveto
          84 23 92 120 hvcurveto
          -209 -75 rmoveto
          -19 0 -1 -12 -19 vhcurveto
          -56 -37 -51 -20 -40 hhcurveto
          -75 -66 84 113 112 66 85 75 40 48 -19 -52 37 hvcurveto
          15 -22 0 -3 -19 vvcurveto
          endchar
        </CharString>
        <CharString name="atilde">
          -16 callsubr
          126 45 4 45 -104 callsubr
          198 281 -106 callsubr
        </CharString>
        <CharString name="b">
          134 callgsubr
          118 66 callgsubr
          -281 -25 hlineto
          67 5 -6 -41 hvcurveto
          -370 11 callgsubr
        </CharString>
        <CharString name="backslash">
          500 69 callsubr
          56 387 vstem
          443 -230 rmoveto
          0 0 5 -5 13 vhcurveto
          -340 940 rlineto
          11 -4 -4 11 -14 hhcurveto
          -11 -9 -9 -11 0 0 -5 5 -13 hvcurveto
          340 -940 rlineto
          -11 4 4 -11 14 hhcurveto
          11 9 9 11 hvcurveto
          endchar
        </CharString>
        <CharString name="baht">
          771 0 31 313 22 286 31 hstemhm
          161 83 118 30 -30 83 19 30 78 97 hintmask 11111011
          698 183 rmoveto
          84 -81 77 -123 13 vhcurveto
          97 18 78 62 77 vvcurveto
          89 -99 80 -134 vhcurveto
          -44 30 hlineto
          9 -6 6 -9 -8 -7 -6 -9 vhcurveto
          -30 -304 -67 callsubr
          -527 67 callgsubr
          304 -30 hlineto
          -8 7 -7 8 9 6 7 8 vhcurveto
          30 72 vlineto
          138 96 89 94 hvcurveto
          -126 331 rmoveto
          -70 -59 -78 -113 vhcurveto
          -8 286 37 hlineto
          102 41 -82 -56 hvcurveto
          -210 -148 rmoveto
          -118 246 hlineto
          33 2 7 47 vhcurveto
          69 hlineto
          236 -468 rmoveto
          -74 -60 -79 -107 vhcurveto
          -39 313 hlineto
          hintmask 11010100
          53 hlineto
          103 50 -89 -71 hvcurveto
          -236 -153 rmoveto
          -69 hlineto
          -47 -2 7 33 hvcurveto
          273 118 vlineto
          endchar
        </CharString>
        <CharString name="bar">
          278 148 callsubr
          vstem
          159 -217 rmoveto
          31 callgsubr
          endchar
        </CharString>
        <CharString name="bigcircle">
          683 0 40 603 40 hstem
          0 40 603 -66 callsubr
          endchar
        </CharString>
        <CharString name="blanksymbol">
          134 callgsubr
          51 66 1 66 callgsubr
          -101 hlineto
          119 105 rlineto
          3 3 2 4 4 vvcurveto
          9 -7 6 -8 -4 -3 -1 -2 -3 vhcurveto
          -144 -128 rlineto
          -135 -25 hlineto
          57 12 -4 -27 2 hvcurveto
          -66 -58 rlineto
          -3 -3 -2 -4 -5 vvcurveto
          -8 7 -7 8 4 3 2 2 3 vhcurveto
          47 42 rlineto
          -347 11 callgsubr
        </CharString>
        <CharString name="braceleft">
          500 -229 -21 487 24 489 -20 hstem
          216 67 vstem
          427 -239 rmoveto
          10 -6 0 -10 1 vhcurveto
          -79 5 -37 45 -9 36 rrcurveto
          -3 11 0 2 35 vvcurveto
          150 vlineto
          30 0 51 -2 10 vhcurveto
          -13 66 -64 26 -39 11 rrcurveto
          118 34 0 71 28 vvcurveto
          180 vlineto
          72 0 22 24 25 vhcurveto
          18 18 23 24 70 4 rrcurveto
          5 1 4 4 6 vvcurveto
          11 -8 0 -12 -100 -89 -51 -72 -2 vhcurveto
          -183 vlineto
          -94 0 -16 -26 -28 vhcurveto
          -14 -14 -27 -27 -63 -4 rrcurveto
          -7 -7 -1 -10 -10 6 0 10 -1 hvcurveto
          43 -3 85 -21 -100 vvcurveto
          -198 vlineto
          -58 0 -34 52 -37 vhcurveto
          -30 43 65 -8 31 hhcurveto
          12 8 0 11 hvcurveto
          endchar
        </CharString>
        <CharString name="braceright">
          500 -229 -21 510 -21 511 -20 hstem
          216 67 vstem
          427 250 rmoveto
          10 -6 0 -10 1 vhcurveto
          -43 3 -85 21 100 vvcurveto
          198 vlineto
          58 0 34 -52 37 vhcurveto
          29 -43 -64 9 -32 hhcurveto
          -10 -10 0 -11 -10 6 0 10 -1 hvcurveto
          79 -5 37 -45 9 -36 rrcurveto
          3 -11 0 -2 -35 vvcurveto
          -150 vlineto
          -30 0 -51 2 -10 vhcurveto
          13 -66 64 -26 39 -11 rrcurveto
          -118 -34 0 -71 -28 vvcurveto
          -180 vlineto
          -72 0 -22 -24 -25 vhcurveto
          -18 -18 -23 -24 -70 -4 rrcurveto
          -5 -1 -4 -4 -6 vvcurveto
          -11 10 0 10 100 89 51 72 2 vhcurveto
          183 vlineto
          94 0 16 26 28 vhcurveto
          14 14 27 27 63 4 rrcurveto
          7 7 1 10 hvcurveto
          endchar
        </CharString>
        <CharString name="bracketleft">
          124 callgsubr
          281 -250 rmoveto
          40 -102 920 102 40 -142 -1000 vlineto
          endchar
        </CharString>
        <CharString name="bracketright">
          124 callgsubr
          179 -250 rmoveto
          1000 -142 -40 102 -920 -102 -40 vlineto
          endchar
        </CharString>
        <CharString name="breve">
          142 callsubr
          134 46 callsubr
          endchar
        </CharString>
        <CharString name="breve.cap">
          553 493 38 134 -20 hstem
          432 665 -85 callsubr
        </CharString>
        <CharString name="breve.ts1">
          611 522 38 135 -20 hstem
          100 22 366 22 vstem
          510 695 rmoveto
          -22 hlineto
          -92 -104 -43 -82 -82 -98 47 88 vhcurveto
          -22 hlineto
          -103 100 -70 104 95 111 57 116 vhcurveto
          endchar
        </CharString>
        <CharString name="brokenbar">
          278 148 callsubr
          vstem
          159 343 rmoveto
          374 vlineto
          14 0 19 -20 -20 0 -19 -14 vhcurveto
          -374 vlineto
          -9 10 -6 10 10 10 6 9 vhcurveto
          -560 vmoveto
          374 vlineto
          9 -10 6 -10 -10 -10 -6 -9 vhcurveto
          -374 vlineto
          41 callsubr
          endchar
        </CharString>
        <CharString name="bullet">
          844 96 360 hstem
          242 360 77 callsubr
          endchar
        </CharString>
        <CharString name="c">
          81 callgsubr
          hstem
          51 86 378 25 vstem
          -74 callgsubr
          -152 129 -119 151 130 79 104 87 hvcurveto
          endchar
        </CharString>
        <CharString name="cacute">
          81 callgsubr
          139 callsubr
          86 378 25 hintmask 11001100
          -74 callgsubr
          -152 129 -119 151 130 79 104 87 hvcurveto
          hintmask 00110000
          -85 565 -91 callgsubr
        </CharString>
        <CharString name="caron">
          553 94 callsubr
          428 675 -63 callsubr
        </CharString>
        <CharString name="caron.cap">
          117 callsubr
          133 -20 hstem
          427 600 -57 callgsubr
        </CharString>
        <CharString name="caron.ts1">
          611 573 -21 153 -20 hstem
          492 684 rmoveto
          -13 21 -174 -100 -129 75 -45 25 -13 -21 187 -132 rlineto
          endchar
        </CharString>
        <CharString name="ccaron">
          81 callgsubr
          137 callgsubr
          86 378 25 hintmask 11001100
          -74 callgsubr
          -152 129 -119 151 130 79 104 87 hvcurveto
          hintmask 00110000
          -63 581 -63 callsubr
        </CharString>
        <CharString name="ccedilla">
          81 callgsubr
          hstem
          51 86 253 86 39 25 vstem
          -74 callgsubr
          -141 111 -113 137 -15 hvcurveto
          -80 -3 callsubr
          51 -63 16 -60 hvcurveto
          53 vlineto
          118 10 71 98 82 vvcurveto
          endchar
        </CharString>
        <CharString name="ccircumflex">
          81 callgsubr
          137 callgsubr
          86 378 25 hintmask 11001100
          -74 callgsubr
          -152 129 -119 151 130 79 104 87 hvcurveto
          hintmask 00110000
          -63 433 -68 callgsubr
          endchar
        </CharString>
        <CharString name="cdotaccent">
          81 callgsubr
          103 106 hstemhm
          51 86 135 106 137 25 hintmask 11010100
          -74 callgsubr
          -152 129 -119 151 130 79 104 87 hvcurveto
          hintmask 00101000
          -162 507 rmoveto
          50 callsubr
        </CharString>
        <CharString name="cedilla">
          21 callsubr
        </CharString>
        <CharString name="cedilla.dup">
          21 callsubr
        </CharString>
        <CharString name="cent">
          81 callgsubr
          hstem
          51 86 173 30 175 25 vstem
          540 177 rmoveto
          9 0 7 -13 -11 0 -6 -10 -1 vhcurveto
          -7 -105 -85 -60 -83 -1 rrcurveto
          492 vlineto
          72 -1 83 -53 19 -125 rrcurveto
          -7 2 1 -6 10 42 callsubr
          169 vlineto
          16 0 8 -10 -6 -1 -2 -10 -8 vhcurveto
          -39 -51 -20 21 -46 39 -70 3 rlinecurve
          16 vlineto
          8 -7 7 -8 -8 -7 -7 -8 vhcurveto
          -17 vlineto
          -142 -10 -117 -115 -145 vvcurveto
          -145 117 -115 142 -10 vhcurveto
          -17 vlineto
          -8 7 -7 8 8 7 7 8 vhcurveto
          16 vlineto
          125 5 75 101 85 vvcurveto
          -230 -164 rmoveto
          -63 10 -110 47 187 vvcurveto
          189 112 45 61 10 vhcurveto
          endchar
        </CharString>
        <CharString name="cent.oldstyle">
          81 callgsubr
          hstemhm
          51 86 114 86 10 30 -24 30 -25 25 132 25 hintmask 11001001
          540 177 rmoveto
          9 0 7 -13 -11 0 -6 -10 -1 vhcurveto
          -106 -7 -86 -60 -84 hhcurveto
          -16 -28 3 12 -29 hvcurveto
          112 472 61 -16 60 -54 16 -104 rlinecurve
          -7 2 1 -6 10 42 callsubr
          169 vlineto
          16 0 8 -10 -6 -1 -2 -10 -8 vhcurveto
          -39 -51 rlineto
          hintmask 00000100
          -16 16 -31 28 -46 12 4 19 rcurveline
          10 3 -8 9 -9 hhcurveto
          hintmask 00000010
          -7 -6 -5 -7 -2 hvcurveto
          hintmask 11110101
          -5 -20 rlineto
          1 -7 -7 0 -8 hhcurveto
          -151 -129 -119 -152 -116 75 -97 103 -39 hvcurveto
          -7 -32 rlineto
          -9 -2 7 -9 9 hhcurveto
          8 5 5 7 2 hvcurveto
          7 28 rlineto
          -6 23 25 -3 25 hhcurveto
          130 79 104 87 hvcurveto
          -193 326 rmoveto
          -110 -464 rlineto
          -51 31 -49 62 125 vvcurveto
          222 155 24 45 vhcurveto
          hintmask 01001000
          endchar
        </CharString>
        <CharString name="centigrade">
          944 644 31 -31 40 -31 31 hstem
          277 103 cntrmask 11100000
          888 234 rmoveto
          11 -3 7 -9 -19 5 -39 -20 -4 vhcurveto
          -101 -21 -90 -82 -109 hhcurveto
          -71 -66 33 53 -47 hvcurveto
          -57 65 -17 89 85 vvcurveto
          68 7 71 31 61 vhcurveto
          80 41 86 60 91 hhcurveto
          124 81 -118 -108 13 hvcurveto
          -11 3 -6 -18 21 hhcurveto
          14 2 6 10 hvcurveto
          254 vlineto
          7 -1 9 -11 -15 -47 -79 -7 -3 vhcurveto
          -12 10 -11 13 -12 10 rrcurveto
          34 -42 -53 19 -54 hhcurveto
          -185 -165 -158 -205 -190 149 -174 201 135 112 103 138 13 hvcurveto
          1 5 0 4 5 vvcurveto
          -666 340 rmoveto
          59 -47 51 -66 vhcurveto
          -9 hlineto
          -58 -7 -41 -46 -58 vvcurveto
          -60 44 -51 68 vhcurveto
          9 hlineto
          58 7 42 47 58 vvcurveto
          -40 -1 rmoveto
          -38 -32 -33 -39 -35 -29 26 38 -7 vhcurveto
          7 vlineto
          37 32 34 38 36 29 -26 -38 7 vhcurveto
          endchar
        </CharString>
        <CharString name="circumflex">
          553 94 callsubr
          428 527 -68 callgsubr
          endchar
        </CharString>
        <CharString name="circumflex.cap">
          117 callsubr
          133 -20 hstem
          427 499 -46 callgsubr
        </CharString>
        <CharString name="circumflex.dup">
          553 94 callsubr
          428 527 -68 callgsubr
          endchar
        </CharString>
        <CharString name="colon">
          319 0 106 219 106 hstem
          106 106 vstem
          212 378 -100 callgsubr
          -325 vmoveto
          50 callsubr
        </CharString>
        <CharString name="colonmonetary">
          70 callsubr
          hstem
          72 103 242 30 241 25 vstem
          713 233 rmoveto
          10 0 7 -13 -11 0 -6 -10 -1 vhcurveto
          -145 -8 -117 -80 -112 hhcurveto
          -4 665 2 hlineto
          107 102 -83 -154 23 hvcurveto
          27 callsubr
          16 0 3 21 hvcurveto
          237 vlineto
          17 0 7 -11 -4 -4 0 -12 -8 vhcurveto
          -52 -77 -32 33 -58 52 -97 4 rlinecurve
          8 vlineto
          9 -6 6 -9 -8 -7 -6 -9 vhcurveto
          -9 vlineto
          -188 -10 -157 -156 -196 vvcurveto
          -197 156 -156 189 -10 vhcurveto
          -9 vlineto
          -8 7 -7 8 9 6 7 8 vhcurveto
          8 vlineto
          164 5 102 133 117 vvcurveto
          -296 -222 rmoveto
          -94 13 -148 69 248 vvcurveto
          258 157 61 85 12 vhcurveto
          endchar
        </CharString>
        <CharString name="comma">
          319 0 106 hstem
          202 22 vstem
          224 1 rmoveto
          56 -20 49 -45 -35 -18 128 callsubr
          36 4 23 0 19 14 vhcurveto
          2 -6 0 -2 -10 vvcurveto
          -98 -61 -61 -11 -11 vhcurveto
          -10 -8 0 -1 -4 vvcurveto
          -6 5 -5 6 11 82 77 117 vhcurveto
          endchar
        </CharString>
        <CharString name="copyleft">
          683 0 40 603 40 hstem
          0 40 603 -66 callsubr
          -112 hmoveto
          107 -89 85 -104 -54 -33 -29 -18 -17 vhcurveto
          -28 41 rlineto
          6 -4 -2 0 -2 hhcurveto
          -6 0 -3 -9 hvcurveto
          -126 vlineto
          -11 0 -2 8 7 1 2 7 1 vhcurveto
          82 12 54 44 57 hhcurveto
          36 109 -20 -157 -148 -100 -28 -46 -60 -62 43 77 -4 hvcurveto
          5 0 3 -6 -7 0 -4 -5 -63 56 -72 90 104 89 85 108 vhcurveto
          endchar
        </CharString>
        <CharString name="copyright">
          683 0 40 603 40 hstem
          0 40 603 -66 callsubr
          -152 -58 rmoveto
          6 0 3 -6 -6 0 -3 -5 -1 vhcurveto
          -77 -4 -62 -42 -59 hhcurveto
          -47 -100 27 148 157 109 20 37 56 54 -44 -82 12 hvcurveto
          -7 1 1 -2 7 hhcurveto
          8 0 2 11 hvcurveto
          125 vlineto
          9 0 4 -5 -3 -2 0 -6 -4 vhcurveto
          -27 -41 rlineto
          18 -18 -32 29 -55 hhcurveto
          -104 -89 -85 -107 -108 89 -85 105 89 56 72 63 hvcurveto
          endchar
        </CharString>
        <CharString name="copyright.alt">
          818 -152 40 738 40 hstem
          0 40 738 40 vstem
          818 257 rmoveto
          251 -158 158 -251 -251 -158 -158 -251 -251 158 -158 251 251 158 158 251 vhcurveto
          -40 hmoveto
          -226 -143 -143 -226 -226 -143 143 226 226 143 143 226 226 143 -143 -226 vhcurveto
          -144 -82 rmoveto
          8 0 5 -10 -8 0 -5 -7 -1 vhcurveto
          -109 -6 -88 -60 -84 hhcurveto
          -67 -141 39 210 222 154 29 52 81 76 -63 -115 18 hvcurveto
          -11 1 1 -2 10 hhcurveto
          12 0 2 16 hvcurveto
          178 vlineto
          13 0 5 -9 -3 -3 0 -9 -6 vhcurveto
          -39 -58 rlineto
          26 -25 -45 41 -78 hhcurveto
          -148 -126 -120 -153 -153 126 -121 149 127 80 103 89 hvcurveto
          endchar
        </CharString>
        <CharString name="currency">
          844 41 40 338 40 hstem
          213 40 338 40 vstem
          669 3 rmoveto
          14 14 -13 13 -10 10 -77 77 rcurveline
          30 36 18 47 50 vvcurveto
          51 -18 46 -30 36 vhcurveto
          76 77 10 10 14 13 -14 14 rlinecurve
          -15 14 -13 -13 -10 -10 -76 -77 rcurveline
          30 -36 -46 18 -51 hhcurveto
          -50 -47 -18 -30 -36 hvcurveto
          -77 78 -10 10 -13 13 -15 -14 rlinecurve
          -14 -14 14 -14 10 -10 77 -77 rcurveline
          -30 -36 -18 -47 -50 vvcurveto
          -50 18 -46 30 -36 vhcurveto
          -77 -78 -10 -10 -14 -13 14 -14 rlinecurve
          15 -14 13 13 10 10 77 77 rcurveline
          -30 36 47 -18 50 hhcurveto
          51 46 18 30 36 hvcurveto
          77 -77 10 -10 13 -13 14 14 rlinecurve
          -78 247 rmoveto
          -93 -76 -76 -93 -93 -76 76 93 93 76 76 93 93 76 -76 -93 vhcurveto
          endchar
        </CharString>
        <CharString name="cwm">
          0 endchar
        </CharString>
        <CharString name="cwmascender">
          0 endchar
        </CharString>
        <CharString name="cwmcapital">
          0 endchar
        </CharString>
        <CharString name="d">
          624 0 25 47 25 392 25 hstem
          117 callgsubr
          vstem
          -58 callgsubr
          endchar
        </CharString>
        <CharString name="dagger">
          444 -195 -21 613 67 241 -20 hstem
          164 67 -43 67 -43 67 cntrmask 00011100
          387 430 98 callsubr
          20 1 28 11 65 rrcurveto
          5 37 6 37 37 vvcurveto
          8 0 33 -33 -34 0 -32 -9 -35 9 -58 4 -24 vhcurveto
          7 -46 3 -32 1 -29 53 callgsubr
          -2 -25 -3 -20 -5 -25 rrcurveto
          -14 -72 0 -8 -53 vvcurveto
          -151 11 -168 9 -95 vhcurveto
          -14 1 1 -6 11 hhcurveto
          12 0 5 13 2 hvcurveto
          6 50 3 53 2 51 rrcurveto
          4 63 5 103 96 vvcurveto
          54 0 7 -14 71 vhcurveto
          -5 23 -3 21 -2 27 99 callgsubr
          endchar
        </CharString>
        <CharString name="daggerdbl">
          444 -184 -21 194 66 389 67 194 -20 hstem
          164 67 -43 67 -43 67 cntrmask 00001110
          387 477 98 callsubr
          30 7 34 3 14 rrcurveto
          6 33 7 40 28 vvcurveto
          7 0 32 -34 -10 -23 -3 -36 -20 4 -29 7 -35 vhcurveto
          7 -41 5 -28 1 -26 53 callgsubr
          -1 -30 -7 -34 -3 -14 rrcurveto
          -6 -33 -7 -40 -28 vvcurveto
          -35 22 -4 11 30 4 25 14 20 -4 29 -7 35 vhcurveto
          -7 41 -5 28 -1 26 99 callgsubr
          -455 vmoveto
          17 -12 16 -21 -20 -17 -3 -8 -31 vhcurveto
          -26 -8 -7 -2 -22 -2 2 28 4 24 7 42 rrcurveto
          11 56 0 23 5 vvcurveto
          35 -22 4 -11 -30 -4 -25 -14 -29 8 -43 6 -34 vhcurveto
          3 -11 5 -31 2 -30 -23 2 -3 1 -40 11 rrcurveto
          9 -32 -17 0 -7 hhcurveto
          -25 -9 -20 -13 -15 10 -18 24 24 24 6 4 11 hvcurveto
          39 10 7 1 17 2 -2 -28 -4 -24 -7 -42 rrcurveto
          -11 -56 0 -23 -5 vvcurveto
          -35 22 -4 11 30 4 25 14 29 -8 43 -6 34 vhcurveto
          -3 11 -5 31 -2 30 23 -2 3 -1 40 -11 rrcurveto
          -9 33 18 0 5 hhcurveto
          24 10 18 15 hvcurveto
          endchar
        </CharString>
        <CharString name="dblbracketleft">
          403 -249 40 920 40 hstem
          118 40 84 40 vstem
          380 -249 rmoveto
          40 -98 920 98 40 -262 -1000 vlineto
          124 40 rmoveto
          -84 920 84 hlineto
          endchar
        </CharString>
        <CharString name="dblbracketright">
          403 -249 40 920 40 hstem
          120 40 84 40 vstem
          284 -249 rmoveto
          1000 -261 -40 97 -920 -97 -40 vlineto
          221 40 rmoveto
          -84 920 84 hlineto
          endchar
        </CharString>
        <CharString name="dblgrave.ts1">
          500 536 -21 185 -20 hstem
          205 525 rmoveto
          39 callgsubr
          166 hmoveto
          39 callgsubr
          endchar
        </CharString>
        <CharString name="dblverticalbar">
          398 148 callsubr
          80 40 vstem
          159 -217 rmoveto
          31 callgsubr
          120 hmoveto
          31 callgsubr
          endchar
        </CharString>
        <CharString name="dcaron">
          624 0 25 47 25 392 25 103 -21 176 -20 hstemhm
          117 callgsubr
          hintmask 11100110
          -58 callgsubr
          hintmask 00011000
          -73 505 -63 callsubr
        </CharString>
        <CharString name="dcroat">
          624 0 25 47 25 392 25 hstem
          117 callgsubr
          vstem
          4 callsubr
          -172 -72 -26 72 -172 -73 callsubr
          281 vlineto
          141 106 116 137 hvcurveto
          -83 hmoveto
          -82 -15 -42 -21 -32 vhcurveto
          -22 -16 -43 -50 -92 hhcurveto
          -77 hlineto
          -35 -5 3 40 hvcurveto
          176 126 26 -126 176 84 callgsubr
        </CharString>
        <CharString name="ddotbelow">
          624 67 callsubr
          25 47 25 392 25 hstemhm
          117 69 26 106 172 83 hintmask 01111010
          -58 callgsubr
          hintmask 10000100
          -172 -400 rmoveto
          50 callsubr
        </CharString>
        <CharString name="degree">
          415 392 40 211 40 hstem
          61 40 212 40 vstem
          353 538 rmoveto
          80 -65 65 -81 -80 -66 -65 -80 -81 66 -65 80 81 65 65 81 vhcurveto
          -40 hmoveto
          -59 -47 -47 -59 -58 -48 47 59 58 48 47 58 59 47 -47 -58 vhcurveto
          endchar
        </CharString>
        <CharString name="diameter">
          844 -78 40 576 40 hstem
          94 40 576 40 vstem
          771 580 rmoveto
          11 -9 9 -11 -6 -5 -2 -4 -3 vhcurveto
          -98 -98 rlineto
          51 -58 -76 31 -83 hhcurveto
          -181 -147 -147 -181 -83 31 -76 51 -58 hvcurveto
          -98 -99 rlineto
          -4 -3 -2 -5 -6 129 callgsubr
          6 5 2 4 3 vhcurveto
          99 98 rlineto
          -51 57 77 -31 83 hhcurveto
          181 147 147 181 84 -31 76 -52 58 hvcurveto
          98 98 rlineto
          4 3 2 5 6 vvcurveto
          -61 -330 rmoveto
          -159 -129 -129 -159 -72 -67 27 44 -50 vhcurveto
          406 406 rlineto
          44 -50 27 -66 -73 vvcurveto
          -99 218 rmoveto
          -406 -407 rlineto
          -44 51 -27 66 72 vvcurveto
          159 129 129 159 72 66 -27 -43 51 vhcurveto
          endchar
        </CharString>
        <CharString name="died">
          500 -17 37 -24 -21 369 37 -34 37 219 -20 hstemhm
          215 67 -54 43 -41 43 hintmask 00010000
          455 359 rmoveto
          11 vlineto
          10 -2 7 -13 -16 -17 -2 -1 -16 vhcurveto
          hintmask 00100010
          -120 -3 rlineto
          hintmask 00000100
          62 3 62 8 62 vhcurveto
          1 6 2 7 7 vvcurveto
          hintmask 00001001
          9 -4 6 -8 1 vhcurveto
          -44 hlineto
          hintmask 00000100
          -8 -6 -4 -9 hvcurveto
          -8 vlineto
          hintmask 00100010
          10 -66 3 -68 -67 vvcurveto
          -46 -46 4 -45 hhcurveto
          -10 -10 1 1 -10 hvcurveto
          -10 -7 -2 -17 hvcurveto
          -8 vlineto
          -8 1 -9 9 -2 vhcurveto
          3 hlineto
          17 17 2 1 17 hvcurveto
          hintmask 00010010
          120 3 rlineto
          hintmask 00000100
          -114 -3 -118 -10 -114 vhcurveto
          -3 -1 -5 -4 vvcurveto
          hintmask 01000001
          -10 6 -4 10 vhcurveto
          43 hlineto
          hintmask 10000100
          5 1 4 2 2 5 rrcurveto
          12 vlineto
          8 -1 9 -1 8 vhcurveto
          hintmask 00010010
          -9 108 -2 111 108 vvcurveto
          46 46 -4 45 hhcurveto
          10 10 -1 -1 10 hvcurveto
          10 7 2 16 hvcurveto
          endchar
        </CharString>
        <CharString name="dieresis">
          553 553 96 hstem
          140 96 80 96 vstem
          -38 callsubr
          endchar
        </CharString>
        <CharString name="dieresis.cap">
          553 483 96 hstem
          124 120 callsubr
          vstem
          3 callsubr
          endchar
        </CharString>
        <CharString name="dieresis.dup">
          553 553 96 hstem
          140 96 80 96 vstem
          -38 callsubr
          endchar
        </CharString>
        <CharString name="dieresis.ts1">
          500 570 100 hstem
          202 620 rmoveto
          135 callsubr
          -4 -18 -20 -25 147 callsubr
          194 hmoveto
          135 callsubr
          -3 -18 -22 -24 147 callsubr
          endchar
        </CharString>
        <CharString name="discount">
          500 22 -21 750 -20 hstemhm
          86 124 79 124 -112 124 hintmask 11101000
          444 730 rmoveto
          11 -8 10 -11 vhcurveto
          0 -4 0 -2 -1 vhcurveto
          -9 -2 -4 -8 -3 -7 -10 -19 rcurveline
          -311 -633 rlineto
          -8 -17 -18 -26 -16 vvcurveto
          -11 7 -10 13 vhcurveto
          1 hlineto
          11 1 4 9 5 9 70 143 rcurveline
          134 272 57 117 66 134 rlineto
          7 13 13 20 11 vvcurveto
          -234 -53 rmoveto
          -34 -29 -27 -34 -37 -24 33 30 31 24 25 30 4 vhcurveto
          3 3 1 3 hhcurveto
          37 24 -33 -30 hvcurveto
          203 -604 rmoveto
          -34 -29 -27 -34 vhcurveto
          hintmask 00010000
          -37 -24 33 30 31 24 25 30 4 hvcurveto
          3 3 1 3 hhcurveto
          37 24 -33 -30 hvcurveto
          endchar
        </CharString>
        <CharString name="divide">
          844 40 106 84 40 84 106 hstem
          369 106 cntrmask 11100000
          771 250 24 callgsubr
          -296 157 -100 callgsubr
          -314 vmoveto
          50 callsubr
        </CharString>
        <CharString name="divorced">
          500 -83 -21 139 47 337 47 -47 48 139 -20 hstemhm
          -189 46 272 32 56 66 -61 46 -42 46 -44 44 0 66 0 32 272 46 hintmask 0001000000000000
          688 252 rmoveto
          98 -66 117 -110 vhcurveto
          hintmask 0110000000010100
          -5 -4 -1 -5 hhcurveto
          -102 -12 -58 -105 -99 vvcurveto
          -100 66 -115 105 112 67 114 103 vhcurveto
          -527 hmoveto
          hintmask 0001000000000000
          100 -66 115 -105 vhcurveto
          hintmask 0110011100000000
          -4 -5 -1 -4 hhcurveto
          -105 -13 -61 -99 -103 vvcurveto
          -98 65 -118 111 112 62 119 98 vhcurveto
          124 -336 rmoveto
          8 -1 8 -1 7 vhcurveto
          hintmask 0000000000100000
          -8 84 -1 84 -2 84 rrcurveto
          44 vlineto
          -1 97 rlineto
          hintmask 0000100100000000
          82 5 84 7 82 vhcurveto
          1 4 1 4 4 vvcurveto
          9 -5 4 -7 1 vhcurveto
          -42 hlineto
          hintmask 0000000010000000
          -3 -3 0 -1 -3 hvcurveto
          -4 -2 -3 -3 -5 vvcurveto
          -6 vlineto
          hintmask 0000000100000000
          -9 1 -9 1 -8 vhcurveto
          hintmask 0000000000100000
          7 -77 4 -76 -77 vvcurveto
          -5 -269 rlineto
          -3 -49 -5 -49 -49 vvcurveto
          -13 vlineto
          hintmask 1000000001000000
          2 -5 4 -2 5 -1 rrcurveto
          hintmask 1110011010001100
          42 hlineto
          12 5 3 17 hvcurveto
          -156 339 rmoveto
          -4 0 -4 -1 -4 vhcurveto
          -72 -6 -33 -89 -100 hhcurveto
          -90 -42 87 81 73 32 96 100 88 52 -82 -82 hvcurveto
          513 -5 rmoveto
          -74 -35 -94 -97 -87 -45 76 86 -8 vhcurveto
          7 vlineto
          80 49 88 91 79 53 -71 -98 vhcurveto
          endchar
        </CharString>
        <CharString name="dlinebelow">
          624 -162 31 131 25 47 25 392 25 hstemhm
          117 callgsubr
          hintmask 01111100
          -58 callgsubr
          hintmask 10000000
          -36 -415 -25 callgsubr
        </CharString>
        <CharString name="dollar">
          553 -35 -21 45 31 -30 31 116 92 82 92 76 92 102 31 -30 31 45 -20 hstemhm
          72 92 97 31 96 92 -31 31 hintmask 0000110100101000
          480 195 rmoveto
          35 -9 56 -49 52 vhcurveto
          -39 43 -40 10 -51 12 rrcurveto
          271 vlineto
          92 -5 52 -46 13 -54 rrcurveto
          1 -2 -6 1 -7 hhcurveto
          hintmask 0000010110110000
          -26 -20 -18 -28 -31 25 -15 21 3 43 1 49 92 -63 77 -125 7 hvcurveto
          45 -31 vlineto
          hintmask 1101001001100000
          -46 vlineto
          -114 -8 -75 -89 -94 vvcurveto
          -38 12 -50 43 -43 vhcurveto
          42 -42 36 -8 56 -13 rrcurveto
          -299 vlineto
          -82 5 -60 40 -17 74 rrcurveto
          -1 4 8 -1 4 hhcurveto
          27 19 19 27 28 -21 18 -25 -6 -40 -2 -49 -92 58 -90 131 -7 hvcurveto
          -45 31 vlineto
          hintmask 0010101000110000
          46 vlineto
          110 9 78 92 104 vvcurveto
          -219 215 rmoveto
          -31 7 -107 25 101 vvcurveto
          60 51 62 87 8 vhcurveto
          168 -508 rmoveto
          -62 -45 -71 -92 -11 vhcurveto
          290 vlineto
          29 -6 34 -8 32 -32 rrcurveto
          20 -19 22 -35 -46 vvcurveto
          endchar
        </CharString>
        <CharString name="dollar.oldstyle">
          610 674 30 -30 31 -30 30 hstem
          463 51 -51 92 -51 51 cntrmask 11111100
          555 197 rmoveto
          3 vlineto
          -1 89 -64 64 -114 37 rrcurveto
          280 vlineto
          60 -8 59 -24 29 -68 rrcurveto
          1 -5 -5 1 -5 hhcurveto
          -26 -20 -19 -27 -28 21 -18 30 hvcurveto
          32 6 9 20 25 vvcurveto
          106 -75 49 -104 14 vhcurveto
          51 -31 -47 vlineto
          1 -13 -13 0 -14 hhcurveto
          -13 -13 -1 -2 -13 hvcurveto
          49 -31 -54 vlineto
          -94 -21 -86 -63 -99 vvcurveto
          -73 46 -69 134 -39 vhcurveto
          -307 vlineto
          -63 11 -59 31 -28 72 rrcurveto
          -1 5 6 -1 5 hhcurveto
          24 22 17 28 27 -20 19 -25 -37 -10 -27 -26 -107 77 -56 103 -17 hvcurveto
          -51 31 47 vlineto
          -1 13 13 -1 13 hhcurveto
          13 14 1 2 13 hvcurveto
          -48 31 54 vlineto
          97 24 82 71 103 vvcurveto
          -210 202 rmoveto
          -13 4 -14 3 -14 3 -12 2 -13 2 -13 3 rrcurveto
          255 vlineto
          3 15 13 1 11 hhcurveto
          13 13 0 -1 14 hvcurveto
          -110 -251 rmoveto
          -47 12 -46 22 -28 51 rrcurveto
          -5 12 -3 13 13 vvcurveto
          66 68 37 61 16 vhcurveto
          269 -500 rmoveto
          -66 -60 -47 -68 -20 vhcurveto
          268 vlineto
          66 -22 62 -40 -73 vvcurveto
          -159 -140 rmoveto
          -3 -15 -15 -1 -14 hhcurveto
          -12 -11 0 1 -12 hvcurveto
          303 vlineto
          11 -2 12 -3 13 -2 14 -2 14 -3 15 -4 rrcurveto
          endchar
        </CharString>
        <CharString name="dong">
          624 -30 30 hstem
          544 266 rmoveto
          131 -98 117 -136 vhcurveto
          -267 -24 hlineto
          63 5 -5 -39 hvcurveto
          -164 -68 -24 68 -164 vlineto
          -39 -5 -6 -63 vhcurveto
          -23 267 vlineto
          134 100 110 130 hvcurveto
          -281 vmoveto
          8 -6 7 -9 vhcurveto
          -471 hlineto
          -9 -6 -7 -8 -8 6 -7 9 hvcurveto
          471 hlineto
          9 6 7 8 hvcurveto
          -79 281 rmoveto
          -78 -14 -40 -20 -30 vhcurveto
          -21 -15 -41 -48 -87 hhcurveto
          -73 hlineto
          -34 -4 3 38 hvcurveto
          167 vlineto
          119 1 rlineto
          24 -119 167 vlineto
          38 4 3 34 vhcurveto
          73 hlineto
          82 40 -44 -17 14 hvcurveto
          21 -27 20 -40 -96 vvcurveto
          endchar
        </CharString>
        <CharString name="dotaccent">
          319 548 138 callgsubr
          601 rmoveto
          50 callsubr
        </CharString>
        <CharString name="dotaccent.alt">
          319 546 138 callgsubr
          599 rmoveto
          50 callsubr
        </CharString>
        <CharString name="dotaccent.cap">
          319 483 138 callgsubr
          536 rmoveto
          50 callsubr
        </CharString>
        <CharString name="dotlessi">
          29 callgsubr
          hstem
          115 72 vstem
          -90 callsubr
          112 3 rlineto
          endchar
        </CharString>
        <CharString name="dotlessj">
          -53 callgsubr
        </CharString>
        <CharString name="e">
          -17 callsubr
          hstemhm
          43 72 0 72 70 72 14 25 114 25 -3 25 hintmask 1110111010000000
          -96 callgsubr
          hintmask 1011000100000000
          -87 callgsubr
          hintmask 0000000010000000
          endchar
        </CharString>
        <CharString name="eacute">
          -17 callsubr
          99 -21 189 -94 callgsubr
          -91 742 -91 callgsubr
        </CharString>
        <CharString name="ebreve">
          -17 callsubr
          87 38 134 -94 callgsubr
          -65 770 -85 callsubr
        </CharString>
        <CharString name="ecaron">
          -17 callsubr
          106 -21 176 -94 callgsubr
          -69 758 -63 callsubr
        </CharString>
        <CharString name="ecircumflex">
          -17 callsubr
          106 -21 176 -94 callgsubr
          -69 610 -68 callgsubr
          endchar
        </CharString>
        <CharString name="ecircumflexacute">
          -17 callsubr
          106 -21 315 -94 callgsubr
          -70 612 -67 callgsubr
        </CharString>
        <CharString name="ecircumflexdotbelow">
          558 67 callsubr
          10 callgsubr
          106 -21 176 -20 60 callgsubr
          39 106 -75 72 14 25 114 25 -3 25 hintmask 0111000101101000
          -96 callgsubr
          hintmask 0101001000010000
          -87 callgsubr
          hintmask 0000110000001000
          -69 610 -68 callgsubr
          hintmask 1000000010000000
          -86 -743 rmoveto
          50 callsubr
        </CharString>
        <CharString name="ecircumflexgrave">
          -17 callsubr
          106 -21 133 -94 callgsubr
          -70 612 -69 callgsubr
        </CharString>
        <CharString name="ecircumflexhookabove">
          -17 callsubr
          106 -21 278 -94 callgsubr
          -70 612 -92 callgsubr
          16 231 -107 callgsubr
        </CharString>
        <CharString name="ecircumflextilde">
          -17 callsubr
          106 -21 173 45 4 45 60 callgsubr
          70 72 14 25 114 25 -3 25 hintmask 1110000111010000
          -96 callgsubr
          hintmask 1010001000100000
          -87 callgsubr
          hintmask 0000000000010000
          hintmask 0001110000000000
          -70 612 -92 callgsubr
          36 252 -106 callsubr
        </CharString>
        <CharString name="edblgrave">
          -17 callsubr
          100 -21 187 -20 -93 callsubr
          hintmask 0001101000000000
          -268 604 -93 callgsubr
        </CharString>
        <CharString name="edieresis">
          -17 callsubr
          125 96 60 callgsubr
          -44 96 18 72 -10 96 -72 25 114 25 -3 25 hintmask 1110010101010000
          -96 callgsubr
          hintmask 1010100000100000
          -87 callgsubr
          hintmask 0000000000010000
          hintmask 0001001010000000
          -261 684 -70 callgsubr
        </CharString>
        <CharString name="edotaccent">
          -17 callsubr
          120 106 60 callgsubr
          39 106 -75 72 14 25 114 25 -3 25 hintmask 1110010110100000
          -96 callgsubr
          hintmask 1010100001000000
          -79 callgsubr
          hintmask 0001001000000000
          -168 684 rmoveto
          50 callsubr
        </CharString>
        <CharString name="edotbelow">
          558 67 callsubr
          10 callgsubr
          hstemhm
          43 72 0 72 39 106 -75 72 14 25 114 25 -3 25 hintmask 0111010110100000
          -96 callgsubr
          hintmask 0101100001000000
          -79 callgsubr
          hintmask 1000001000000000
          -168 -147 rmoveto
          50 callsubr
        </CharString>
        <CharString name="egrave">
          -17 callsubr
          99 -21 189 -94 callgsubr
          -156 608 -65 callgsubr
        </CharString>
        <CharString name="ehookabove">
          -17 callsubr
          121 -21 145 -94 callgsubr
          -143 709 -107 callgsubr
        </CharString>
        <CharString name="eight">
          553 -22 28 635 25 hstem
          58 50 336 50 vstem
          494 -12 callgsubr
        </CharString>
        <CharString name="eight.oldstyle">
          592 -22 28 635 25 hstemhm
          78 145 callgsubr
          514 -14 callgsubr
        </CharString>
        <CharString name="eight.prop">
          592 -22 28 635 25 hstem
          78 50 336 50 vstem
          514 -12 callgsubr
        </CharString>
        <CharString name="eight.taboldstyle">
          553 -22 28 635 25 hstemhm
          58 145 callgsubr
          494 -14 callgsubr
        </CharString>
        <CharString name="ellipsis">
          720 0 106 hstem
          107 106 94 106 94 106 cntrmask 01110000
          213 53 -100 callgsubr
          200 hmoveto
          -101 callsubr
          200 hmoveto
          50 callsubr
        </CharString>
        <CharString name="emacron">
          -17 callsubr
          157 31 60 callgsubr
          70 72 14 25 114 25 -3 25 hintmask 1110011101000000
          -96 callgsubr
          hintmask 1010100010000000
          -87 callgsubr
          hintmask 0000000001000000
          hintmask 0001000000000000
          -32 668 -25 callgsubr
        </CharString>
        <CharString name="emdash">
          1106 255 22 hstem
          1077 255 rmoveto
          22 -1049 -22 vlineto
          endchar
        </CharString>
        <CharString name="emdash.alt">
          667 256 22 hstem
          666 256 rmoveto
          22 -666 -22 vlineto
          endchar
        </CharString>
        <CharString name="endash">
          553 255 22 hstem
          538 255 rmoveto
          22 -524 -22 vlineto
          endchar
        </CharString>
        <CharString name="eng">
          613 -22 25 -25 92 -70 49 callgsubr
          -4 26 -25 25 133 callgsubr
          150 72 99 70 hintmask 0000101100000000
          578 257 rmoveto
          148 -100 131 -141 -59 -54 -26 -41 -37 vhcurveto
          hintmask 0001001000000000
          45 vlineto
          hintmask 0000010000000000
          -2 -12 -12 -1 -12 hhcurveto
          hintmask 0011001000000000
          -112 -30 callsubr
          71 5 -5 -43 hvcurveto
          -368 vlineto
          -43 -5 -5 -71 vhcurveto
          -25 140 callgsubr
          112 3 rlineto
          hintmask 0010101110000000
          112 -3 rlineto
          9 callsubr
          354 vlineto
          50 30 57 33 63 hhcurveto
          113 58 -126 -127 -96 0 -108 -54 -36 hvcurveto
          1 2 0 3 2 vvcurveto
          hintmask 0100000110000000
          86 callgsubr
          120 49 141 138 vhcurveto
          endchar
        </CharString>
        <CharString name="eogonek">
          558 -184 40 144 10 callgsubr
          123 callgsubr
          hintmask 0111011011000000
          -96 callgsubr
          116 26 -35 -109 11 hvcurveto
          25 hlineto
          -19 169 rlineto
          hintmask 1101100101000000
          -445 -45 callsubr
          -367 -73 callsubr
          324 vlineto
          -42 -32 -25 -29 -44 -56 callgsubr
          34 30 28 30 21 hvcurveto
          98 hlineto
          endchar
        </CharString>
        <CharString name="eogonekacute">
          558 -184 40 144 10 callgsubr
          99 -21 189 -20 123 callgsubr
          hintmask 0111000110110000
          -96 callgsubr
          116 26 -35 -109 11 hvcurveto
          25 hlineto
          -19 169 rlineto
          hintmask 1101001001010000
          -445 -45 callsubr
          -367 -73 callsubr
          324 vlineto
          -42 -32 -25 -29 -44 -56 callgsubr
          34 30 28 30 21 hvcurveto
          98 hlineto
          hintmask 0000110000000000
          -91 742 -91 callgsubr
        </CharString>
</ttFont>
